<svg width="59" height="53" viewBox="0 0 59 53" fill="none" xmlns="http://www.w3.org/2000/svg">
<g id="bg-hab3">
<path d="M27.5327 13.3047C32.5672 18.0217 34.5578 20.8572 35.128 26.5964C52.1088 21.7432 57.5594 16.1081 58.8631 0.0130705C45.7754 -0.200376 38.8218 2.11477 27.5327 13.3047Z" fill="url(#paint0_linear_316_284)"/>
<path d="M33.2292 51.2809C33.2292 53.1796 24.6845 53.1796 24.6845 51.2809V34.1916C9.77386 31.4026 3.26729 27.1714 0 7.60831C19.321 7.45745 32.2798 16.1399 33.2292 28.4952V51.2809Z" fill="url(#paint1_linear_316_284)"/>
<path d="M27.5327 13.3047C32.5672 18.0217 34.5578 20.8572 35.128 26.5964C52.1088 21.7432 57.5594 16.1081 58.8631 0.0130705C45.7754 -0.200376 38.8218 2.11477 27.5327 13.3047Z" stroke="#A8622C" stroke-width="1.5" stroke-linejoin="round"/>
<path d="M33.2292 51.2809C33.2292 53.1796 24.6845 53.1796 24.6845 51.2809V34.1916C9.77386 31.4026 3.26729 27.1714 0 7.60831C19.321 7.45745 32.2798 16.1399 33.2292 28.4952V51.2809Z" stroke="#A8622C" stroke-width="1.5" stroke-linejoin="round"/>
</g>
<defs>
<linearGradient id="paint0_linear_316_284" x1="-2.69782e-07" y1="26.0641" x2="59.2584" y2="26.064" gradientUnits="userSpaceOnUse">
<stop stop-color="#DB9865"/>
<stop offset="1" stop-color="#A8622C" stop-opacity="0.48"/>
</linearGradient>
<linearGradient id="paint1_linear_316_284" x1="-2.69782e-07" y1="26.0641" x2="59.2584" y2="26.064" gradientUnits="userSpaceOnUse">
<stop stop-color="#DB9865"/>
<stop offset="1" stop-color="#A8622C" stop-opacity="0.48"/>
</linearGradient>
</defs>
</svg>
