<svg width="75" height="60" viewBox="0 0 75 60" fill="none" xmlns="http://www.w3.org/2000/svg">
<g id="bg-hab1" filter="url(#filter0_ddddd_316_283)">
<path d="M11.3929 14.4785H0V4.98443C0 -1.66143 11.3929 -1.66152 11.3929 4.98443V14.4785Z" fill="url(#paint0_linear_316_283)"/>
<path d="M32.2798 44.8594C33.2292 53.404 31.2522 55.9441 23.7351 59.1004H64.5595C71.3267 55.0115 73.4744 52.6585 74.0536 44.8594H32.2798Z" fill="url(#paint1_linear_316_283)"/>
<path d="M12.3423 2.13616V0.237351H55.0655C58.8631 0.237351 62.6607 4.03497 62.6607 7.83259V41.0618H29.4315V48.657C29.4315 55.3028 14.2411 55.3028 14.2411 48.657V2.13616H12.3423Z" fill="url(#paint2_linear_316_283)"/>
<path d="M11.3929 14.4785H0V4.98443C0 -1.66143 11.3929 -1.66152 11.3929 4.98443V14.4785Z" stroke="#A8622C" stroke-width="1.5" stroke-linejoin="round"/>
<path d="M32.2798 44.8594C33.2292 53.404 31.2522 55.9441 23.7351 59.1004H64.5595C71.3267 55.0115 73.4744 52.6585 74.0536 44.8594H32.2798Z" stroke="#A8622C" stroke-width="1.5" stroke-linejoin="round"/>
<path d="M12.3423 2.13616V0.237351H55.0655C58.8631 0.237351 62.6607 4.03497 62.6607 7.83259V41.0618H29.4315V48.657C29.4315 55.3028 14.2411 55.3028 14.2411 48.657V2.13616H12.3423Z" stroke="#A8622C" stroke-width="1.5" stroke-linejoin="round"/>
</g>
<defs>
<filter id="filter0_ddddd_316_283" x="-126.75" y="-75.75" width="327.554" height="312.6" filterUnits="userSpaceOnUse" color-interpolation-filters="sRGB">
<feFlood flood-opacity="0" result="BackgroundImageFix"/>
<feColorMatrix in="SourceAlpha" type="matrix" values="0 0 0 0 0 0 0 0 0 0 0 0 0 0 0 0 0 0 127 0" result="hardAlpha"/>
<feOffset dy="1.7518"/>
<feGaussianBlur stdDeviation="2.16398"/>
<feColorMatrix type="matrix" values="0 0 0 0 0.545098 0 0 0 0 0.0352941 0 0 0 0 0.188235 0 0 0 0.0310018 0"/>
<feBlend mode="normal" in2="BackgroundImageFix" result="effect1_dropShadow_316_283"/>
<feColorMatrix in="SourceAlpha" type="matrix" values="0 0 0 0 0 0 0 0 0 0 0 0 0 0 0 0 0 0 127 0" result="hardAlpha"/>
<feOffset dy="4.43042"/>
<feGaussianBlur stdDeviation="5.47287"/>
<feColorMatrix type="matrix" values="0 0 0 0 0.545098 0 0 0 0 0.0352941 0 0 0 0 0.188235 0 0 0 0.0443709 0"/>
<feBlend mode="normal" in2="effect1_dropShadow_316_283" result="effect2_dropShadow_316_283"/>
<feColorMatrix in="SourceAlpha" type="matrix" values="0 0 0 0 0 0 0 0 0 0 0 0 0 0 0 0 0 0 127 0" result="hardAlpha"/>
<feOffset dy="9.03764"/>
<feGaussianBlur stdDeviation="11.1641"/>
<feColorMatrix type="matrix" values="0 0 0 0 0.545098 0 0 0 0 0.0352941 0 0 0 0 0.188235 0 0 0 0.0556291 0"/>
<feBlend mode="normal" in2="effect2_dropShadow_316_283" result="effect3_dropShadow_316_283"/>
<feColorMatrix in="SourceAlpha" type="matrix" values="0 0 0 0 0 0 0 0 0 0 0 0 0 0 0 0 0 0 127 0" result="hardAlpha"/>
<feOffset dy="18.6158"/>
<feGaussianBlur stdDeviation="22.996"/>
<feColorMatrix type="matrix" values="0 0 0 0 0.545098 0 0 0 0 0.0352941 0 0 0 0 0.188235 0 0 0 0.0689982 0"/>
<feBlend mode="normal" in2="effect3_dropShadow_316_283" result="effect4_dropShadow_316_283"/>
<feColorMatrix in="SourceAlpha" type="matrix" values="0 0 0 0 0 0 0 0 0 0 0 0 0 0 0 0 0 0 127 0" result="hardAlpha"/>
<feOffset dy="51"/>
<feGaussianBlur stdDeviation="63"/>
<feColorMatrix type="matrix" values="0 0 0 0 0.545098 0 0 0 0 0.0352941 0 0 0 0 0.188235 0 0 0 0.1 0"/>
<feBlend mode="normal" in2="effect4_dropShadow_316_283" result="effect5_dropShadow_316_283"/>
<feBlend mode="normal" in="SourceGraphic" in2="effect5_dropShadow_316_283" result="shape"/>
</filter>
<linearGradient id="paint0_linear_316_283" x1="-3.39403e-07" y1="29.2268" x2="74.551" y2="29.2268" gradientUnits="userSpaceOnUse">
<stop stop-color="#DB9865"/>
<stop offset="1" stop-color="#A8622C" stop-opacity="0.48"/>
</linearGradient>
<linearGradient id="paint1_linear_316_283" x1="-3.39403e-07" y1="29.2268" x2="74.551" y2="29.2268" gradientUnits="userSpaceOnUse">
<stop stop-color="#DB9865"/>
<stop offset="1" stop-color="#A8622C" stop-opacity="0.48"/>
</linearGradient>
<linearGradient id="paint2_linear_316_283" x1="-3.39403e-07" y1="29.2268" x2="74.551" y2="29.2268" gradientUnits="userSpaceOnUse">
<stop stop-color="#DB9865"/>
<stop offset="1" stop-color="#A8622C" stop-opacity="0.48"/>
</linearGradient>
</defs>
</svg>
