<svg viewBox="0 0 66 53" fill="none" xmlns="http://www.w3.org/2000/svg">
<path d="M10.8462 13.5129H1V5.30774C1 -0.435875 10.8462 -0.435949 10.8462 5.30774V13.5129Z" fill="url(#paint0_linear_339_5)"/>
<path d="M28.8974 39.7692C29.7179 47.1538 28.0094 49.349 21.5128 52.0769H56.7949C62.6433 48.5431 64.4995 46.5096 65 39.7692H28.8974Z" fill="url(#paint1_linear_339_5)"/>
<path d="M11.6667 2.84615V1.20513H48.5897C51.8718 1.20513 55.1538 4.48718 55.1538 7.76923V36.4872H26.4359V43.0513C26.4359 48.7949 13.3077 48.7949 13.3077 43.0513V2.84615H11.6667Z" fill="url(#paint2_linear_339_5)"/>
<path d="M10.8462 13.5129H1V5.30774C1 -0.435875 10.8462 -0.435949 10.8462 5.30774V13.5129Z" stroke="#A8622C" stroke-width="1.5" stroke-linejoin="round"/>
<path d="M28.8974 39.7692C29.7179 47.1538 28.0094 49.349 21.5128 52.0769H56.7949C62.6433 48.5431 64.4995 46.5096 65 39.7692H28.8974Z" stroke="#A8622C" stroke-width="1.5" stroke-linejoin="round"/>
<path d="M11.6667 2.84615V1.20513H48.5897C51.8718 1.20513 55.1538 4.48718 55.1538 7.76923V36.4872H26.4359V43.0513C26.4359 48.7949 13.3077 48.7949 13.3077 43.0513V2.84615H11.6667Z" stroke="#A8622C" stroke-width="1.5" stroke-linejoin="round"/>
<defs>
<linearGradient id="paint0_linear_339_5" x1="1" y1="26.2589" x2="65.4299" y2="26.2589" gradientUnits="userSpaceOnUse">
<stop stop-color="#DB9865"/>
<stop offset="1" stop-color="#A8622C" stop-opacity="0.48"/>
</linearGradient>
<linearGradient id="paint1_linear_339_5" x1="1" y1="26.2589" x2="65.4299" y2="26.2589" gradientUnits="userSpaceOnUse">
<stop stop-color="#DB9865"/>
<stop offset="1" stop-color="#A8622C" stop-opacity="0.48"/>
</linearGradient>
<linearGradient id="paint2_linear_339_5" x1="1" y1="26.2589" x2="65.4299" y2="26.2589" gradientUnits="userSpaceOnUse">
<stop stop-color="#DB9865"/>
<stop offset="1" stop-color="#A8622C" stop-opacity="0.48"/>
</linearGradient>
</defs>
</svg>
