<svg width="68" height="53" viewBox="0 0 68 53" fill="none" xmlns="http://www.w3.org/2000/svg"><g stroke="#A8622C" stroke-width="1.5" stroke-linejoin="round"><path d="M1 44.4481V2.90828c0-1.03399.83223-1.87908 1.86613-1.89225C14.73.864808 20.9293 1.72283 31.4274 6.2156c.6924.29634 1.1378.97999 1.1378 1.73318V50.0021c0 1.3816-1.4328 2.2994-2.7031 1.7563-10.1596-4.344-16.6017-5.3082-26.95997-5.4032C1.85349 46.3456 1 45.4968 1 44.4481z" fill="url(#paint0_linear_316_280)"/><path d="M67 44.4948V2.95491c0-1.03399-.8322-1.87907-1.8661-1.89225-11.8639-.151221-18.0632.7068-28.5613 5.19957-.6924.29634-1.1378.97999-1.1378 1.73318V50.0488c0 1.3815 1.4328 2.2993 2.7031 1.7562 10.1596-4.344 16.6017-5.3082 26.96-5.4032C66.1465 46.3922 67 45.5435 67 44.4948z" fill="url(#paint1_linear_316_280)"/></g><defs><linearGradient id="paint0_linear_316_280" x1="1" y1="26.6923" x2="32.7772" y2="26.6923" gradientUnits="userSpaceOnUse"><stop stop-color="#DB9865"/><stop offset="1" stop-color="#A8622C" stop-opacity=".48"/></linearGradient><linearGradient id="paint1_linear_316_280" x1="67" y1="26.7389" x2="35.2228" y2="26.7389" gradientUnits="userSpaceOnUse"><stop stop-color="#DB9865"/><stop offset="1" stop-color="#A8622C" stop-opacity=".48"/></linearGradient></defs></svg>