<svg width="328" height="313" viewBox="0 0 328 313" fill="none" xmlns="http://www.w3.org/2000/svg"><g filter="url(#filter0_ddddd_316_283)"><path d="M138.385 90.4539H127V80.976c0-6.6346 11.385-6.6347 11.385 0v9.4779z" fill="url(#paint0_linear_316_283)"/><path d="M159.256 120.783c.949 8.53-1.026 11.066-8.538 14.217h40.795c6.762-4.082 8.908-6.431 9.487-14.217h-41.744z" fill="url(#paint1_linear_316_283)"/><path d="M139.333 78.1325v-1.8956h42.693c3.795 0 7.589 3.7912 7.589 7.5824v33.1727H156.41v7.582c0 6.635-15.179 6.635-15.179 0V78.1325h-1.898z" fill="url(#paint2_linear_316_283)"/><path d="M138.385 90.4539H127V80.976c0-6.6346 11.385-6.6347 11.385 0v9.4779zM159.256 120.783c.949 8.53-1.026 11.066-8.538 14.217h40.795c6.762-4.082 8.908-6.431 9.487-14.217h-41.744z" stroke="#A8622C" stroke-width="1.5" stroke-linejoin="round"/><path d="M139.333 78.1325v-1.8956h42.693c3.795 0 7.589 3.7912 7.589 7.5824v33.1727H156.41v7.582c0 6.635-15.179 6.635-15.179 0V78.1325h-1.898z" stroke="#A8622C" stroke-width="1.5" stroke-linejoin="round"/></g><defs><linearGradient id="paint0_linear_316_283" x1="127" y1="105.177" x2="201.497" y2="105.177" gradientUnits="userSpaceOnUse"><stop stop-color="#DB9865"/><stop offset="1" stop-color="#A8622C" stop-opacity=".48"/></linearGradient><linearGradient id="paint1_linear_316_283" x1="127" y1="105.177" x2="201.497" y2="105.177" gradientUnits="userSpaceOnUse"><stop stop-color="#DB9865"/><stop offset="1" stop-color="#A8622C" stop-opacity=".48"/></linearGradient><linearGradient id="paint2_linear_316_283" x1="127" y1="105.177" x2="201.497" y2="105.177" gradientUnits="userSpaceOnUse"><stop stop-color="#DB9865"/><stop offset="1" stop-color="#A8622C" stop-opacity=".48"/></linearGradient><filter id="filter0_ddddd_316_283" x=".25" y=".25" width="327.5" height="312.5" filterUnits="userSpaceOnUse" color-interpolation-filters="sRGB"><feFlood flood-opacity="0" result="BackgroundImageFix"/><feColorMatrix in="SourceAlpha" values="0 0 0 0 0 0 0 0 0 0 0 0 0 0 0 0 0 0 127 0" result="hardAlpha"/><feOffset dy="1.7518"/><feGaussianBlur stdDeviation="2.16398"/><feColorMatrix values="0 0 0 0 0.545098 0 0 0 0 0.0352941 0 0 0 0 0.188235 0 0 0 0.0310018 0"/><feBlend in2="BackgroundImageFix" result="effect1_dropShadow_316_283"/><feColorMatrix in="SourceAlpha" values="0 0 0 0 0 0 0 0 0 0 0 0 0 0 0 0 0 0 127 0" result="hardAlpha"/><feOffset dy="4.43042"/><feGaussianBlur stdDeviation="5.47287"/><feColorMatrix values="0 0 0 0 0.545098 0 0 0 0 0.0352941 0 0 0 0 0.188235 0 0 0 0.0443709 0"/><feBlend in2="effect1_dropShadow_316_283" result="effect2_dropShadow_316_283"/><feColorMatrix in="SourceAlpha" values="0 0 0 0 0 0 0 0 0 0 0 0 0 0 0 0 0 0 127 0" result="hardAlpha"/><feOffset dy="9.03764"/><feGaussianBlur stdDeviation="11.1641"/><feColorMatrix values="0 0 0 0 0.545098 0 0 0 0 0.0352941 0 0 0 0 0.188235 0 0 0 0.0556291 0"/><feBlend in2="effect2_dropShadow_316_283" result="effect3_dropShadow_316_283"/><feColorMatrix in="SourceAlpha" values="0 0 0 0 0 0 0 0 0 0 0 0 0 0 0 0 0 0 127 0" result="hardAlpha"/><feOffset dy="18.6158"/><feGaussianBlur stdDeviation="22.996"/><feColorMatrix values="0 0 0 0 0.545098 0 0 0 0 0.0352941 0 0 0 0 0.188235 0 0 0 0.0689982 0"/><feBlend in2="effect3_dropShadow_316_283" result="effect4_dropShadow_316_283"/><feColorMatrix in="SourceAlpha" values="0 0 0 0 0 0 0 0 0 0 0 0 0 0 0 0 0 0 127 0" result="hardAlpha"/><feOffset dy="51"/><feGaussianBlur stdDeviation="63"/><feColorMatrix values="0 0 0 0 0.545098 0 0 0 0 0.0352941 0 0 0 0 0.188235 0 0 0 0.1 0"/><feBlend in2="effect4_dropShadow_316_283" result="effect5_dropShadow_316_283"/><feBlend in="SourceGraphic" in2="effect5_dropShadow_316_283" result="shape"/></filter></defs></svg>