<svg  viewBox="0 0 66 53" fill="none" xmlns="http://www.w3.org/2000/svg">
<path d="M1 43.6689V2.90698C1 1.87318 1.83172 1.02812 2.86543 1.01504C14.3235 0.869996 20.3315 1.7161 30.4791 6.11458C31.167 6.41276 31.6087 7.09418 31.6087 7.84395V49.0928C31.6087 50.4785 30.1679 51.3963 28.8959 50.8465C19.1157 46.619 12.8815 45.6725 2.90172 45.5764C1.85308 45.5663 1 44.7176 1 43.6689Z" stroke="#A8622C" stroke-width="1.5" stroke-linejoin="round"/>
<path d="M65 43.7148V2.95287C65 1.91908 64.1683 1.07402 63.1346 1.06093C51.6765 0.915895 45.6685 1.76199 35.5209 6.16048C34.833 6.45866 34.3913 7.14008 34.3913 7.88985V49.1387C34.3913 50.5244 35.8321 51.4422 37.1041 50.8924C46.8843 46.6649 53.1185 45.7184 63.0983 45.6223C64.1469 45.6122 65 44.7635 65 43.7148Z" stroke="#A8622C" stroke-width="1.5" stroke-linejoin="round"/>
</svg>
