<svg width="68" height="61" viewBox="0 0 68 61" fill="none" xmlns="http://www.w3.org/2000/svg">
<g id="bg-hab3">
<path d="M31.8065 15.3699C37.6224 20.8191 39.922 24.0947 40.5806 30.7248C60.1973 25.1182 66.4939 18.6085 68 0.0150993C52.8808 -0.231479 44.8479 2.44303 31.8065 15.3699Z" fill="url(#paint0_linear_316_284)"/>
<path d="M38.3871 59.2409C38.3871 61.4344 28.5161 61.4344 28.5161 59.2409V39.499C11.291 36.277 3.77445 31.3891 0 8.78929C22.3201 8.61501 37.2903 18.6452 38.3871 32.9183V59.2409Z" fill="url(#paint1_linear_316_284)"/>
<path d="M31.8065 15.3699C37.6224 20.8191 39.922 24.0947 40.5806 30.7248C60.1973 25.1182 66.4939 18.6085 68 0.0150993C52.8808 -0.231479 44.8479 2.44303 31.8065 15.3699Z" stroke="#A8622C" stroke-width="1.5" stroke-linejoin="round"/>
<path d="M38.3871 59.2409C38.3871 61.4344 28.5161 61.4344 28.5161 59.2409V39.499C11.291 36.277 3.77445 31.3891 0 8.78929C22.3201 8.61501 37.2903 18.6452 38.3871 32.9183V59.2409Z" stroke="#A8622C" stroke-width="1.5" stroke-linejoin="round"/>
</g>
<defs>
<linearGradient id="paint0_linear_316_284" x1="-3.11658e-07" y1="30.1098" x2="68.4567" y2="30.1098" gradientUnits="userSpaceOnUse">
<stop stop-color="#DB9865"/>
<stop offset="1" stop-color="#A8622C" stop-opacity="0.48"/>
</linearGradient>
<linearGradient id="paint1_linear_316_284" x1="-3.11658e-07" y1="30.1098" x2="68.4567" y2="30.1098" gradientUnits="userSpaceOnUse">
<stop stop-color="#DB9865"/>
<stop offset="1" stop-color="#A8622C" stop-opacity="0.48"/>
</linearGradient>
</defs>
</svg>
