<svg width="70" height="63" viewBox="0 0 70 63" fill="none" xmlns="http://www.w3.org/2000/svg"><path d="M32.8065 16.3987c5.8159 5.4594 8.1155 8.7412 8.7741 15.3836C61.1973 26.1653 67.4939 19.6433 69 1.01513 53.8808.768087 45.8479 3.4476 32.8065 16.3987z" fill="url(#paint0_linear_316_284)"/><path d="M39.3871 60.3518c0 2.1976-9.871 2.1976-9.871 0V40.5729C12.291 37.345 4.77445 32.4479 1 9.80575 23.3201 9.63115 38.2903 19.6801 39.3871 33.98v26.3718z" fill="url(#paint1_linear_316_284)"/><path d="M32.8065 16.3987c5.8159 5.4594 8.1155 8.7412 8.7741 15.3836C61.1973 26.1653 67.4939 19.6433 69 1.01513 53.8808.768087 45.8479 3.4476 32.8065 16.3987z" stroke="#A8622C" stroke-width="1.5" stroke-linejoin="round"/><path d="M39.3871 60.3518c0 2.1976-9.871 2.1976-9.871 0V40.5729C12.291 37.345 4.77445 32.4479 1 9.80575 23.3201 9.63115 38.2903 19.6801 39.3871 33.98v26.3718z" stroke="#A8622C" stroke-width="1.5" stroke-linejoin="round"/><defs><linearGradient id="paint0_linear_316_284" x1="1" y1="31.1662" x2="69.4567" y2="31.1662" gradientUnits="userSpaceOnUse"><stop stop-color="#DB9865"/><stop offset="1" stop-color="#A8622C" stop-opacity=".48"/></linearGradient><linearGradient id="paint1_linear_316_284" x1="1" y1="31.1662" x2="69.4567" y2="31.1662" gradientUnits="userSpaceOnUse"><stop stop-color="#DB9865"/><stop offset="1" stop-color="#A8622C" stop-opacity=".48"/></linearGradient></defs></svg>