<svg width="74" height="59" viewBox="0 0 74 59" fill="none" xmlns="http://www.w3.org/2000/svg">
<g id="bg-hab1-active" filter="url(#filter0_ddddd_316_283)">
<path d="M11.3846 14.4539H0V4.97596C0 -1.65861 11.3846 -1.65869 11.3846 4.97596V14.4539Z" fill="url(#paint0_linear_316_283)"/>
<path d="M32.2564 44.7831C33.2051 53.3133 31.2296 55.849 23.7179 59H64.5128C71.2751 54.918 73.4213 52.569 74 44.7831H32.2564Z" fill="url(#paint1_linear_316_283)"/>
<path d="M12.3333 2.13253V0.236948H55.0256C58.8205 0.236948 62.6154 4.02811 62.6154 7.81928V40.992H29.4103V48.5743C29.4103 55.2088 14.2308 55.2088 14.2308 48.5743V2.13253H12.3333Z" fill="url(#paint2_linear_316_283)"/>
<path d="M11.3846 14.4539H0V4.97596C0 -1.65861 11.3846 -1.65869 11.3846 4.97596V14.4539Z" stroke="#A8622C" stroke-width="1.5" stroke-linejoin="round"/>
<path d="M32.2564 44.7831C33.2051 53.3133 31.2296 55.849 23.7179 59H64.5128C71.2751 54.918 73.4213 52.569 74 44.7831H32.2564Z" stroke="#A8622C" stroke-width="1.5" stroke-linejoin="round"/>
<path d="M12.3333 2.13253V0.236948H55.0256C58.8205 0.236948 62.6154 4.02811 62.6154 7.81928V40.992H29.4103V48.5743C29.4103 55.2088 14.2308 55.2088 14.2308 48.5743V2.13253H12.3333Z" stroke="#A8622C" stroke-width="1.5" stroke-linejoin="round"/>
</g>
<defs>
<filter id="filter0_ddddd_316_283" x="-126.75" y="-75.75" width="327.5" height="312.5" filterUnits="userSpaceOnUse" color-interpolation-filters="sRGB">
<feFlood flood-opacity="0" result="BackgroundImageFix"/>
<feColorMatrix in="SourceAlpha" type="matrix" values="0 0 0 0 0 0 0 0 0 0 0 0 0 0 0 0 0 0 127 0" result="hardAlpha"/>
<feOffset dy="1.7518"/>
<feGaussianBlur stdDeviation="2.16398"/>
<feColorMatrix type="matrix" values="0 0 0 0 0.545098 0 0 0 0 0.0352941 0 0 0 0 0.188235 0 0 0 0.0310018 0"/>
<feBlend mode="normal" in2="BackgroundImageFix" result="effect1_dropShadow_316_283"/>
<feColorMatrix in="SourceAlpha" type="matrix" values="0 0 0 0 0 0 0 0 0 0 0 0 0 0 0 0 0 0 127 0" result="hardAlpha"/>
<feOffset dy="4.43042"/>
<feGaussianBlur stdDeviation="5.47287"/>
<feColorMatrix type="matrix" values="0 0 0 0 0.545098 0 0 0 0 0.0352941 0 0 0 0 0.188235 0 0 0 0.0443709 0"/>
<feBlend mode="normal" in2="effect1_dropShadow_316_283" result="effect2_dropShadow_316_283"/>
<feColorMatrix in="SourceAlpha" type="matrix" values="0 0 0 0 0 0 0 0 0 0 0 0 0 0 0 0 0 0 127 0" result="hardAlpha"/>
<feOffset dy="9.03764"/>
<feGaussianBlur stdDeviation="11.1641"/>
<feColorMatrix type="matrix" values="0 0 0 0 0.545098 0 0 0 0 0.0352941 0 0 0 0 0.188235 0 0 0 0.0556291 0"/>
<feBlend mode="normal" in2="effect2_dropShadow_316_283" result="effect3_dropShadow_316_283"/>
<feColorMatrix in="SourceAlpha" type="matrix" values="0 0 0 0 0 0 0 0 0 0 0 0 0 0 0 0 0 0 127 0" result="hardAlpha"/>
<feOffset dy="18.6158"/>
<feGaussianBlur stdDeviation="22.996"/>
<feColorMatrix type="matrix" values="0 0 0 0 0.545098 0 0 0 0 0.0352941 0 0 0 0 0.188235 0 0 0 0.0689982 0"/>
<feBlend mode="normal" in2="effect3_dropShadow_316_283" result="effect4_dropShadow_316_283"/>
<feColorMatrix in="SourceAlpha" type="matrix" values="0 0 0 0 0 0 0 0 0 0 0 0 0 0 0 0 0 0 127 0" result="hardAlpha"/>
<feOffset dy="51"/>
<feGaussianBlur stdDeviation="63"/>
<feColorMatrix type="matrix" values="0 0 0 0 0.545098 0 0 0 0 0.0352941 0 0 0 0 0.188235 0 0 0 0.1 0"/>
<feBlend mode="normal" in2="effect4_dropShadow_316_283" result="effect5_dropShadow_316_283"/>
<feBlend mode="normal" in="SourceGraphic" in2="effect5_dropShadow_316_283" result="shape"/>
</filter>
<linearGradient id="paint0_linear_316_283" x1="-3.39158e-07" y1="29.1771" x2="74.497" y2="29.1771" gradientUnits="userSpaceOnUse">
<stop stop-color="#DB9865"/>
<stop offset="1" stop-color="#A8622C" stop-opacity="0.48"/>
</linearGradient>
<linearGradient id="paint1_linear_316_283" x1="-3.39158e-07" y1="29.1771" x2="74.497" y2="29.1771" gradientUnits="userSpaceOnUse">
<stop stop-color="#DB9865"/>
<stop offset="1" stop-color="#A8622C" stop-opacity="0.48"/>
</linearGradient>
<linearGradient id="paint2_linear_316_283" x1="-3.39158e-07" y1="29.1771" x2="74.497" y2="29.1771" gradientUnits="userSpaceOnUse">
<stop stop-color="#DB9865"/>
<stop offset="1" stop-color="#A8622C" stop-opacity="0.48"/>
</linearGradient>
</defs>
</svg>
