<svg width="806" height="797" viewBox="0 0 806 797" fill="none" xmlns="http://www.w3.org/2000/svg">
<g id="Group 157">
<g id="GPS" filter="url(#filter0_f_325_5)">
<g id="Mask group">
<mask id="mask0_325_5" style="mask-type:alpha" maskUnits="userSpaceOnUse" x="394" y="2" width="57" height="57">
<g id="noun-gps-1483344 1">
<g id="Group">
<path id="Vector" d="M422.035 5.58887C415.841 5.58887 410.821 10.6039 410.821 16.8061C410.821 18.2304 411.231 20.0464 411.713 21.299L422.035 43.2681L432.357 21.299C432.841 20.0461 433.249 18.2307 433.249 16.8061C433.249 10.6043 428.229 5.58887 422.035 5.58887H422.035ZM422.035 12.766C424.287 12.766 426.113 14.5417 426.113 16.7323C426.113 18.9229 424.287 20.6985 422.035 20.6985C419.783 20.6985 417.957 18.9229 417.957 16.7323C417.957 14.5417 419.783 12.766 422.035 12.766Z" fill="black"/>
<g id="t">
<path id="Vector_2" d="M401.11 53.4954C401.032 53.5354 400.951 53.5655 400.867 53.5855C400.784 53.6061 400.696 53.6168 400.604 53.6168C400.332 53.6168 400.117 53.5411 399.957 53.389C399.798 53.2363 399.718 53.0298 399.718 52.7695C399.718 52.5085 399.798 52.302 399.957 52.1499C400.117 51.9973 400.332 51.9209 400.604 51.9209C400.696 51.9209 400.784 51.9315 400.867 51.9522C400.951 51.9722 401.032 52.0022 401.11 52.0423V52.3802C401.031 52.3277 400.954 52.2889 400.878 52.2638C400.802 52.2388 400.722 52.2263 400.638 52.2263C400.488 52.2263 400.37 52.2748 400.284 52.3715C400.198 52.4675 400.155 52.6002 400.155 52.7695C400.155 52.9381 400.198 53.0708 400.284 53.1675C400.37 53.2635 400.488 53.3114 400.638 53.3114C400.722 53.3114 400.802 53.2995 400.878 53.2751C400.954 53.2501 401.031 53.211 401.11 53.1575V53.4954Z" fill="black"/>
</g>
<g id="c">
<path id="Vector_3" d="M402.353 52.6918C402.318 52.6762 402.283 52.6643 402.249 52.6568C402.216 52.6486 402.182 52.6442 402.148 52.6442C402.047 52.6442 401.969 52.6768 401.915 52.7419C401.861 52.8063 401.834 52.8983 401.834 53.0185V53.5842H401.442V52.3577H401.834V52.5592C401.884 52.4791 401.941 52.4209 402.006 52.384C402.072 52.3464 402.151 52.3276 402.242 52.3276C402.255 52.3276 402.269 52.3286 402.284 52.3301C402.3 52.3311 402.323 52.3333 402.352 52.3364L402.353 52.6918Z" fill="black"/>
</g>
<g id="b">
<path id="Vector_4" d="M403.772 52.9672V53.0798H402.855C402.865 53.1718 402.898 53.2407 402.955 53.2863C403.012 53.3323 403.092 53.3552 403.194 53.3552C403.277 53.3552 403.361 53.3433 403.447 53.3189C403.534 53.2938 403.623 53.2569 403.714 53.2075V53.5091C403.621 53.5442 403.528 53.5704 403.436 53.588C403.343 53.6061 403.25 53.6155 403.158 53.6155C402.936 53.6155 402.763 53.5592 402.64 53.4465C402.517 53.3339 402.456 53.1759 402.456 52.9722C402.456 52.7719 402.516 52.6149 402.637 52.5003C402.758 52.3852 402.924 52.3276 403.135 52.3276C403.328 52.3276 403.482 52.3861 403.598 52.5029C403.714 52.6189 403.772 52.7738 403.772 52.9672L403.772 52.9672ZM403.369 52.837C403.369 52.7629 403.347 52.7031 403.304 52.6581C403.261 52.6124 403.204 52.5892 403.134 52.5892C403.058 52.5892 402.996 52.6105 402.949 52.653C402.901 52.6956 402.872 52.7569 402.86 52.837H403.369Z" fill="black"/>
</g>
<g id="e">
<path id="Vector_5" d="M404.619 53.0323C404.537 53.0323 404.475 53.046 404.434 53.0736C404.393 53.1011 404.372 53.1421 404.372 53.1962C404.372 53.2463 404.389 53.2857 404.422 53.3139C404.455 53.3414 404.501 53.3552 404.56 53.3552C404.634 53.3552 404.696 53.3289 404.746 53.2763C404.797 53.2231 404.823 53.1568 404.823 53.0773V53.0323L404.619 53.0323ZM405.217 52.8846V53.5842H404.823V53.4027C404.77 53.4772 404.711 53.5313 404.645 53.5654C404.579 53.5986 404.499 53.6155 404.405 53.6155C404.278 53.6155 404.175 53.5789 404.096 53.5054C404.016 53.4312 403.977 53.3348 403.977 53.2162C403.977 53.0729 404.026 52.9678 404.124 52.9009C404.224 52.8333 404.379 52.7995 404.591 52.7995H404.823V52.7682C404.823 52.7066 404.798 52.6615 404.749 52.633C404.699 52.6039 404.623 52.5892 404.52 52.5892C404.435 52.5892 404.357 52.5977 404.285 52.6142C404.213 52.6311 404.146 52.6562 404.084 52.6893V52.3902C404.168 52.3702 404.251 52.3549 404.336 52.3439C404.421 52.3333 404.506 52.3276 404.591 52.3276C404.812 52.3276 404.972 52.3714 405.069 52.459C405.168 52.546 405.217 52.6878 405.217 52.8846L405.217 52.8846Z" fill="black"/>
</g>
<g id="a">
<path id="Vector_6" d="M406.011 52.0107V52.3587H406.415V52.639H406.011V53.1597C406.011 53.2166 406.022 53.2548 406.045 53.2748C406.067 53.2949 406.112 53.3049 406.179 53.3049H406.38V53.5852H406.045C405.89 53.5852 405.779 53.5533 405.714 53.4889C405.65 53.4238 405.618 53.3143 405.618 53.1597V52.639H405.424V52.3587H405.618V52.0107H406.011Z" fill="black"/>
</g>
<g id="b_2">
<path id="Vector_7" d="M407.879 52.9672V53.0798H406.962C406.972 53.1718 407.005 53.2407 407.062 53.2863C407.119 53.3323 407.198 53.3552 407.301 53.3552C407.384 53.3552 407.468 53.3433 407.554 53.3189C407.641 53.2938 407.729 53.2569 407.82 53.2075V53.5091C407.728 53.5442 407.635 53.5704 407.543 53.588C407.45 53.6061 407.357 53.6155 407.265 53.6155C407.043 53.6155 406.87 53.5592 406.747 53.4465C406.624 53.3339 406.563 53.1759 406.563 52.9722C406.563 52.7719 406.623 52.6149 406.744 52.5003C406.865 52.3852 407.031 52.3276 407.242 52.3276C407.435 52.3276 407.589 52.3861 407.705 52.5029C407.821 52.6189 407.879 52.7738 407.879 52.9672L407.879 52.9672ZM407.476 52.837C407.476 52.7629 407.454 52.7031 407.411 52.6581C407.368 52.6124 407.311 52.5892 407.241 52.5892C407.165 52.5892 407.103 52.6105 407.056 52.653C407.008 52.6956 406.978 52.7569 406.967 52.837H407.476Z" fill="black"/>
</g>
<g id="j">
<path id="Vector_8" d="M409.01 52.5374V51.8804H409.404V53.585H409.01V53.4073C408.956 53.4799 408.897 53.533 408.832 53.5662C408.767 53.5994 408.691 53.6163 408.605 53.6163C408.454 53.6163 408.33 53.5562 408.234 53.436C408.137 53.3159 408.089 53.1616 408.089 52.973C408.089 52.7837 408.137 52.6288 408.234 52.5086C408.33 52.3885 408.454 52.3284 408.605 52.3284C408.691 52.3284 408.766 52.3456 408.831 52.3797C408.896 52.4141 408.956 52.4667 409.01 52.5374V52.5374ZM408.752 53.3322C408.835 53.3322 408.899 53.3018 408.943 53.2408C408.987 53.1792 409.01 53.09 409.01 52.973C409.01 52.8563 408.987 52.7674 408.943 52.7064C408.899 52.6448 408.835 52.6138 408.752 52.6138C408.668 52.6138 408.605 52.6448 408.56 52.7064C408.516 52.7674 408.494 52.8563 408.494 52.973C408.494 53.09 408.516 53.1792 408.56 53.2408C408.605 53.3018 408.668 53.3322 408.752 53.3322Z" fill="black"/>
</g>
<g id="i">
<path id="Vector_9" d="M411.215 53.3322C411.299 53.3322 411.363 53.3018 411.407 53.2408C411.452 53.1792 411.474 53.09 411.474 52.973C411.474 52.8563 411.452 52.7674 411.407 52.7064C411.363 52.6448 411.299 52.6138 411.215 52.6138C411.13 52.6138 411.066 52.6448 411.021 52.7064C410.976 52.7683 410.954 52.8572 410.954 52.973C410.954 53.0891 410.976 53.1779 411.021 53.2396C411.066 53.3015 411.13 53.3322 411.215 53.3322V53.3322ZM410.954 52.5374C411.008 52.4667 411.068 52.4141 411.133 52.3797C411.199 52.3456 411.275 52.3284 411.36 52.3284C411.512 52.3284 411.636 52.3885 411.733 52.5086C411.83 52.6288 411.878 52.7837 411.878 52.973C411.878 53.1616 411.83 53.3159 411.733 53.436C411.636 53.5562 411.512 53.6163 411.36 53.6163C411.275 53.6163 411.199 53.5994 411.133 53.5662C411.068 53.5321 411.008 53.4792 410.954 53.4073V53.585H410.563V51.8804H410.954V52.5374Z" fill="black"/>
</g>
<g id="h">
<path id="Vector_10" d="M412.006 52.3584H412.398L412.729 53.1907L413.009 52.3584H413.401L412.885 53.7014C412.833 53.8372 412.773 53.9323 412.703 53.9867C412.634 54.0418 412.543 54.0693 412.431 54.0693H412.203V53.8115H412.325C412.392 53.8115 412.441 53.8005 412.471 53.779C412.501 53.758 412.525 53.7204 412.542 53.6663L412.553 53.6325L412.006 52.3584Z" fill="black"/>
</g>
<g id="e_2">
<path id="Vector_11" d="M414.96 53.0323C414.878 53.0323 414.816 53.046 414.775 53.0736C414.734 53.1011 414.713 53.1421 414.713 53.1962C414.713 53.2463 414.73 53.2857 414.764 53.3139C414.797 53.3414 414.843 53.3552 414.901 53.3552C414.975 53.3552 415.038 53.3289 415.088 53.2763C415.138 53.2231 415.164 53.1568 415.164 53.0773V53.0323L414.96 53.0323ZM415.558 52.8846V53.5842H415.164V53.4027C415.111 53.4772 415.052 53.5313 414.986 53.5654C414.92 53.5986 414.84 53.6155 414.746 53.6155C414.619 53.6155 414.516 53.5789 414.437 53.5054C414.357 53.4312 414.318 53.3348 414.318 53.2162C414.318 53.0729 414.367 52.9678 414.466 52.9009C414.565 52.8333 414.72 52.7995 414.932 52.7995H415.164V52.7682C415.164 52.7066 415.139 52.6615 415.09 52.633C415.041 52.6039 414.964 52.5892 414.861 52.5892C414.777 52.5892 414.698 52.5977 414.626 52.6142C414.554 52.6311 414.487 52.6562 414.426 52.6893V52.3902C414.509 52.3702 414.593 52.3549 414.677 52.3439C414.762 52.3333 414.847 52.3276 414.932 52.3276C415.153 52.3276 415.313 52.3714 415.411 52.459C415.509 52.546 415.558 52.6878 415.558 52.8846L415.558 52.8846Z" fill="black"/>
</g>
<g id="c_2">
<path id="Vector_12" d="M416.835 52.6918C416.8 52.6762 416.765 52.6643 416.731 52.6568C416.697 52.6486 416.664 52.6442 416.63 52.6442C416.529 52.6442 416.451 52.6768 416.397 52.7419C416.342 52.8063 416.315 52.8983 416.315 53.0185V53.5842H415.924V52.3577H416.315V52.5592C416.366 52.4791 416.423 52.4209 416.488 52.384C416.554 52.3464 416.632 52.3276 416.723 52.3276C416.737 52.3276 416.751 52.3286 416.766 52.3301C416.782 52.3311 416.804 52.3333 416.834 52.3364L416.835 52.6918Z" fill="black"/>
</g>
<g id="a_2">
<path id="Vector_13" d="M417.458 52.0107V52.3587H417.863V52.639H417.458V53.1597C417.458 53.2166 417.47 53.2548 417.492 53.2748C417.515 53.2949 417.559 53.3049 417.626 53.3049H417.828V53.5852H417.492C417.337 53.5852 417.227 53.5533 417.162 53.4889C417.097 53.4238 417.065 53.3143 417.065 53.1597V52.639H416.871V52.3587H417.065V52.0107H417.458Z" fill="black"/>
</g>
<g id="g">
<path id="Vector_14" d="M419.84 52.3965V52.6944C419.757 52.6593 419.676 52.633 419.598 52.6155C419.519 52.598 419.445 52.5892 419.376 52.5892C419.302 52.5892 419.246 52.5986 419.21 52.6168C419.174 52.6352 419.156 52.664 419.156 52.7031C419.156 52.7341 419.17 52.7579 419.197 52.7745C419.225 52.7913 419.274 52.8039 419.345 52.812L419.414 52.822C419.614 52.848 419.75 52.8902 419.819 52.9484C419.888 53.0069 419.923 53.0983 419.923 53.2225C419.923 53.3536 419.874 53.4522 419.778 53.5179C419.682 53.583 419.538 53.6155 419.347 53.6155C419.265 53.6155 419.181 53.6093 419.094 53.5967C419.008 53.5842 418.92 53.5651 418.829 53.5392V53.2413C418.907 53.2798 418.986 53.3086 419.068 53.3276C419.151 53.3461 419.235 53.3552 419.32 53.3552C419.396 53.3552 419.454 53.3449 419.492 53.3239C419.531 53.3023 419.55 53.2707 419.55 53.2288C419.55 53.1937 419.537 53.1681 419.51 53.1512C419.483 53.1336 419.43 53.1205 419.351 53.1111L419.282 53.1024C419.108 53.0808 418.986 53.0404 418.915 52.981C418.845 52.9218 418.81 52.832 418.81 52.7119C418.81 52.5817 418.854 52.4853 418.943 52.4228C419.032 52.3596 419.169 52.3276 419.354 52.3276C419.425 52.3276 419.501 52.3336 419.58 52.3452C419.66 52.3561 419.747 52.3733 419.84 52.3965L419.84 52.3965Z" fill="black"/>
</g>
<g id="f">
<path id="Vector_15" d="M421.451 52.8378V53.585H421.057V53.0155C421.057 52.9079 421.054 52.8341 421.049 52.794C421.044 52.754 421.036 52.7245 421.024 52.7051C421.009 52.6801 420.988 52.6607 420.962 52.6463C420.936 52.6322 420.906 52.625 420.873 52.625C420.791 52.625 420.727 52.657 420.68 52.7202C420.633 52.7827 420.61 52.87 420.61 52.9817V53.585H420.218V51.8804H420.61V52.5374C420.669 52.4667 420.732 52.4142 420.798 52.3797C420.864 52.3456 420.938 52.3284 421.018 52.3284C421.16 52.3284 421.267 52.3722 421.341 52.4598C421.414 52.5468 421.451 52.6726 421.451 52.8378V52.8378Z" fill="black"/>
</g>
<g id="d">
<path id="Vector_16" d="M422.398 52.608C422.311 52.608 422.245 52.6393 422.199 52.7019C422.153 52.7644 422.13 52.8545 422.13 52.9722C422.13 53.0898 422.153 53.18 422.199 53.2425C422.245 53.3045 422.311 53.3351 422.398 53.3351C422.483 53.3351 422.548 53.3045 422.593 53.2425C422.639 53.18 422.662 53.0898 422.662 52.9722C422.662 52.8545 422.639 52.7644 422.593 52.7019C422.548 52.6393 422.483 52.608 422.398 52.608V52.608ZM422.398 52.3276C422.609 52.3276 422.774 52.3849 422.892 52.4991C423.011 52.6127 423.07 52.7704 423.07 52.9722C423.07 53.1734 423.011 53.3311 422.892 53.4453C422.774 53.5589 422.609 53.6155 422.398 53.6155C422.186 53.6155 422.02 53.5589 421.901 53.4453C421.781 53.3311 421.722 53.1734 421.722 52.9722C421.722 52.7704 421.781 52.6127 421.901 52.4991C422.02 52.3849 422.186 52.3276 422.398 52.3276V52.3276Z" fill="black"/>
</g>
<g id="s">
<path id="Vector_17" d="M423.747 53.4065V54.0511H423.356V52.3577H423.747V52.5367C423.802 52.4659 423.861 52.4134 423.926 52.379C423.992 52.3448 424.068 52.3276 424.153 52.3276C424.305 52.3276 424.429 52.3877 424.526 52.5079C424.623 52.628 424.671 52.7829 424.671 52.9722C424.671 53.1609 424.623 53.3151 424.526 53.4353C424.429 53.5554 424.305 53.6155 424.153 53.6155C424.068 53.6155 423.992 53.5986 423.926 53.5654C423.861 53.5313 423.802 53.4785 423.747 53.4065V53.4065ZM424.008 52.613C423.923 52.613 423.859 52.644 423.814 52.7056C423.769 52.7676 423.747 52.8565 423.747 52.9722C423.747 53.0883 423.769 53.1772 423.814 53.2388C423.859 53.3008 423.923 53.3314 424.008 53.3314C424.092 53.3314 424.156 53.3011 424.2 53.2401C424.245 53.1784 424.267 53.0892 424.267 52.9722C424.267 52.8555 424.245 52.7666 424.2 52.7056C424.156 52.644 424.092 52.613 424.008 52.613V52.613Z" fill="black"/>
</g>
<g id="r">
<path id="Vector_18" d="M400.602 54.123V54.3809H400.386C400.33 54.3809 400.292 54.3909 400.269 54.4109C400.247 54.4309 400.237 54.466 400.237 54.516V54.6012H400.572V54.8815H400.237V55.8276H399.845V54.8815H399.65V54.6012H399.845V54.516C399.845 54.3827 399.882 54.2839 399.956 54.2194C400.03 54.1553 400.146 54.1231 400.303 54.1231L400.602 54.123Z" fill="black"/>
</g>
<g id="c_3">
<path id="Vector_19" d="M401.683 54.935C401.648 54.9193 401.613 54.9074 401.579 54.8999C401.546 54.8918 401.512 54.8874 401.478 54.8874C401.377 54.8874 401.299 54.9199 401.245 54.985C401.191 55.0495 401.164 55.1415 401.164 55.2616V55.8273H400.772V54.6008H401.164V54.8023C401.214 54.7222 401.271 54.664 401.336 54.6271C401.402 54.5896 401.481 54.5708 401.572 54.5708C401.585 54.5708 401.599 54.5717 401.614 54.5733C401.63 54.5742 401.652 54.5764 401.682 54.5796L401.683 54.935Z" fill="black"/>
</g>
<g id="d_2">
<path id="Vector_20" d="M402.462 54.8512C402.375 54.8512 402.308 54.8824 402.263 54.945C402.217 55.0076 402.194 55.0977 402.194 55.2154C402.194 55.333 402.217 55.4231 402.263 55.4857C402.308 55.5477 402.375 55.5783 402.462 55.5783C402.547 55.5783 402.612 55.5476 402.657 55.4857C402.702 55.4231 402.726 55.333 402.726 55.2154C402.726 55.0977 402.702 55.0076 402.657 54.945C402.612 54.8824 402.547 54.8512 402.462 54.8512V54.8512ZM402.462 54.5708C402.672 54.5708 402.837 54.6281 402.956 54.7423C403.074 54.8558 403.134 55.0135 403.134 55.2154C403.134 55.4165 403.074 55.5742 402.956 55.6884C402.837 55.802 402.672 55.8587 402.462 55.8587C402.249 55.8587 402.084 55.802 401.965 55.6884C401.845 55.5742 401.786 55.4165 401.786 55.2154C401.786 55.0135 401.845 54.8558 401.965 54.7423C402.084 54.6281 402.249 54.5708 402.462 54.5708V54.5708Z" fill="black"/>
</g>
<g id="q">
<path id="Vector_21" d="M404.555 54.8048C404.604 54.7291 404.663 54.6709 404.732 54.6309C404.8 54.5908 404.875 54.5708 404.957 54.5708C405.098 54.5708 405.205 54.6146 405.279 54.7022C405.353 54.7892 405.39 54.915 405.39 55.0802V55.8274H404.996V55.1878V55.159C404.996 55.1484 404.997 55.1334 404.997 55.114C404.997 55.0273 404.984 54.9647 404.958 54.9262C404.933 54.8871 404.892 54.8674 404.836 54.8674C404.761 54.8674 404.704 54.8984 404.663 54.96C404.622 55.021 404.601 55.1096 404.6 55.2254V55.8274H404.206V55.1878C404.206 55.052 404.194 54.9647 404.171 54.9262C404.148 54.8871 404.106 54.8674 404.046 54.8674C403.971 54.8674 403.913 54.8984 403.872 54.96C403.831 55.021 403.811 55.109 403.811 55.2241V55.8274H403.416V54.6009H403.811V54.7798C403.859 54.7107 403.914 54.6584 403.976 54.6234C404.038 54.5883 404.107 54.5708 404.182 54.5708C404.267 54.5708 404.342 54.5915 404.408 54.6322C404.473 54.6731 404.522 54.7307 404.555 54.8049L404.555 54.8048Z" fill="black"/>
</g>
<g id="a_3">
<path id="Vector_22" d="M406.965 54.2529V54.6009H407.369V54.8812H406.965V55.4019C406.965 55.4588 406.976 55.497 406.999 55.517C407.021 55.537 407.066 55.5471 407.133 55.5471H407.334V55.8274H406.999C406.844 55.8274 406.733 55.7955 406.668 55.731C406.604 55.666 406.572 55.5564 406.572 55.4019V54.8812H406.378V54.6009H406.572V54.2529H406.965Z" fill="black"/>
</g>
<g id="f_2">
<path id="Vector_23" d="M408.842 55.0805V55.8277H408.447V55.2582C408.447 55.1506 408.445 55.0767 408.44 55.0367C408.435 54.9966 408.426 54.9672 408.415 54.9478C408.4 54.9228 408.379 54.9034 408.352 54.889C408.326 54.8749 408.297 54.8677 408.263 54.8677C408.181 54.8677 408.117 54.8996 408.071 54.9628C408.024 55.0254 408.001 55.1127 408.001 55.2244V55.8277H407.609V54.123H408.001V54.7801C408.06 54.7094 408.122 54.6568 408.188 54.6224C408.255 54.5883 408.328 54.5711 408.409 54.5711C408.55 54.5711 408.658 54.6149 408.731 54.7025C408.805 54.7895 408.842 54.9153 408.842 55.0805V55.0805Z" fill="black"/>
</g>
<g id="b_3">
<path id="Vector_24" d="M410.429 55.2104V55.323H409.512C409.522 55.415 409.555 55.4838 409.612 55.5295C409.669 55.5755 409.749 55.5983 409.851 55.5983C409.934 55.5983 410.018 55.5864 410.104 55.562C410.191 55.537 410.28 55.5001 410.371 55.4507V55.7523C410.278 55.7873 410.185 55.8136 410.093 55.8311C410 55.8493 409.908 55.8587 409.815 55.8587C409.593 55.8587 409.42 55.8023 409.297 55.6897C409.174 55.5771 409.113 55.419 409.113 55.2154C409.113 55.0151 409.173 54.858 409.294 54.7435C409.415 54.6284 409.581 54.5708 409.792 54.5708C409.985 54.5708 410.139 54.6293 410.255 54.746C410.371 54.8621 410.429 55.017 410.429 55.2104L410.429 55.2104ZM410.026 55.0802C410.026 55.006 410.005 54.9463 409.961 54.9012C409.918 54.8555 409.861 54.8324 409.791 54.8324C409.715 54.8324 409.653 54.8537 409.606 54.8962C409.558 54.9388 409.529 55.0001 409.517 55.0802H410.026Z" fill="black"/>
</g>
<g id="p">
<path id="Vector_25" d="M411.525 54.1924H411.995L412.59 55.3138V54.1924H412.989V55.8269H412.519L411.924 54.7055V55.8269H411.525V54.1924Z" fill="black"/>
</g>
<g id="d_3">
<path id="Vector_26" d="M413.968 54.8512C413.881 54.8512 413.814 54.8824 413.769 54.945C413.723 55.0076 413.7 55.0977 413.7 55.2154C413.7 55.333 413.723 55.4231 413.769 55.4857C413.814 55.5477 413.881 55.5783 413.968 55.5783C414.053 55.5783 414.118 55.5476 414.163 55.4857C414.209 55.4231 414.232 55.333 414.232 55.2154C414.232 55.0977 414.209 55.0076 414.163 54.945C414.118 54.8824 414.053 54.8512 413.968 54.8512V54.8512ZM413.968 54.5708C414.179 54.5708 414.343 54.6281 414.462 54.7423C414.58 54.8558 414.64 55.0135 414.64 55.2154C414.64 55.4165 414.58 55.5742 414.462 55.6884C414.343 55.802 414.179 55.8587 413.968 55.8587C413.756 55.8587 413.59 55.802 413.471 55.6884C413.351 55.5742 413.292 55.4165 413.292 55.2154C413.292 55.0135 413.351 54.8558 413.471 54.7423C413.59 54.6281 413.756 54.5708 413.968 54.5708V54.5708Z" fill="black"/>
</g>
<g id="o">
<path id="Vector_27" d="M414.912 55.349V54.6006H415.306V54.7232C415.306 54.7902 415.305 54.8734 415.304 54.9735C415.304 55.0737 415.303 55.1406 415.303 55.1738C415.303 55.2733 415.306 55.3446 415.311 55.3878C415.316 55.4313 415.325 55.4626 415.337 55.4817C415.354 55.5077 415.375 55.5277 415.401 55.5418C415.427 55.5552 415.456 55.5618 415.49 55.5618C415.571 55.5618 415.636 55.5305 415.682 55.4679C415.729 55.4053 415.753 55.3184 415.753 55.2063V54.6006H416.144V55.8271H415.753V55.6494C415.693 55.7213 415.631 55.7742 415.565 55.8083C415.499 55.8415 415.426 55.8584 415.346 55.8584C415.205 55.8584 415.097 55.8152 415.023 55.7282C414.948 55.6415 414.912 55.5151 414.912 55.349V55.349Z" fill="black"/>
</g>
<g id="n">
<path id="Vector_28" d="M417.755 55.0802V55.8273H417.361V55.2554C417.361 55.1496 417.358 55.0764 417.353 55.0364C417.348 54.9963 417.34 54.9669 417.328 54.9475C417.313 54.9225 417.292 54.9031 417.265 54.8887C417.24 54.8746 417.21 54.8674 417.177 54.8674C417.095 54.8674 417.031 54.8993 416.984 54.9625C416.937 55.0251 416.914 55.1124 416.914 55.2241V55.8273H416.522V54.6008H416.914V54.7798C416.973 54.7091 417.036 54.6565 417.102 54.6221C417.168 54.588 417.242 54.5708 417.322 54.5708C417.464 54.5708 417.571 54.6146 417.645 54.7022C417.718 54.7892 417.755 54.915 417.755 55.0802V55.0802Z" fill="black"/>
</g>
<g id="m">
<path id="Vector_29" d="M418.917 54.1924H419.617C419.825 54.1924 419.984 54.2387 420.095 54.3313C420.207 54.4233 420.263 54.5547 420.263 54.7256C420.263 54.8967 420.207 55.0284 420.095 55.1211C419.984 55.2137 419.825 55.26 419.617 55.26H419.338V55.8269H418.917V54.1924ZM419.338 54.4978V54.9546H419.572C419.653 54.9546 419.716 54.9346 419.761 54.8945C419.806 54.8545 419.828 54.7981 419.828 54.7255C419.828 54.6523 419.806 54.596 419.761 54.5566C419.716 54.5175 419.653 54.4978 419.572 54.4978L419.338 54.4978Z" fill="black"/>
</g>
<g id="c_4">
<path id="Vector_30" d="M421.455 54.935C421.42 54.9193 421.385 54.9074 421.351 54.8999C421.317 54.8918 421.284 54.8874 421.25 54.8874C421.148 54.8874 421.071 54.9199 421.017 54.985C420.962 55.0495 420.935 55.1415 420.935 55.2616V55.8273H420.544V54.6008H420.935V54.8023C420.985 54.7222 421.043 54.664 421.108 54.6271C421.174 54.5896 421.252 54.5708 421.343 54.5708C421.357 54.5708 421.371 54.5717 421.386 54.5733C421.402 54.5742 421.424 54.5764 421.454 54.5796L421.455 54.935Z" fill="black"/>
</g>
<g id="d_4">
<path id="Vector_31" d="M422.232 54.8512C422.145 54.8512 422.079 54.8824 422.033 54.945C421.987 55.0076 421.965 55.0977 421.965 55.2154C421.965 55.333 421.987 55.4231 422.033 55.4857C422.079 55.5477 422.145 55.5783 422.232 55.5783C422.317 55.5783 422.383 55.5476 422.428 55.4857C422.473 55.4231 422.496 55.333 422.496 55.2154C422.496 55.0977 422.473 55.0076 422.428 54.945C422.383 54.8824 422.317 54.8512 422.232 54.8512V54.8512ZM422.232 54.5708C422.443 54.5708 422.608 54.6281 422.727 54.7423C422.845 54.8558 422.904 55.0135 422.904 55.2154C422.904 55.4165 422.845 55.5742 422.727 55.6884C422.608 55.802 422.443 55.8587 422.232 55.8587C422.02 55.8587 421.855 55.802 421.735 55.6884C421.616 55.5742 421.557 55.4165 421.557 55.2154C421.557 55.0135 421.616 54.8558 421.735 54.7423C421.855 54.6281 422.02 54.5708 422.232 54.5708V54.5708Z" fill="black"/>
</g>
<g id="l">
<path id="Vector_32" d="M423.19 54.6012H423.582V55.8051C423.582 55.9694 423.542 56.0949 423.463 56.1819C423.384 56.2685 423.27 56.312 423.12 56.312H422.926V56.0542H422.995C423.069 56.0542 423.12 56.0373 423.147 56.0041C423.176 55.9707 423.19 55.9043 423.19 55.8051L423.19 54.6012ZM423.19 54.123H423.582V54.4434H423.19V54.123Z" fill="black"/>
</g>
<g id="b_4">
<path id="Vector_33" d="M425.183 55.2104V55.323H424.265C424.275 55.415 424.309 55.4838 424.366 55.5295C424.422 55.5755 424.502 55.5983 424.605 55.5983C424.687 55.5983 424.771 55.5864 424.857 55.562C424.944 55.537 425.033 55.5001 425.124 55.4507V55.7523C425.031 55.7873 424.939 55.8136 424.846 55.8311C424.754 55.8493 424.661 55.8587 424.568 55.8587C424.346 55.8587 424.173 55.8023 424.05 55.6897C423.927 55.5771 423.866 55.419 423.866 55.2154C423.866 55.0151 423.927 54.858 424.048 54.7435C424.168 54.6284 424.335 54.5708 424.546 54.5708C424.738 54.5708 424.893 54.6293 425.009 54.746C425.125 54.8621 425.183 55.017 425.183 55.2104L425.183 55.2104ZM424.78 55.0802C424.78 55.006 424.758 54.9463 424.715 54.9012C424.671 54.8555 424.615 54.8324 424.545 54.8324C424.468 54.8324 424.407 54.8537 424.359 54.8962C424.312 54.9388 424.282 55.0001 424.27 55.0802H424.78Z" fill="black"/>
</g>
<g id="k">
<path id="Vector_34" d="M426.47 54.6396V54.9588C426.418 54.9222 426.364 54.8949 426.31 54.8774C426.256 54.8599 426.201 54.8511 426.143 54.8511C426.034 54.8511 425.949 54.8834 425.887 54.9475C425.826 55.011 425.796 55.1002 425.796 55.2154C425.796 55.3299 425.826 55.419 425.887 55.4832C425.949 55.5467 426.034 55.5783 426.143 55.5783C426.204 55.5783 426.262 55.5695 426.317 55.552C426.373 55.5339 426.423 55.5067 426.47 55.4707V55.7911C426.409 55.8136 426.347 55.8302 426.284 55.8411C426.221 55.8527 426.158 55.8587 426.093 55.8587C425.872 55.8587 425.699 55.802 425.574 55.6884C425.449 55.5752 425.388 55.4175 425.388 55.2154C425.388 55.0126 425.449 54.8546 425.574 54.741C425.699 54.6277 425.872 54.5708 426.093 54.5708C426.158 54.5708 426.221 54.5767 426.284 54.5883C426.346 54.5993 426.408 54.6165 426.47 54.6396V54.6396Z" fill="black"/>
</g>
<g id="a_4">
<path id="Vector_35" d="M427.237 54.2529V54.6009H427.642V54.8812H427.237V55.4019C427.237 55.4588 427.249 55.497 427.271 55.517C427.294 55.537 427.338 55.5471 427.405 55.5471H427.607V55.8274H427.271C427.116 55.8274 427.006 55.7955 426.941 55.731C426.876 55.666 426.844 55.5564 426.844 55.4019V54.8812H426.65V54.6009H426.844V54.2529H427.237Z" fill="black"/>
</g>
</g>
</g>
</mask>
<g mask="url(#mask0_325_5)">
<rect id="Rectangle 9" x="397.364" y="0.504395" width="48.9681" height="49.3418" fill="#D5A67B"/>
</g>
</g>
</g>
<g id="x" filter="url(#filter1_f_325_5)">
<path d="M413.345 771.903C413.239 772.009 412.938 772.062 412.442 772.062C411.947 772.062 411.451 771.814 410.956 771.319C413.504 766.965 415.858 763.106 418.018 759.743C414.973 754.894 413.204 750.363 412.708 746.151L414.035 745.248L418.283 747.372C418.637 749.991 419.451 752.752 420.726 755.655C423.38 751.726 425.646 748.593 427.522 746.257L431.823 745.514L432.991 746.363C428.92 751 425.398 755.301 422.425 759.266C424.513 763.301 427.256 767.513 430.655 771.903C430.655 772.15 430.478 772.274 430.124 772.274C428.991 772.274 428.212 772.097 427.787 771.743C424.885 768.947 422.248 765.903 419.876 762.611C417.257 766.221 415.08 769.319 413.345 771.903Z" fill="#D5A67B"/>
<path d="M413.345 771.903L413.675 772.233L413.708 772.201L413.733 772.163L413.345 771.903ZM410.956 771.319L410.552 771.083L410.37 771.394L410.625 771.649L410.956 771.319ZM418.018 759.743L418.411 759.996L418.571 759.746L418.413 759.495L418.018 759.743ZM412.708 746.151L412.445 745.764L412.211 745.924L412.244 746.205L412.708 746.151ZM414.035 745.248L414.244 744.83L413.999 744.708L413.773 744.862L414.035 745.248ZM418.283 747.372L418.746 747.309L418.713 747.064L418.492 746.954L418.283 747.372ZM420.726 755.655L420.298 755.843L420.638 756.619L421.113 755.917L420.726 755.655ZM427.522 746.257L427.442 745.796L427.268 745.827L427.158 745.964L427.522 746.257ZM431.823 745.514L432.098 745.136L431.938 745.019L431.743 745.053L431.823 745.514ZM432.991 746.363L433.342 746.671L433.68 746.286L433.266 745.985L432.991 746.363ZM422.425 759.266L422.051 758.985L421.875 759.22L422.01 759.48L422.425 759.266ZM430.655 771.903H431.122V771.743L431.024 771.617L430.655 771.903ZM427.787 771.743L427.463 772.08L427.475 772.092L427.488 772.102L427.787 771.743ZM419.876 762.611L420.255 762.338L419.877 761.813L419.498 762.336L419.876 762.611ZM413.015 771.572C413.05 771.537 413.075 771.531 413.059 771.537C413.045 771.542 413.014 771.552 412.959 771.562C412.846 771.582 412.678 771.595 412.442 771.595V772.529C412.703 772.529 412.932 772.516 413.121 772.482C413.285 772.453 413.514 772.395 413.675 772.233L413.015 771.572ZM412.442 771.595C412.115 771.595 411.731 771.433 411.286 770.988L410.625 771.649C411.172 772.195 411.779 772.529 412.442 772.529V771.595ZM411.359 771.555C413.905 767.205 416.256 763.352 418.411 759.996L417.624 759.491C415.461 762.86 413.104 766.724 410.552 771.083L411.359 771.555ZM418.413 759.495C415.394 754.685 413.657 750.22 413.172 746.096L412.244 746.205C412.75 750.506 414.553 755.103 417.622 759.992L418.413 759.495ZM412.971 746.537L414.298 745.634L413.773 744.862L412.445 745.764L412.971 746.537ZM413.826 745.666L418.074 747.79L418.492 746.954L414.244 744.83L413.826 745.666ZM417.82 747.434C418.181 750.105 419.009 752.908 420.298 755.843L421.153 755.467C419.893 752.597 419.093 749.878 418.746 747.309L417.82 747.434ZM421.113 755.917C423.764 751.993 426.021 748.872 427.886 746.549L427.158 745.964C425.27 748.315 422.997 751.459 420.338 755.393L421.113 755.917ZM427.602 746.717L431.902 745.974L431.743 745.053L427.442 745.796L427.602 746.717ZM431.548 745.891L432.716 746.741L433.266 745.985L432.098 745.136L431.548 745.891ZM432.64 746.055C428.563 750.699 425.033 755.009 422.051 758.985L422.798 759.546C425.763 755.593 429.277 751.302 433.342 746.671L432.64 746.055ZM422.01 759.48C424.114 763.546 426.873 767.782 430.285 772.189L431.024 771.617C427.64 767.245 424.913 763.056 422.84 759.051L422.01 759.48ZM430.187 771.903C430.187 771.909 430.186 771.892 430.2 771.864C430.214 771.834 430.235 771.812 430.254 771.799C430.27 771.788 430.273 771.791 430.25 771.796C430.227 771.801 430.186 771.807 430.124 771.807V772.742C430.341 772.742 430.587 772.706 430.79 772.564C431.023 772.401 431.122 772.153 431.122 771.903H430.187ZM430.124 771.807C429.004 771.807 428.375 771.625 428.087 771.384L427.488 772.102C428.049 772.57 428.978 772.742 430.124 772.742V771.807ZM428.112 771.407C425.229 768.63 422.611 765.607 420.255 762.338L419.497 762.884C421.885 766.198 424.54 769.264 427.463 772.08L428.112 771.407ZM419.498 762.336C416.876 765.95 414.696 769.052 412.957 771.642L413.733 772.163C415.463 769.585 417.637 766.493 420.254 762.885L419.498 762.336Z" fill="#1F1F1F" fill-opacity="0.8"/>
</g>
<g id="path" class="pathSvg" filter="url(#filter2_df_325_5)">
<path d="M422 52.5003C422 52.5003 323 36.5 323 97C323 157.5 393 120 407.5 186C422 252 307 243.5 307 243.5M195 321C195 321 191 377.5 334.5 370C478 362.5 483 260.5 596 237.5C709 214.5 779.5 285 779.5 285M525.5 370C439 370 371.5 450 422 479C472.5 508 758 378.5 797 506.5M525.5 573.5C393.5 547.5 399 620 344.5 604C290 588 360.5 551 307 522M12.5 551C-20.5 690 149.5 556.5 176.5 622.5C203.5 688.5 101 746 158 782C215 818 209.5 674 396 756" stroke="url(#paint0_linear_325_5)" stroke-width="7" stroke-linecap="round" stroke-linejoin="round" stroke-dasharray="37.38 37.38" shape-rendering="crispEdges"/>
</g>
</g>
<defs>
<filter id="filter0_f_325_5" x="395.364" y="0" width="52.9681" height="51.8462" filterUnits="userSpaceOnUse" color-interpolation-filters="sRGB">
<feFlood flood-opacity="0" result="BackgroundImageFix"/>
<feBlend mode="normal" in="SourceGraphic" in2="BackgroundImageFix" result="shape"/>
<feGaussianBlur stdDeviation="1" result="effect1_foregroundBlur_325_5"/>
</filter>
<filter id="filter1_f_325_5" x="408.956" y="743.248" width="26.0352" height="31.0264" filterUnits="userSpaceOnUse" color-interpolation-filters="sRGB">
<feFlood flood-opacity="0" result="BackgroundImageFix"/>
<feBlend mode="normal" in="SourceGraphic" in2="BackgroundImageFix" result="shape"/>
<feGaussianBlur stdDeviation="1" result="effect1_foregroundBlur_325_5"/>
</filter>
<filter id="filter2_df_325_5" x="0.829247" y="42.7791" width="804.344" height="753.29" filterUnits="userSpaceOnUse" color-interpolation-filters="sRGB">
<feFlood flood-opacity="0" result="BackgroundImageFix"/>
<feColorMatrix in="SourceAlpha" type="matrix" values="0 0 0 0 0 0 0 0 0 0 0 0 0 0 0 0 0 0 127 0" result="hardAlpha"/>
<feOffset/>
<feGaussianBlur stdDeviation="2.33626"/>
<feComposite in2="hardAlpha" operator="out"/>
<feColorMatrix type="matrix" values="0 0 0 0 0.121569 0 0 0 0 0.121569 0 0 0 0 0.121569 0 0 0 1 0"/>
<feBlend mode="normal" in2="BackgroundImageFix" result="effect1_dropShadow_325_5"/>
<feBlend mode="normal" in="SourceGraphic" in2="effect1_dropShadow_325_5" result="shape"/>
<feGaussianBlur stdDeviation="1.75" result="effect2_foregroundBlur_325_5"/>
</filter>
<linearGradient id="paint0_linear_325_5" x1="8.26825" y1="415.206" x2="802.297" y2="415.206" gradientUnits="userSpaceOnUse">
<stop stop-color="#DB9865"/>
<stop offset="1" stop-color="#A8622C" stop-opacity="0.48"/>
</linearGradient>
</defs>
</svg>
