<svg width="788" height="804" viewBox="0 0 788 804" fill="none" xmlns="http://www.w3.org/2000/svg"><g filter="url(#filter0_f_325_159)"><mask id="a" style="mask-type:alpha" maskUnits="userSpaceOnUse" x="393" y="2" width="57" height="57"><path d="M421.911 5.58887c-6.192 0-11.211 5.01563-11.211 11.21853 0 1.4245.41 3.2407.892 4.4934l10.319 21.9716 10.318-21.9716c.484-1.253.892-3.0686.892-4.4934 0-6.2025-5.019-11.21853-11.211-11.21853h.001zm0 7.17803c2.251 0 4.076 1.7758 4.076 3.9667 0 2.1908-1.825 3.9667-4.076 3.9667-2.252 0-4.077-1.7759-4.077-3.9667 0-2.1909 1.825-3.9667 4.077-3.9667zM400.992 53.501c-.077.04-.158.0701-.242.0901-.084.0207-.172.0313-.263.0313-.273 0-.488-.0757-.647-.2278-.16-.1527-.239-.3592-.239-.6195 0-.261.079-.4675.239-.6195.159-.1527.374-.2291.647-.2291.091 0 .179.0107.263.0313.084.02.165.0501.242.0901v.3379c-.078-.0525-.155-.0913-.231-.1164-.076-.025-.156-.0375-.241-.0375-.15 0-.268.0485-.354.1452-.086.096-.129.2287-.129.398 0 .1686.043.3013.129.398.086.096.204.1439.354.1439.085 0 .165-.0119.241-.0363.076-.025.153-.0641.231-.1176v.3379zM402.235 52.6972c-.035-.0157-.07-.0276-.104-.0351-.033-.0081-.067-.0125-.101-.0125-.101 0-.179.0326-.233.0976-.055.0645-.081.1565-.081.2766v.5657h-.392V52.363h.392v.2015c.05-.0801.107-.1383.172-.1752.066-.0375.145-.0563.236-.0563.013 0 .027.0009.042.0025.016.0009.038.0031.068.0063l.001.3554zM403.654 52.9726v.1126h-.917c.01.092.043.1608.1.2065.056.046.136.0688.239.0688.082 0 .166-.0118.253-.0363.086-.025.175-.0619.266-.1113v.3016c-.092.035-.185.0613-.278.0788-.092.0182-.185.0276-.278.0276-.222 0-.394-.0564-.518-.169-.122-.1126-.184-.2706-.184-.4743 0-.2003.061-.3574.182-.4719.121-.1151.287-.1727.498-.1727.193 0 .347.0585.463.1752.116.1161.174.271.174.4644zm-.403-.1302c0-.0742-.022-.1339-.065-.179-.044-.0457-.1-.0688-.17-.0688-.076 0-.138.0213-.186.0638-.047.0426-.077.1039-.088.184h.509zM404.5 53.0376c-.082 0-.144.0138-.185.0413-.041.0276-.062.0686-.062.1227 0 .0501.017.0895.05.1176.034.0276.08.0414.138.0414.074 0 .136-.0263.187-.0789.05-.0532.076-.1195.076-.199v-.0451h-.204zm.598-.1476v.6996h-.394v-.1815c-.053.0745-.112.1286-.178.1627-.066.0332-.146.0501-.24.0501-.127 0-.23-.0366-.309-.1102-.08-.0741-.119-.1705-.119-.2891 0-.1433.049-.2484.147-.3154.1-.0676.255-.1013.467-.1013h.232v-.0313c0-.0617-.025-.1067-.074-.1352-.049-.0291-.126-.0438-.229-.0438-.085 0-.163.0084-.235.025-.072.0169-.139.0419-.201.0751v-.2991c.084-.02.168-.0354.252-.0463.085-.0107.17-.0163.255-.0163.221 0 .381.0438.478.1314.099.087.148.2287.148.4256zM405.892 52.0164v.3479h.404v.2803h-.404v.5207c0 .0569.011.0951.033.1151.023.0201.067.0301.134.0301h.202v.2803h-.336c-.155 0-.265-.0319-.33-.0963-.065-.0651-.096-.1746-.096-.3292v-.5207h-.194v-.2803h.194v-.3479h.393zM407.76 52.9726v.1126h-.918c.01.092.043.1608.1.2065.057.046.137.0688.239.0688.083 0 .167-.0118.253-.0363.087-.025.176-.0619.267-.1113v.3016c-.093.035-.186.0613-.278.0788-.093.0182-.185.0276-.278.0276-.222 0-.395-.0564-.518-.169s-.184-.2706-.184-.4743c0-.2003.06-.3574.181-.4719.121-.1151.287-.1727.498-.1727.193 0 .347.0585.464.1752.115.1161.174.271.174.4644zm-.403-.1302c0-.0742-.022-.1339-.066-.179-.043-.0457-.1-.0688-.17-.0688-.076 0-.137.0213-.185.0638-.048.0426-.077.1039-.089.184h.51zM408.89 52.5428v-.6571h.394v1.7047h-.394v-.1778c-.054.0726-.113.1258-.178.159-.065.0332-.141.05-.227.05-.151 0-.275-.06-.371-.1802-.097-.1201-.146-.2744-.146-.4631 0-.1893.049-.3441.146-.4643.096-.1201.22-.1802.371-.1802.085 0 .16.0172.226.0513.065.0344.125.087.179.1577zm-.258.7948c.083 0 .147-.0304.191-.0914.044-.0616.067-.1508.067-.2678 0-.1167-.023-.2056-.067-.2666-.044-.0617-.108-.0926-.191-.0926-.084 0-.148.0309-.192.0926-.044.061-.066.1499-.066.2666 0 .117.022.2062.066.2678.044.061.108.0914.192.0914zM411.094 53.3375c.084 0 .148-.0303.192-.0913.045-.0617.067-.1508.067-.2679 0-.1167-.022-.2055-.067-.2665-.044-.0617-.108-.0926-.192-.0926-.085 0-.149.0309-.194.0926-.045.0619-.067.1508-.067.2665 0 .1161.022.205.067.2666.045.062.109.0926.194.0926zm-.261-.7947c.055-.0707.114-.1233.179-.1577.066-.0341.142-.0513.227-.0513.152 0 .276.0601.373.1802.097.1202.145.275.145.4643 0 .1887-.048.343-.145.4631-.097.1202-.221.1802-.373.1802-.085 0-.161-.0169-.227-.05-.065-.0341-.124-.087-.179-.159v.1778h-.391v-1.7047h.391v.6571zM411.885 52.3638h.392l.33.8323.281-.8323h.391l-.515 1.3429c-.052.1358-.113.2309-.182.2854-.069.0551-.16.0826-.273.0826h-.227v-.2578h.122c.067 0 .115-.011.145-.0326.031-.0209.055-.0585.072-.1126l.011-.0338-.547-1.2741zM414.838 53.0376c-.082 0-.144.0138-.185.0413-.041.0276-.062.0686-.062.1227 0 .0501.017.0895.05.1176.034.0276.08.0414.138.0414.074 0 .137-.0263.187-.0789.05-.0532.076-.1195.076-.199v-.0451h-.204zm.598-.1476v.6996h-.394v-.1815c-.053.0745-.112.1286-.178.1627-.066.0332-.146.0501-.24.0501-.127 0-.23-.0366-.309-.1102-.08-.0741-.119-.1705-.119-.2891 0-.1433.049-.2484.148-.3154.099-.0676.254-.1013.466-.1013h.232v-.0313c0-.0617-.025-.1067-.074-.1352-.049-.0291-.126-.0438-.229-.0438-.084 0-.163.0084-.235.025-.072.0169-.139.0419-.2.0751v-.2991c.083-.02.167-.0354.251-.0463.085-.0107.17-.0163.255-.0163.221 0 .381.0438.479.1314.098.087.147.2287.147.4256zM416.712 52.6972c-.035-.0157-.069-.0276-.104-.0351-.033-.0081-.067-.0125-.101-.0125-.101 0-.179.0326-.233.0976-.054.0645-.081.1565-.081.2766v.5657h-.392V52.363h.392v.2015c.05-.0801.108-.1383.173-.1752.065-.0375.144-.0563.235-.0563.013 0 .027.0009.042.0025.016.0009.039.0031.068.0063l.001.3554zM417.336 52.0164v.3479h.404v.2803h-.404v.5207c0 .0569.011.0951.033.1151.023.0201.067.0301.134.0301h.202v.2803h-.336c-.155 0-.265-.0319-.33-.0963-.065-.0651-.096-.1746-.096-.3292v-.5207h-.194v-.2803h.194v-.3479h.393zM419.717 52.4018v.2979c-.084-.035-.165-.0613-.243-.0788-.078-.0175-.152-.0263-.221-.0263-.075 0-.13.0094-.167.0275-.036.0185-.054.0473-.054.0864 0 .031.014.0547.042.0713.027.0169.076.0294.147.0376l.069.01c.201.026.336.0682.406.1264.069.0585.104.1499.104.2741 0 .1311-.049.2296-.146.2954-.096.065-.239.0976-.43.0976-.082 0-.166-.0063-.253-.0188-.086-.0125-.175-.0316-.265-.0576v-.2978c.077.0384.157.0672.239.0863.082.0185.166.0275.251.0275.077 0 .135-.0103.173-.0312.038-.0216.058-.0532.058-.0952 0-.035-.014-.0607-.04-.0776-.027-.0175-.08-.0306-.159-.04l-.069-.0088c-.175-.0216-.297-.0619-.367-.1214-.07-.0591-.105-.1489-.105-.2691 0-.1301.044-.2265.133-.2891.089-.0632.225-.0951.41-.0951.072 0 .147.006.227.0175.08.011.166.0282.26.0513zM421.327 52.8432v.7472h-.394v-.5695c0-.1076-.003-.1815-.008-.2215-.005-.0401-.013-.0695-.025-.0889-.015-.025-.036-.0444-.062-.0588-.026-.0141-.056-.0213-.089-.0213-.082 0-.146.0319-.193.0951-.047.0626-.07.1499-.07.2616v.6033h-.392v-1.7047h.392v.6571c.059-.0707.122-.1233.188-.1577.066-.0341.14-.0513.22-.0513.142 0 .249.0438.323.1314.073.087.11.2128.11.378zM422.274 52.6134c-.087 0-.154.0312-.199.0938-.046.0626-.069.1527-.069.2704 0 .1176.023.2077.069.2703.045.062.112.0926.199.0926.085 0 .15-.0306.195-.0926.046-.0626.069-.1527.069-.2703 0-.1177-.023-.2078-.069-.2704-.045-.0625-.11-.0938-.195-.0938zm0-.2804c.211 0 .375.0573.494.1715.118.1136.178.2712.178.4731 0 .2011-.06.3588-.178.473-.119.1136-.283.1703-.494.1703-.213 0-.378-.0567-.497-.1703-.12-.1142-.179-.2719-.179-.473 0-.2019.059-.3596.179-.4731.119-.1142.284-.1715.497-.1715zM423.623 53.4119v.6445h-.392V52.363h.392v.179c.054-.0707.114-.1233.179-.1577.065-.0341.141-.0513.226-.0513.152 0 .276.0601.373.1802.097.1202.145.2751.145.4644 0 .1886-.048.3429-.145.463-.097.1202-.221.1803-.373.1803-.085 0-.161-.0169-.226-.0501-.065-.0341-.125-.087-.179-.1589zm.26-.7935c-.084 0-.149.031-.194.0926-.044.062-.066.1508-.066.2666 0 .1161.022.2049.066.2666.045.0619.11.0926.194.0926s.148-.0304.193-.0914c.044-.0616.066-.1508.066-.2678 0-.1167-.022-.2056-.066-.2666-.045-.0616-.109-.0926-.193-.0926zM400.484 54.1287v.2578h-.216c-.055 0-.094.01-.116.03-.022.0201-.033.0551-.033.1052v.0851h.335v.2803h-.335v.9462h-.392v-.9462h-.195v-.2803h.195v-.0851c0-.1333.037-.2322.112-.2967.074-.0641.189-.0963.346-.0963h.299zM401.565 54.9406c-.035-.0157-.07-.0276-.104-.0351-.033-.0081-.067-.0125-.101-.0125-.101 0-.179.0326-.233.0976-.054.0645-.081.1565-.081.2766v.5658h-.392v-1.2265h.392v.2015c.05-.0801.107-.1383.172-.1753.066-.0375.145-.0563.236-.0563.013 0 .027.001.042.0025.016.001.038.0031.068.0063l.001.3554zM402.343 54.8568c-.087 0-.153.0313-.199.0938-.046.0626-.069.1527-.069.2704 0 .1176.023.2077.069.2703.046.062.112.0926.199.0926.085 0 .15-.0306.195-.0926.046-.0626.069-.1527.069-.2703 0-.1177-.023-.2078-.069-.2704-.045-.0625-.11-.0938-.195-.0938zm0-.2804c.211 0 .376.0573.495.1715.118.1136.177.2713.177.4731 0 .2012-.059.3589-.177.4731-.119.1135-.284.1702-.495.1702-.212 0-.377-.0567-.497-.1702-.119-.1143-.179-.2719-.179-.4731 0-.2018.06-.3595.179-.4731.12-.1142.285-.1715.497-.1715zM404.436 54.8105c.05-.0758.108-.134.177-.174.068-.0401.143-.0601.225-.0601.141 0 .248.0438.322.1314.074.087.111.2128.111.378v.7472h-.394V55.1647c.001-.0107.001-.0257.001-.0451 0-.0867-.013-.1493-.039-.1877-.025-.0392-.066-.0589-.122-.0589-.075 0-.132.031-.173.0926-.041.0611-.062.1496-.063.2654v.602h-.394v-.6396c0-.1358-.012-.2231-.035-.2616-.023-.0391-.065-.0588-.125-.0588-.075 0-.133.031-.174.0926-.041.0611-.061.149-.061.2641v.6033h-.395v-1.2265h.395v.179c.048-.0692.103-.1214.165-.1565.063-.035.131-.0526.206-.0526.086 0 .161.0207.226.0614.065.041.114.0985.147.1727zM406.845 54.259v.348h.405v.2803h-.405v.5207c0 .0569.012.0951.034.1151.023.02.067.0301.134.0301h.201v.2803h-.335c-.155 0-.265-.0319-.33-.0964-.065-.065-.097-.1746-.097-.3291v-.5207h-.194v-.2803h.194v-.348h.393zM408.722 55.0861v.7472h-.395v-.5695c0-.1076-.002-.1815-.007-.2215-.005-.0401-.014-.0695-.025-.0889-.015-.025-.036-.0444-.063-.0588-.026-.0141-.055-.0213-.089-.0213-.082 0-.146.0319-.192.0952-.047.0625-.07.1498-.07.2615v.6033h-.392v-1.7046h.392v.657c.059-.0707.121-.1232.187-.1577.067-.0341.14-.0513.221-.0513.141 0 .249.0438.322.1314.074.087.111.2128.111.378zM410.309 55.216v.1126h-.917c.01.092.043.1608.1.2065.056.046.136.0689.239.0689.082 0 .167-.0119.253-.0363.086-.0251.175-.062.266-.1114v.3016c-.092.035-.185.0613-.278.0788-.092.0182-.185.0276-.278.0276-.222 0-.394-.0563-.518-.169-.122-.1126-.184-.2706-.184-.4743 0-.2003.061-.3574.182-.4719.121-.1151.287-.1727.498-.1727.193 0 .347.0585.463.1752.116.1161.174.271.174.4644zm-.403-.1302c0-.0741-.022-.1339-.065-.179-.044-.0457-.1-.0688-.17-.0688-.076 0-.138.0213-.186.0638-.047.0426-.077.1039-.088.184h.509zM411.404 54.1982h.47l.595 1.1214v-1.1214h.399v1.6346h-.471l-.594-1.1214v1.1214h-.399v-1.6346zM413.846 54.8568c-.087 0-.153.0313-.199.0938-.046.0626-.069.1527-.069.2704 0 .1176.023.2077.069.2703.046.062.112.0926.199.0926.085 0 .15-.0306.195-.0926.046-.0626.069-.1527.069-.2703 0-.1177-.023-.2078-.069-.2704-.045-.0625-.11-.0938-.195-.0938zm0-.2804c.211 0 .376.0573.494.1715.119.1136.178.2713.178.4731 0 .2012-.059.3589-.178.4731-.118.1135-.283.1702-.494.1702-.212 0-.378-.0567-.497-.1702-.12-.1143-.179-.2719-.179-.4731 0-.2018.059-.3595.179-.4731.119-.1142.285-.1715.497-.1715zM414.789 55.3549v-.7485h.395v.1227c0 .067-.001.1502-.002.2503-.001.1001-.001.1671-.001.2003 0 .0995.003.1708.008.214.005.0435.014.0748.026.0938.016.026.038.046.064.0601.025.0135.055.0201.089.0201.081 0 .145-.0313.192-.0939.047-.0626.07-.1496.07-.2616v-.6058h.392v1.2265h-.392v-.1777c-.059.072-.122.1249-.187.159-.066.0331-.139.05-.219.05-.142 0-.249-.0431-.323-.1301-.075-.0867-.112-.2131-.112-.3793v.0001zM417.632 55.0858v.7472h-.394v-.572c0-.1058-.003-.179-.008-.219-.005-.0401-.013-.0695-.025-.0889-.015-.025-.036-.0444-.062-.0588-.026-.0141-.056-.0213-.089-.0213-.082 0-.146.0319-.193.0951-.047.0626-.07.1499-.07.2616v.6033h-.392v-1.2265h.392v.1789c.059-.0707.122-.1233.188-.1577.067-.0341.14-.0513.22-.0513.142 0 .25.0438.323.1314.073.087.11.2128.11.378zM418.794 54.1982h.699c.208 0 .367.0463.479.139.111.092.167.2234.167.3942 0 .1712-.056.3029-.167.3955-.112.0926-.271.1389-.479.1389h-.279v.567h-.42v-1.6346zm.42.3054v.4568h.234c.082 0 .145-.02.189-.06.045-.0401.068-.0964.068-.169 0-.0732-.023-.1295-.068-.169-.044-.0391-.107-.0588-.189-.0588h-.234zM421.331 54.9406c-.035-.0157-.07-.0276-.104-.0351-.034-.0081-.067-.0125-.101-.0125-.102 0-.179.0326-.233.0976-.055.0645-.082.1565-.082.2766v.5658h-.391v-1.2265h.391v.2015c.05-.0801.108-.1383.173-.1753.066-.0375.144-.0563.235-.0563.014 0 .028.001.043.0025.016.001.038.0031.068.0063l.001.3554zM422.108 54.8568c-.087 0-.153.0313-.199.0938-.046.0626-.069.1527-.069.2704 0 .1176.023.2077.069.2703.046.062.112.0926.199.0926.085 0 .15-.0306.195-.0926.046-.0626.069-.1527.069-.2703 0-.1177-.023-.2078-.069-.2704-.045-.0625-.11-.0938-.195-.0938zm0-.2804c.211 0 .376.0573.494.1715.119.1136.178.2713.178.4731 0 .2012-.059.3589-.178.4731-.118.1135-.283.1702-.494.1702-.212 0-.378-.0567-.497-.1702-.119-.1143-.179-.2719-.179-.4731 0-.2018.06-.3595.179-.4731.119-.1142.285-.1715.497-.1715zM423.065 54.6068h.392v1.204c0 .1642-.04.2897-.119.3767-.078.0866-.193.1301-.343.1301h-.194v-.2578h.069c.074 0 .125-.0169.153-.0501.028-.0334.042-.0998.042-.199v-1.2039zm0-.4781h.392v.3204h-.392v-.3204zM425.058 55.216v.1126h-.918c.01.092.044.1608.101.2065.056.046.136.0689.239.0689.082 0 .166-.0119.252-.0363.087-.0251.176-.062.267-.1114v.3016c-.093.035-.185.0613-.278.0788-.092.0182-.185.0276-.278.0276-.222 0-.395-.0563-.518-.169-.122-.1126-.184-.2706-.184-.4743 0-.2003.061-.3574.182-.4719.12-.1151.287-.1727.498-.1727.193 0 .347.0585.463.1752.116.1161.174.271.174.4644zm-.403-.1302c0-.0741-.022-.1339-.065-.179-.044-.0457-.1-.0688-.17-.0688-.076 0-.138.0213-.186.0638-.047.0426-.077.1039-.089.184h.51zM426.345 54.6452v.3192c-.053-.0366-.106-.0638-.16-.0814-.054-.0175-.109-.0262-.167-.0262-.109 0-.195.0322-.256.0963-.061.0635-.092.1527-.092.2679 0 .1145.031.2037.092.2678.061.0635.147.0951.256.0951.061 0 .119-.0087.174-.0263.055-.0181.106-.0453.153-.0813v.3204c-.061.0225-.123.0391-.187.0501-.062.0115-.126.0175-.19.0175-.221 0-.394-.0567-.519-.1702-.125-.1133-.187-.271-.187-.4731 0-.2028.062-.3608.187-.4744.125-.1132.298-.1702.519-.1702.064 0 .128.006.19.0175.063.011.125.0282.187.0514v-.0001zM427.112 54.259v.348h.404v.2803h-.404v.5207c0 .0569.011.0951.034.1151.022.02.067.0301.133.0301h.202v.2803h-.335c-.156 0-.266-.0319-.331-.0964-.064-.065-.096-.1746-.096-.3291v-.5207h-.194v-.2803h.194v-.348h.393z" fill="#000"/></mask><g mask="url(#a)"><path fill="#D5A67B" d="M397.247.504395h48.9533v49.3475H397.247z"/></g></g><g filter="url(#filter1_f_325_159)"><path d="M374.236 769.986c-.106.106-.407.159-.903.159-.495 0-.991-.248-1.486-.743 2.548-4.354 4.902-8.213 7.061-11.576-3.044-4.849-4.814-9.38-5.309-13.592l1.327-.903 4.248 2.124c.354 2.619 1.168 5.38 2.442 8.283 2.655-3.929 4.921-7.062 6.797-9.398l4.301-.743 1.168.849c-4.071 4.637-7.593 8.938-10.566 12.903 2.088 4.035 4.831 8.247 8.23 12.637 0 .247-.177.371-.531.371-1.133 0-1.912-.177-2.337-.531-2.902-2.796-5.539-5.84-7.911-9.132-2.62 3.61-4.797 6.708-6.531 9.292z" fill="#D5A67B"/><path d="M374.236 769.986l.33.33.033-.032.025-.038-.388-.26zm-2.389-.584l-.404-.236-.182.311.255.255.331-.33zm7.061-11.576l.394.253.16-.25-.158-.251-.396.248zm-5.309-13.592l-.263-.387-.234.16.033.281.464-.054zm1.327-.903l.209-.418-.245-.122-.227.154.263.386zm4.248 2.124l.463-.063-.033-.245-.221-.11-.209.418zm2.442 8.283l-.427.188.34.776.475-.702-.388-.262zm6.797-9.398l-.08-.461-.174.031-.11.137.364.293zm4.301-.743l.275-.378-.16-.117-.195.034.08.461zm1.168.849l.351.308.338-.385-.414-.301-.275.378zm-10.566 12.903l-.374-.281-.176.235.135.26.415-.214zm8.23 12.637h.467v-.16l-.098-.126-.369.286zm-2.868-.16l-.324.337.012.012.013.01.299-.359zm-7.911-9.132l.379-.273-.378-.525-.379.523.378.275zm-6.861 8.961c.034-.035.06-.041.044-.035-.014.005-.045.015-.101.025-.112.02-.281.033-.516.033v.934c.261 0 .49-.013.679-.047.164-.029.393-.087.554-.249l-.66-.661zm-.573.023c-.328 0-.711-.162-1.156-.607l-.661.661c.547.546 1.154.88 1.817.88v-.934zm-1.083-.04c2.546-4.35 4.897-8.203 7.052-11.559l-.787-.505c-2.163 3.369-4.521 7.233-7.072 11.592l.807.472zm7.054-12.06c-3.019-4.81-4.756-9.275-5.241-13.399l-.928.109c.506 4.301 2.309 8.898 5.378 13.787l.791-.497zm-5.442-12.958l1.327-.903-.526-.772-1.327.902.526.773zm.855-.871l4.248 2.124.418-.836-4.248-2.124-.418.836zm3.994 1.768c.361 2.671 1.189 5.474 2.478 8.409l.855-.376c-1.26-2.87-2.06-5.589-2.407-8.158l-.926.125zm3.293 8.483c2.651-3.924 4.908-7.045 6.773-9.368l-.728-.585c-1.888 2.351-4.161 5.495-6.82 9.429l.775.524zm6.488-9.2l4.301-.743-.159-.921-4.301.743.159.921zm3.947-.826l1.168.85.55-.756-1.168-.849-.55.755zm1.092.164c-4.077 4.644-7.607 8.954-10.589 12.93l.747.561c2.965-3.953 6.479-8.244 10.544-12.875l-.702-.616zm-10.63 13.425c2.103 4.066 4.863 8.302 8.275 12.709l.739-.572c-3.385-4.372-6.111-8.561-8.184-12.566l-.83.429zm8.177 12.423c0 .006-.001-.011.012-.039.015-.03.036-.052.055-.065.015-.011.019-.008-.004-.003s-.064.011-.126.011v.935c.217 0 .463-.036.666-.178.233-.163.332-.411.332-.661h-.935zm-.063-.096c-1.12 0-1.749-.182-2.038-.423l-.598.718c.561.468 1.489.64 2.636.64v-.935zm-2.013-.4c-2.882-2.777-5.501-5.8-7.856-9.069l-.758.546c2.388 3.314 5.043 6.38 7.966 9.196l.648-.673zm-8.613-9.071c-2.622 3.614-4.802 6.716-6.541 9.306l.776.521c1.73-2.578 3.904-5.67 6.521-9.278l-.756-.549z" fill="#1F1F1F" fill-opacity=".8"/></g><g filter="url(#filter2_df_325_159)"><path d="M421.607 60.5069S312.908 41.5045 312.908 102.011c0 60.507 79.708 26.004 94.204 92.011 14.495 66.008-131.193 35.004-131.193 35.004M57.4851 271.531S190.677 385.544 334.134 378.043c143.457-7.5 148.455-109.512 261.421-132.515C708.521 222.526 779 293.034 779 293.034m-284.646 85.009c-86.474 0-123.231 80.01-72.747 109.013 50.485 29.003 282.684-33.504 321.672 94.511m-230.431 0c-131.96-26.003-114.234 46.505-168.717 30.503-54.484-16.002-14.728-72.508-68.212-101.512M12.2304 559.064c-32.9901 139.016 136.9586 5.501 163.9506 71.508 26.992 66.008-75.477 123.515-18.494 159.519 56.983 36.004 72.746-141.016 202.207-46.506" stroke="url(#paint0_linear_325_159)" stroke-width="7" stroke-linecap="round" stroke-linejoin="round" stroke-dasharray="37.38 37.38" shape-rendering="crispEdges"/></g><defs><filter id="filter0_f_325_159" x="395.247" y="0" width="52.9534" height="51.8518" filterUnits="userSpaceOnUse" color-interpolation-filters="sRGB"><feFlood flood-opacity="0" result="BackgroundImageFix"/><feBlend in="SourceGraphic" in2="BackgroundImageFix" result="shape"/><feGaussianBlur stdDeviation="1" result="effect1_foregroundBlur_325_159"/></filter><filter id="filter1_f_325_159" x="369.847" y="741.331" width="26.0353" height="31.0262" filterUnits="userSpaceOnUse" color-interpolation-filters="sRGB"><feFlood flood-opacity="0" result="BackgroundImageFix"/><feBlend in="SourceGraphic" in2="BackgroundImageFix" result="shape"/><feGaussianBlur stdDeviation="1" result="effect1_foregroundBlur_325_159"/></filter><filter id="filter2_df_325_159" x=".561363" y="49.9564" width="786.611" height="753.216" filterUnits="userSpaceOnUse" color-interpolation-filters="sRGB"><feFlood flood-opacity="0" result="BackgroundImageFix"/><feColorMatrix in="SourceAlpha" values="0 0 0 0 0 0 0 0 0 0 0 0 0 0 0 0 0 0 127 0" result="hardAlpha"/><feOffset/><feGaussianBlur stdDeviation="2.33626"/><feComposite in2="hardAlpha" operator="out"/><feColorMatrix values="0 0 0 0 0.121569 0 0 0 0 0.121569 0 0 0 0 0.121569 0 0 0 1 0"/><feBlend in2="BackgroundImageFix" result="effect1_dropShadow_325_159"/><feBlend in="SourceGraphic" in2="effect1_dropShadow_325_159" result="shape"/><feGaussianBlur stdDeviation="1.75" result="effect2_foregroundBlur_325_159"/></filter><linearGradient id="paint0_linear_325_159" x1="8" y1="422.304" x2="784.178" y2="422.304" gradientUnits="userSpaceOnUse"><stop stop-color="#DB9865"/><stop offset="1" stop-color="#A8622C" stop-opacity=".48"/></linearGradient></defs></svg>