<svg width="361" height="523" viewBox="0 0 361 523" fill="none" xmlns="http://www.w3.org/2000/svg">
<g filter="url(#filter0_f_390_11)">
<mask id="mask0_390_11" style="mask-type:alpha" maskUnits="userSpaceOnUse" x="164" y="2" width="36" height="36">
<path d="M182.25 4.26611C178.339 4.26611 175.169 7.43256 175.169 11.3486C175.169 12.2479 175.428 13.3945 175.732 14.1854L182.25 28.0565L188.767 14.1854C189.072 13.3943 189.33 12.2481 189.33 11.3486C189.33 7.43281 186.16 4.26611 182.249 4.26611H182.25ZM182.25 8.79772C183.672 8.79772 184.824 9.91887 184.824 11.302C184.824 12.6851 183.672 13.8063 182.25 13.8063C180.828 13.8063 179.675 12.6851 179.675 11.302C179.675 9.91887 180.828 8.79772 182.25 8.79772Z" fill="black"/>
<path d="M169.038 34.5137C168.989 34.5389 168.938 34.5579 168.884 34.5705C168.832 34.5836 168.776 34.5903 168.718 34.5903C168.547 34.5903 168.411 34.5425 168.31 34.4465C168.209 34.3501 168.159 34.2197 168.159 34.0553C168.159 33.8905 168.209 33.7602 168.31 33.6641C168.411 33.5677 168.547 33.5195 168.718 33.5195C168.776 33.5195 168.832 33.5262 168.884 33.5393C168.938 33.5519 168.989 33.5709 169.038 33.5962V33.8095C168.988 33.7764 168.939 33.7519 168.892 33.7361C168.844 33.7203 168.793 33.7124 168.74 33.7124C168.645 33.7124 168.57 33.743 168.516 33.804C168.462 33.8647 168.435 33.9484 168.435 34.0553C168.435 34.1618 168.462 34.2456 168.516 34.3066C168.57 34.3673 168.645 34.3975 168.74 34.3975C168.793 34.3975 168.844 34.39 168.892 34.3746C168.939 34.3588 168.988 34.3341 169.038 34.3003V34.5137Z" fill="black"/>
<path d="M169.823 34.0063C169.801 33.9964 169.779 33.9889 169.757 33.9842C169.736 33.979 169.715 33.9763 169.693 33.9763C169.629 33.9763 169.58 33.9968 169.546 34.0379C169.512 34.0786 169.495 34.1367 169.495 34.2126V34.5697H169.247V33.7953H169.495V33.9226C169.526 33.872 169.563 33.8352 169.604 33.8119C169.645 33.7882 169.695 33.7764 169.752 33.7764C169.761 33.7764 169.77 33.777 169.779 33.7779C169.789 33.7785 169.803 33.7799 169.822 33.7819L169.823 34.0063Z" fill="black"/>
<path d="M170.719 34.1802V34.2513H170.14C170.146 34.3094 170.167 34.3528 170.203 34.3817C170.239 34.4107 170.289 34.4251 170.354 34.4251C170.406 34.4251 170.459 34.4176 170.513 34.4022C170.568 34.3864 170.624 34.3631 170.682 34.3319V34.5223C170.623 34.5445 170.565 34.5611 170.506 34.5721C170.448 34.5836 170.389 34.5895 170.331 34.5895C170.19 34.5895 170.081 34.554 170.004 34.4828C169.926 34.4117 169.887 34.3119 169.887 34.1833C169.887 34.0569 169.926 33.9577 170.002 33.8854C170.078 33.8127 170.183 33.7764 170.317 33.7764C170.438 33.7764 170.536 33.8133 170.609 33.887C170.682 33.9603 170.719 34.0581 170.719 34.1802L170.719 34.1802ZM170.464 34.098C170.464 34.0512 170.45 34.0134 170.423 33.985C170.396 33.9561 170.36 33.9415 170.316 33.9415C170.268 33.9415 170.229 33.955 170.199 33.9818C170.169 34.0087 170.15 34.0474 170.143 34.098H170.464Z" fill="black"/>
<path d="M171.253 34.2213C171.201 34.2213 171.162 34.23 171.136 34.2473C171.11 34.2647 171.097 34.2906 171.097 34.3248C171.097 34.3564 171.108 34.3813 171.129 34.3991C171.15 34.4165 171.179 34.4252 171.216 34.4252C171.263 34.4252 171.302 34.4086 171.334 34.3754C171.366 34.3418 171.382 34.2999 171.382 34.2497V34.2213L171.253 34.2213ZM171.631 34.128V34.5698H171.382V34.4552C171.349 34.5022 171.311 34.5364 171.27 34.5579C171.228 34.5788 171.177 34.5895 171.118 34.5895C171.038 34.5895 170.973 34.5664 170.923 34.52C170.873 34.4732 170.848 34.4123 170.848 34.3374C170.848 34.2469 170.879 34.1806 170.941 34.1383C171.004 34.0956 171.102 34.0743 171.236 34.0743H171.382V34.0545C171.382 34.0156 171.366 33.9872 171.335 33.9692C171.304 33.9508 171.256 33.9415 171.191 33.9415C171.137 33.9415 171.088 33.9469 171.042 33.9573C170.997 33.968 170.955 33.9838 170.916 34.0047V33.8159C170.968 33.8032 171.021 33.7936 171.075 33.7866C171.128 33.7799 171.182 33.7764 171.236 33.7764C171.375 33.7764 171.476 33.804 171.538 33.8593C171.6 33.9143 171.631 34.0038 171.631 34.128L171.631 34.128Z" fill="black"/>
<path d="M172.132 33.5767V33.7963H172.387V33.9734H172.132V34.3021C172.132 34.3381 172.139 34.3622 172.153 34.3748C172.168 34.3874 172.196 34.3938 172.238 34.3938H172.365V34.5708H172.153C172.056 34.5708 171.986 34.5506 171.945 34.5099C171.904 34.4688 171.884 34.3997 171.884 34.3021V33.9734H171.762V33.7963H171.884V33.5767H172.132Z" fill="black"/>
<path d="M173.312 34.1802V34.2513H172.733C172.739 34.3094 172.76 34.3528 172.796 34.3817C172.832 34.4107 172.882 34.4251 172.947 34.4251C172.999 34.4251 173.052 34.4176 173.106 34.4022C173.161 34.3864 173.217 34.3631 173.275 34.3319V34.5223C173.216 34.5445 173.158 34.5611 173.099 34.5721C173.041 34.5836 172.982 34.5895 172.924 34.5895C172.784 34.5895 172.674 34.554 172.597 34.4828C172.519 34.4117 172.48 34.3119 172.48 34.1833C172.48 34.0569 172.519 33.9577 172.595 33.8854C172.671 33.8127 172.776 33.7764 172.91 33.7764C173.031 33.7764 173.129 33.8133 173.202 33.887C173.275 33.9603 173.312 34.0581 173.312 34.1802L173.312 34.1802ZM173.057 34.098C173.057 34.0512 173.044 34.0134 173.016 33.985C172.989 33.9561 172.953 33.9415 172.909 33.9415C172.861 33.9415 172.822 33.955 172.792 33.9818C172.762 34.0087 172.743 34.0474 172.736 34.098H173.057Z" fill="black"/>
<path d="M174.026 33.909V33.4941H174.274V34.5704H174.026V34.4582C173.992 34.504 173.954 34.5376 173.913 34.5586C173.872 34.5795 173.824 34.5902 173.77 34.5902C173.675 34.5902 173.597 34.5522 173.536 34.4764C173.474 34.4005 173.444 34.3031 173.444 34.184C173.444 34.0645 173.474 33.9667 173.536 33.8908C173.597 33.815 173.675 33.777 173.77 33.777C173.824 33.777 173.871 33.7879 173.913 33.8094C173.954 33.8312 173.992 33.8643 174.026 33.909V33.909ZM173.863 34.4108C173.915 34.4108 173.956 34.3916 173.984 34.3531C174.012 34.3142 174.026 34.2579 174.026 34.184C174.026 34.1103 174.012 34.0542 173.984 34.0157C173.956 33.9768 173.915 33.9572 173.863 33.9572C173.81 33.9572 173.77 33.9768 173.742 34.0157C173.714 34.0542 173.7 34.1103 173.7 34.184C173.7 34.2579 173.714 34.3142 173.742 34.3531C173.77 34.3916 173.81 34.4108 173.863 34.4108Z" fill="black"/>
<path d="M175.418 34.4108C175.471 34.4108 175.511 34.3916 175.539 34.3531C175.567 34.3142 175.581 34.2579 175.581 34.184C175.581 34.1103 175.567 34.0542 175.539 34.0157C175.511 33.9768 175.471 33.9572 175.418 33.9572C175.364 33.9572 175.324 33.9768 175.295 34.0157C175.267 34.0548 175.253 34.1109 175.253 34.184C175.253 34.2573 175.267 34.3134 175.295 34.3523C175.324 34.3914 175.364 34.4108 175.418 34.4108V34.4108ZM175.253 33.909C175.288 33.8644 175.325 33.8312 175.366 33.8094C175.408 33.7879 175.456 33.777 175.509 33.777C175.605 33.777 175.684 33.815 175.745 33.8908C175.806 33.9667 175.837 34.0645 175.837 34.184C175.837 34.3031 175.806 34.4005 175.745 34.4764C175.684 34.5522 175.605 34.5902 175.509 34.5902C175.456 34.5902 175.408 34.5795 175.366 34.5586C175.325 34.537 175.288 34.5037 175.253 34.4582V34.5704H175.006V33.4941H175.253V33.909Z" fill="black"/>
<path d="M175.918 33.7959H176.165L176.374 34.3214L176.551 33.7959H176.798L176.472 34.6438C176.44 34.7296 176.401 34.7896 176.358 34.824C176.314 34.8588 176.257 34.8762 176.186 34.8762H176.042V34.7134H176.119C176.161 34.7134 176.192 34.7065 176.211 34.6928C176.23 34.6796 176.245 34.6559 176.256 34.6217L176.263 34.6004L175.918 33.7959Z" fill="black"/>
<path d="M177.783 34.2213C177.731 34.2213 177.692 34.23 177.666 34.2473C177.64 34.2647 177.627 34.2906 177.627 34.3248C177.627 34.3564 177.637 34.3813 177.658 34.3991C177.679 34.4165 177.708 34.4252 177.745 34.4252C177.792 34.4252 177.832 34.4086 177.863 34.3754C177.895 34.3418 177.911 34.2999 177.911 34.2497V34.2213L177.783 34.2213ZM178.16 34.128V34.5698H177.911V34.4552C177.878 34.5022 177.841 34.5364 177.799 34.5579C177.757 34.5788 177.707 34.5895 177.647 34.5895C177.567 34.5895 177.502 34.5664 177.452 34.52C177.402 34.4732 177.377 34.4123 177.377 34.3374C177.377 34.2469 177.408 34.1806 177.47 34.1383C177.533 34.0956 177.631 34.0743 177.765 34.0743H177.911V34.0545C177.911 34.0156 177.896 33.9872 177.865 33.9692C177.834 33.9508 177.785 33.9415 177.72 33.9415C177.667 33.9415 177.617 33.9469 177.572 33.9573C177.526 33.968 177.484 33.9838 177.445 34.0047V33.8159C177.498 33.8032 177.551 33.7936 177.604 33.7866C177.658 33.7799 177.711 33.7764 177.765 33.7764C177.905 33.7764 178.005 33.804 178.067 33.8593C178.129 33.9143 178.16 34.0038 178.16 34.128L178.16 34.128Z" fill="black"/>
<path d="M178.966 34.0063C178.944 33.9964 178.922 33.9889 178.901 33.9842C178.88 33.979 178.858 33.9763 178.837 33.9763C178.773 33.9763 178.724 33.9968 178.69 34.0379C178.655 34.0786 178.638 34.1367 178.638 34.2126V34.5697H178.391V33.7953H178.638V33.9226C178.67 33.872 178.706 33.8352 178.747 33.8119C178.789 33.7882 178.838 33.7764 178.896 33.7764C178.904 33.7764 178.913 33.777 178.923 33.7779C178.933 33.7785 178.947 33.7799 178.966 33.7819L178.966 34.0063Z" fill="black"/>
<path d="M179.36 33.5767V33.7963H179.615V33.9734H179.36V34.3021C179.36 34.3381 179.367 34.3622 179.381 34.3748C179.396 34.3874 179.424 34.3938 179.466 34.3938H179.593V34.5708H179.381C179.283 34.5708 179.214 34.5506 179.173 34.5099C179.132 34.4688 179.112 34.3997 179.112 34.3021V33.9734H178.989V33.7963H179.112V33.5767H179.36Z" fill="black"/>
<path d="M180.864 33.8198V34.0079C180.811 33.9858 180.76 33.9692 180.711 33.9581C180.661 33.9471 180.614 33.9415 180.571 33.9415C180.524 33.9415 180.489 33.9475 180.466 33.9589C180.443 33.9706 180.432 33.9887 180.432 34.0134C180.432 34.033 180.44 34.048 180.458 34.0585C180.475 34.0692 180.506 34.0771 180.551 34.0822L180.594 34.0885C180.721 34.1049 180.807 34.1316 180.851 34.1683C180.894 34.2053 180.916 34.263 180.916 34.3414C180.916 34.4242 180.886 34.4864 180.824 34.5279C180.764 34.569 180.673 34.5895 180.553 34.5895C180.501 34.5895 180.448 34.5856 180.393 34.5777C180.339 34.5698 180.283 34.5577 180.225 34.5413V34.3532C180.274 34.3775 180.325 34.3957 180.376 34.4078C180.429 34.4194 180.481 34.4251 180.535 34.4251C180.584 34.4251 180.62 34.4186 180.644 34.4054C180.668 34.3918 180.681 34.3718 180.681 34.3453C180.681 34.3232 180.672 34.307 180.655 34.2963C180.638 34.2853 180.605 34.277 180.555 34.2711L180.512 34.2655C180.401 34.2519 180.324 34.2264 180.28 34.1889C180.236 34.1515 180.214 34.0948 180.214 34.019C180.214 33.9368 180.241 33.8759 180.297 33.8364C180.354 33.7965 180.44 33.7764 180.557 33.7764C180.602 33.7764 180.649 33.7801 180.7 33.7874C180.75 33.7943 180.805 33.8052 180.864 33.8198L180.864 33.8198Z" fill="black"/>
<path d="M181.881 34.0987V34.5704H181.632V34.2109C181.632 34.1429 181.63 34.0963 181.627 34.071C181.624 34.0457 181.619 34.0271 181.611 34.0149C181.602 33.9991 181.589 33.9868 181.572 33.9778C181.555 33.9689 181.537 33.9643 181.516 33.9643C181.464 33.9643 181.423 33.9845 181.394 34.0244C181.364 34.0639 181.35 34.119 181.35 34.1895V34.5704H181.102V33.4941H181.35V33.909C181.387 33.8644 181.427 33.8312 181.468 33.8094C181.51 33.7879 181.557 33.777 181.607 33.777C181.697 33.777 181.765 33.8047 181.811 33.86C181.858 33.9149 181.881 33.9944 181.881 34.0987V34.0987Z" fill="black"/>
<path d="M182.479 33.9534C182.424 33.9534 182.382 33.9731 182.353 34.0126C182.324 34.0522 182.31 34.1091 182.31 34.1833C182.31 34.2576 182.324 34.3145 182.353 34.354C182.382 34.3931 182.424 34.4125 182.479 34.4125C182.532 34.4125 182.574 34.3931 182.602 34.354C182.631 34.3145 182.645 34.2576 182.645 34.1833C182.645 34.1091 182.631 34.0522 182.602 34.0126C182.574 33.9731 182.532 33.9534 182.479 33.9534V33.9534ZM182.479 33.7764C182.612 33.7764 182.716 33.8125 182.791 33.8846C182.866 33.9563 182.903 34.0559 182.903 34.1833C182.903 34.3104 182.866 34.4099 182.791 34.482C182.716 34.5538 182.612 34.5895 182.479 34.5895C182.345 34.5895 182.24 34.5538 182.165 34.482C182.09 34.4099 182.052 34.3104 182.052 34.1833C182.052 34.0559 182.09 33.9563 182.165 33.8846C182.24 33.8125 182.345 33.7764 182.479 33.7764V33.7764Z" fill="black"/>
<path d="M183.331 34.4576V34.8645H183.083V33.7953H183.331V33.9083C183.365 33.8637 183.403 33.8305 183.444 33.8088C183.485 33.7872 183.533 33.7764 183.587 33.7764C183.683 33.7764 183.761 33.8143 183.822 33.8902C183.883 33.966 183.914 34.0638 183.914 34.1833C183.914 34.3025 183.883 34.3999 183.822 34.4757C183.761 34.5516 183.683 34.5895 183.587 34.5895C183.533 34.5895 183.485 34.5788 183.444 34.5579C183.403 34.5364 183.365 34.503 183.331 34.4575V34.4576ZM183.495 33.9566C183.442 33.9566 183.401 33.9761 183.373 34.015C183.345 34.0542 183.331 34.1103 183.331 34.1834C183.331 34.2566 183.345 34.3128 183.373 34.3517C183.401 34.3908 183.442 34.4101 183.495 34.4101C183.548 34.4101 183.589 34.391 183.617 34.3525C183.645 34.3135 183.659 34.2572 183.659 34.1833C183.659 34.1097 183.645 34.0536 183.617 34.015C183.589 33.9761 183.548 33.9566 183.495 33.9566V33.9566Z" fill="black"/>
<path d="M168.717 34.9102V35.0729H168.58C168.546 35.0729 168.521 35.0793 168.507 35.0919C168.493 35.1046 168.486 35.1267 168.486 35.1583V35.212H168.698V35.389H168.486V35.9864H168.239V35.389H168.116V35.212H168.239V35.1583C168.239 35.0741 168.262 35.0117 168.309 34.971C168.356 34.9305 168.429 34.9102 168.528 34.9102L168.717 34.9102Z" fill="black"/>
<path d="M169.4 35.4228C169.377 35.4129 169.356 35.4054 169.334 35.4007C169.313 35.3955 169.291 35.3928 169.27 35.3928C169.206 35.3928 169.157 35.4133 169.123 35.4544C169.089 35.4951 169.072 35.5532 169.072 35.6291V35.9862H168.824V35.2118H169.072V35.3391C169.103 35.2885 169.14 35.2517 169.181 35.2284C169.222 35.2047 169.272 35.1929 169.329 35.1929C169.338 35.1929 169.347 35.1935 169.356 35.1945C169.366 35.195 169.38 35.1964 169.399 35.1984L169.4 35.4228Z" fill="black"/>
<path d="M169.891 35.3699C169.836 35.3699 169.794 35.3896 169.765 35.4292C169.736 35.4687 169.722 35.5256 169.722 35.5998C169.722 35.6741 169.736 35.731 169.765 35.7705C169.794 35.8096 169.836 35.829 169.891 35.829C169.945 35.829 169.986 35.8096 170.014 35.7705C170.043 35.731 170.058 35.6741 170.058 35.5998C170.058 35.5256 170.043 35.4687 170.014 35.4292C169.986 35.3896 169.945 35.3699 169.891 35.3699V35.3699ZM169.891 35.1929C170.024 35.1929 170.128 35.229 170.203 35.3011C170.278 35.3728 170.315 35.4724 170.315 35.5998C170.315 35.7269 170.278 35.8264 170.203 35.8985C170.128 35.9703 170.024 36.006 169.891 36.006C169.757 36.006 169.653 35.9703 169.577 35.8985C169.502 35.8264 169.464 35.7269 169.464 35.5998C169.464 35.4724 169.502 35.3728 169.577 35.3011C169.653 35.229 169.757 35.1929 169.891 35.1929V35.1929Z" fill="black"/>
<path d="M171.213 35.3406C171.244 35.2928 171.281 35.2561 171.324 35.2308C171.368 35.2055 171.415 35.1929 171.467 35.1929C171.556 35.1929 171.623 35.2205 171.67 35.2758C171.717 35.3308 171.74 35.4102 171.74 35.5145V35.9863H171.491V35.5825V35.5643C171.492 35.5576 171.492 35.5481 171.492 35.5358C171.492 35.4811 171.484 35.4416 171.467 35.4173C171.452 35.3926 171.426 35.3802 171.39 35.3802C171.343 35.3802 171.307 35.3997 171.281 35.4386C171.255 35.4772 171.242 35.5331 171.241 35.6062V35.9863H170.993V35.5824C170.993 35.4967 170.985 35.4416 170.97 35.4173C170.956 35.3926 170.929 35.3801 170.891 35.3801C170.844 35.3801 170.807 35.3997 170.782 35.4386C170.756 35.4771 170.743 35.5327 170.743 35.6054V35.9863H170.494V35.2118H170.743V35.3249C170.773 35.2812 170.808 35.2482 170.847 35.2261C170.887 35.204 170.93 35.1929 170.978 35.1929C171.031 35.1929 171.079 35.2059 171.12 35.2316C171.161 35.2575 171.192 35.2938 171.213 35.3407L171.213 35.3406Z" fill="black"/>
<path d="M172.734 34.9922V35.2119H172.99V35.3889H172.734V35.7176C172.734 35.7536 172.742 35.7777 172.756 35.7903C172.77 35.803 172.798 35.8093 172.84 35.8093H172.968V35.9863H172.756C172.658 35.9863 172.588 35.9662 172.547 35.9255C172.506 35.8844 172.486 35.8152 172.486 35.7176V35.3889H172.364V35.2119H172.486V34.9922H172.734Z" fill="black"/>
<path d="M173.919 35.5147V35.9864H173.671V35.6269C173.671 35.5589 173.669 35.5123 173.666 35.487C173.663 35.4617 173.657 35.4432 173.65 35.4309C173.64 35.4151 173.627 35.4029 173.61 35.3938C173.594 35.3849 173.575 35.3803 173.554 35.3803C173.503 35.3803 173.462 35.4005 173.433 35.4404C173.403 35.4799 173.388 35.535 173.388 35.6056V35.9864H173.141V34.9102H173.388V35.325C173.426 35.2804 173.465 35.2472 173.507 35.2255C173.549 35.2039 173.595 35.1931 173.646 35.1931C173.736 35.1931 173.803 35.2207 173.85 35.276C173.896 35.3309 173.919 35.4104 173.919 35.5147V35.5147Z" fill="black"/>
<path d="M174.922 35.5967V35.6678H174.343C174.349 35.7259 174.37 35.7693 174.406 35.7982C174.442 35.8272 174.492 35.8417 174.557 35.8417C174.609 35.8417 174.662 35.8341 174.717 35.8187C174.771 35.8029 174.827 35.7796 174.885 35.7484V35.9388C174.826 35.961 174.768 35.9776 174.709 35.9886C174.651 36.0001 174.592 36.006 174.534 36.006C174.394 36.006 174.285 35.9705 174.207 35.8993C174.129 35.8282 174.091 35.7284 174.091 35.5998C174.091 35.4734 174.129 35.3742 174.205 35.3019C174.281 35.2292 174.386 35.1929 174.52 35.1929C174.641 35.1929 174.739 35.2298 174.812 35.3035C174.885 35.3768 174.922 35.4746 174.922 35.5967L174.922 35.5967ZM174.668 35.5145C174.668 35.4677 174.654 35.4299 174.626 35.4015C174.599 35.3726 174.563 35.358 174.519 35.358C174.471 35.358 174.432 35.3715 174.402 35.3983C174.372 35.4252 174.353 35.4639 174.346 35.5145H174.668Z" fill="black"/>
<path d="M175.614 34.9541H175.911L176.286 35.6621V34.9541H176.538V35.9861H176.241L175.866 35.2781V35.9861H175.614V34.9541Z" fill="black"/>
<path d="M177.156 35.3699C177.101 35.3699 177.059 35.3896 177.03 35.4292C177.001 35.4687 176.987 35.5256 176.987 35.5998C176.987 35.6741 177.001 35.731 177.03 35.7705C177.059 35.8096 177.101 35.829 177.156 35.829C177.21 35.829 177.251 35.8096 177.279 35.7705C177.308 35.731 177.323 35.6741 177.323 35.5998C177.323 35.5256 177.308 35.4687 177.279 35.4292C177.251 35.3896 177.21 35.3699 177.156 35.3699V35.3699ZM177.156 35.1929C177.289 35.1929 177.393 35.229 177.468 35.3011C177.543 35.3728 177.58 35.4724 177.58 35.5998C177.58 35.7269 177.543 35.8264 177.468 35.8985C177.393 35.9703 177.289 36.006 177.156 36.006C177.022 36.006 176.918 35.9703 176.842 35.8985C176.767 35.8264 176.729 35.7269 176.729 35.5998C176.729 35.4724 176.767 35.3728 176.842 35.3011C176.918 35.229 177.022 35.1929 177.156 35.1929V35.1929Z" fill="black"/>
<path d="M177.752 35.684V35.2114H178.001V35.2889C178.001 35.3311 178 35.3837 178 35.4469C177.999 35.5101 177.999 35.5524 177.999 35.5733C177.999 35.6362 178.001 35.6812 178.004 35.7085C178.008 35.7359 178.013 35.7557 178.021 35.7677C178.031 35.7841 178.045 35.7968 178.061 35.8057C178.077 35.8142 178.096 35.8183 178.117 35.8183C178.169 35.8183 178.209 35.7986 178.239 35.7591C178.268 35.7195 178.283 35.6646 178.283 35.5939V35.2114H178.53V35.9858H178.283V35.8736C178.245 35.9191 178.206 35.9524 178.164 35.974C178.123 35.9949 178.077 36.0056 178.026 36.0056C177.937 36.0056 177.869 35.9783 177.822 35.9234C177.775 35.8687 177.752 35.7889 177.752 35.684V35.684Z" fill="black"/>
<path d="M179.547 35.5145V35.9862H179.298V35.6251C179.298 35.5583 179.297 35.5121 179.294 35.4868C179.29 35.4615 179.285 35.443 179.278 35.4307C179.268 35.4149 179.255 35.4027 179.238 35.3936C179.222 35.3847 179.203 35.3801 179.182 35.3801C179.13 35.3801 179.09 35.4003 179.06 35.4402C179.031 35.4797 179.016 35.5348 179.016 35.6054V35.9862H178.769V35.2118H179.016V35.3248C179.053 35.2802 179.093 35.247 179.135 35.2253C179.177 35.2037 179.223 35.1929 179.274 35.1929C179.363 35.1929 179.431 35.2205 179.478 35.2758C179.524 35.3308 179.547 35.4102 179.547 35.5145V35.5145Z" fill="black"/>
<path d="M180.281 34.9541H180.723C180.854 34.9541 180.955 34.9833 181.025 35.0418C181.095 35.0999 181.131 35.1829 181.131 35.2907C181.131 35.3988 181.095 35.482 181.025 35.5405C180.955 35.5989 180.854 35.6282 180.723 35.6282H180.547V35.9861H180.281V34.9541ZM180.547 35.1469V35.4354H180.694C180.746 35.4354 180.786 35.4227 180.814 35.3974C180.842 35.3721 180.856 35.3366 180.856 35.2907C180.856 35.2445 180.842 35.2089 180.814 35.1841C180.786 35.1594 180.746 35.1469 180.694 35.1469L180.547 35.1469Z" fill="black"/>
<path d="M181.883 35.4228C181.861 35.4129 181.839 35.4054 181.818 35.4007C181.797 35.3955 181.775 35.3928 181.754 35.3928C181.69 35.3928 181.641 35.4133 181.607 35.4544C181.572 35.4951 181.555 35.5532 181.555 35.6291V35.9862H181.308V35.2118H181.555V35.3391C181.587 35.2885 181.623 35.2517 181.664 35.2284C181.706 35.2047 181.755 35.1929 181.813 35.1929C181.821 35.1929 181.83 35.1935 181.84 35.1945C181.85 35.195 181.864 35.1964 181.883 35.1984L181.883 35.4228Z" fill="black"/>
<path d="M182.374 35.3699C182.319 35.3699 182.277 35.3896 182.249 35.4292C182.22 35.4687 182.205 35.5256 182.205 35.5998C182.205 35.6741 182.22 35.731 182.249 35.7705C182.277 35.8096 182.319 35.829 182.374 35.829C182.428 35.829 182.469 35.8096 182.498 35.7705C182.526 35.731 182.541 35.6741 182.541 35.5998C182.541 35.5256 182.526 35.4687 182.498 35.4292C182.469 35.3896 182.428 35.3699 182.374 35.3699V35.3699ZM182.374 35.1929C182.507 35.1929 182.612 35.229 182.686 35.3011C182.761 35.3728 182.799 35.4724 182.799 35.5998C182.799 35.7269 182.761 35.8264 182.686 35.8985C182.612 35.9703 182.507 36.006 182.374 36.006C182.24 36.006 182.136 35.9703 182.061 35.8985C181.985 35.8264 181.948 35.7269 181.948 35.5998C181.948 35.4724 181.985 35.3728 182.061 35.3011C182.136 35.229 182.24 35.1929 182.374 35.1929V35.1929Z" fill="black"/>
<path d="M182.979 35.212H183.226V35.9722C183.226 36.0759 183.201 36.1552 183.151 36.2101C183.102 36.2648 183.029 36.2923 182.935 36.2923H182.812V36.1295H182.856C182.902 36.1295 182.935 36.1188 182.952 36.0979C182.97 36.0767 182.979 36.0348 182.979 35.9722L182.979 35.212ZM182.979 34.9102H183.226V35.1125H182.979V34.9102Z" fill="black"/>
<path d="M184.237 35.5967V35.6678H183.658C183.664 35.7259 183.685 35.7693 183.721 35.7982C183.757 35.8272 183.807 35.8417 183.872 35.8417C183.924 35.8417 183.977 35.8341 184.032 35.8187C184.086 35.8029 184.143 35.7796 184.2 35.7484V35.9388C184.142 35.961 184.083 35.9776 184.025 35.9886C183.966 36.0001 183.908 36.006 183.849 36.006C183.709 36.006 183.6 35.9705 183.522 35.8993C183.445 35.8282 183.406 35.7284 183.406 35.5998C183.406 35.4734 183.444 35.3742 183.52 35.3019C183.597 35.2292 183.702 35.1929 183.835 35.1929C183.957 35.1929 184.054 35.2298 184.127 35.3035C184.2 35.3768 184.237 35.4746 184.237 35.5967L184.237 35.5967ZM183.983 35.5145C183.983 35.4677 183.969 35.4299 183.942 35.4015C183.914 35.3726 183.878 35.358 183.834 35.358C183.786 35.358 183.747 35.3715 183.717 35.3983C183.687 35.4252 183.668 35.4639 183.661 35.5145H183.983Z" fill="black"/>
<path d="M185.05 35.2363V35.4378C185.017 35.4147 184.983 35.3975 184.949 35.3865C184.915 35.3754 184.88 35.3699 184.844 35.3699C184.775 35.3699 184.721 35.3902 184.682 35.4307C184.643 35.4708 184.624 35.5271 184.624 35.5998C184.624 35.6721 184.643 35.7284 184.682 35.7689C184.721 35.8091 184.775 35.829 184.844 35.829C184.882 35.829 184.919 35.8235 184.954 35.8124C184.988 35.801 185.02 35.7838 185.05 35.761V35.9633C185.011 35.9776 184.972 35.988 184.932 35.995C184.893 36.0023 184.853 36.006 184.812 36.006C184.672 36.006 184.563 35.9703 184.484 35.8985C184.406 35.827 184.366 35.7275 184.366 35.5998C184.366 35.4718 184.406 35.3721 184.484 35.3003C184.563 35.2288 184.672 35.1929 184.812 35.1929C184.853 35.1929 184.893 35.1966 184.932 35.2039C184.972 35.2108 185.011 35.2217 185.05 35.2363V35.2363Z" fill="black"/>
<path d="M185.534 34.9922V35.2119H185.79V35.3889H185.534V35.7176C185.534 35.7536 185.542 35.7777 185.556 35.7903C185.57 35.803 185.598 35.8093 185.64 35.8093H185.768V35.9863H185.556C185.458 35.9863 185.388 35.9662 185.347 35.9255C185.306 35.8844 185.286 35.8152 185.286 35.7176V35.3889H185.164V35.2119H185.286V34.9922H185.534Z" fill="black"/>
</mask>
<g mask="url(#mask0_390_11)">
<rect x="166.673" y="1.05566" width="30.9181" height="31.1541" fill="#D5A67B"/>
</g>
</g>
<g filter="url(#filter1_f_390_11)">
<path d="M167.112 515.57C167.045 515.637 166.855 515.671 166.542 515.671C166.229 515.671 165.916 515.514 165.603 515.201C167.213 512.452 168.699 510.016 170.062 507.893C168.14 504.831 167.023 501.97 166.71 499.31L167.548 498.74L170.23 500.081C170.453 501.735 170.967 503.479 171.772 505.311C173.448 502.83 174.879 500.852 176.063 499.377L178.779 498.908L179.516 499.444C176.946 502.372 174.722 505.088 172.845 507.591C174.164 510.139 175.896 512.799 178.041 515.57C178.041 515.726 177.929 515.805 177.706 515.805C176.991 515.805 176.499 515.693 176.231 515.469C174.398 513.704 172.733 511.782 171.236 509.703C169.582 511.983 168.207 513.938 167.112 515.57Z" fill="#D5A67B"/>
<path d="M167.112 515.57L167.321 515.779L167.341 515.758L167.357 515.734L167.112 515.57ZM165.603 515.201L165.349 515.052L165.234 515.249L165.395 515.41L165.603 515.201ZM170.062 507.893L170.311 508.052L170.412 507.894L170.312 507.736L170.062 507.893ZM166.71 499.31L166.544 499.066L166.396 499.167L166.417 499.345L166.71 499.31ZM167.548 498.74L167.68 498.476L167.525 498.399L167.382 498.496L167.548 498.74ZM170.23 500.081L170.522 500.042L170.501 499.887L170.362 499.817L170.23 500.081ZM171.772 505.311L171.502 505.43L171.717 505.92L172.017 505.476L171.772 505.311ZM176.063 499.377L176.013 499.087L175.903 499.106L175.833 499.193L176.063 499.377ZM178.779 498.908L178.952 498.669L178.851 498.596L178.729 498.617L178.779 498.908ZM179.516 499.444L179.738 499.639L179.951 499.396L179.69 499.206L179.516 499.444ZM172.845 507.591L172.609 507.414L172.498 507.562L172.583 507.727L172.845 507.591ZM178.041 515.57H178.336V515.469L178.275 515.389L178.041 515.57ZM176.231 515.469L176.026 515.682L176.034 515.689L176.042 515.696L176.231 515.469ZM171.236 509.703L171.475 509.531L171.237 509.2L170.997 509.53L171.236 509.703ZM166.903 515.361C166.925 515.339 166.941 515.335 166.931 515.339C166.923 515.342 166.903 515.349 166.868 515.355C166.797 515.367 166.691 515.375 166.542 515.375V515.966C166.707 515.966 166.852 515.957 166.971 515.936C167.074 515.918 167.219 515.881 167.321 515.779L166.903 515.361ZM166.542 515.375C166.335 515.375 166.093 515.273 165.812 514.993L165.395 515.41C165.74 515.755 166.123 515.966 166.542 515.966V515.375ZM165.858 515.35C167.466 512.604 168.95 510.171 170.311 508.052L169.814 507.733C168.448 509.861 166.96 512.3 165.349 515.052L165.858 515.35ZM170.312 507.736C168.406 504.699 167.309 501.88 167.003 499.276L166.417 499.345C166.736 502.06 167.875 504.963 169.812 508.05L170.312 507.736ZM166.876 499.554L167.714 498.984L167.382 498.496L166.544 499.066L166.876 499.554ZM167.416 499.004L170.098 500.345L170.362 499.817L167.68 498.476L167.416 499.004ZM169.938 500.121C170.165 501.807 170.688 503.577 171.502 505.43L172.042 505.193C171.247 503.38 170.741 501.664 170.522 500.042L169.938 500.121ZM172.017 505.476C173.691 502.999 175.116 501.028 176.293 499.562L175.833 499.193C174.642 500.677 173.206 502.662 171.528 505.146L172.017 505.476ZM176.114 499.668L178.829 499.199L178.729 498.617L176.013 499.087L176.114 499.668ZM178.605 499.147L179.343 499.683L179.69 499.206L178.952 498.669L178.605 499.147ZM179.295 499.25C176.721 502.182 174.492 504.903 172.609 507.414L173.081 507.768C174.953 505.272 177.172 502.563 179.738 499.639L179.295 499.25ZM172.583 507.727C173.911 510.293 175.654 512.968 177.808 515.751L178.275 515.389C176.138 512.629 174.416 509.984 173.107 507.455L172.583 507.727ZM177.746 515.57C177.746 515.574 177.746 515.563 177.754 515.546C177.763 515.527 177.777 515.512 177.788 515.504C177.798 515.497 177.8 515.499 177.786 515.503C177.771 515.506 177.746 515.51 177.706 515.51V516.1C177.843 516.1 177.999 516.077 178.127 515.988C178.274 515.885 178.336 515.728 178.336 515.57H177.746ZM177.706 515.51C176.999 515.51 176.602 515.395 176.42 515.243L176.042 515.696C176.396 515.991 176.982 516.1 177.706 516.1V515.51ZM176.436 515.257C174.616 513.504 172.962 511.595 171.475 509.531L170.996 509.875C172.504 511.968 174.181 513.904 176.026 515.682L176.436 515.257ZM170.997 509.53C169.342 511.811 167.965 513.77 166.867 515.406L167.357 515.734C168.45 514.107 169.822 512.154 171.474 509.876L170.997 509.53Z" fill="#1F1F1F" fill-opacity="0.8"/>
</g>
<g filter="url(#filter2_df_390_11)">
<path d="M183.5 78.5C183.5 132.5 73 53 85 120.5M73 174.5C73 174.5 13.3951 218.235 104 213.5C194.605 208.765 141.5 198.5 183.5 167.5C225.5 136.5 271.5 155.5 271.5 196M258 266C258 301.5 227.206 274 183.5 266C139.794 258 48.3756 192.182 73 273M271.5 365C271.5 330.72 371.5 297.543 352.5 308C333.5 318.457 280.5 354 224 328.5M258 450C237.164 537.764 91.2804 366.5 51.5 370.5C11.7195 374.5 -12.9894 437.77 23 460.5C58.9894 483.23 172.5 448 172.5 486.5" stroke="url(#paint0_linear_390_11)" stroke-width="4.41975" stroke-linecap="round" stroke-linejoin="round" stroke-dasharray="23.6 23.6" shape-rendering="crispEdges"/>
</g>
<defs>
<filter id="filter0_f_390_11" x="165.41" y="0.737213" width="33.4437" height="32.7355" filterUnits="userSpaceOnUse" color-interpolation-filters="sRGB">
<feFlood flood-opacity="0" result="BackgroundImageFix"/>
<feBlend mode="normal" in="SourceGraphic" in2="BackgroundImageFix" result="shape"/>
<feGaussianBlur stdDeviation="0.631393" result="effect1_foregroundBlur_390_11"/>
</filter>
<filter id="filter1_f_390_11" x="164.341" y="497.477" width="16.4384" height="19.59" filterUnits="userSpaceOnUse" color-interpolation-filters="sRGB">
<feFlood flood-opacity="0" result="BackgroundImageFix"/>
<feBlend mode="normal" in="SourceGraphic" in2="BackgroundImageFix" result="shape"/>
<feGaussianBlur stdDeviation="0.631393" result="effect1_foregroundBlur_390_11"/>
</filter>
<filter id="filter2_df_390_11" x="0.387582" y="73.3398" width="359.674" height="418.32" filterUnits="userSpaceOnUse" color-interpolation-filters="sRGB">
<feFlood flood-opacity="0" result="BackgroundImageFix"/>
<feColorMatrix in="SourceAlpha" type="matrix" values="0 0 0 0 0 0 0 0 0 0 0 0 0 0 0 0 0 0 127 0" result="hardAlpha"/>
<feOffset/>
<feGaussianBlur stdDeviation="1.4751"/>
<feComposite in2="hardAlpha" operator="out"/>
<feColorMatrix type="matrix" values="0 0 0 0 0.121569 0 0 0 0 0.121569 0 0 0 0 0.121569 0 0 0 1 0"/>
<feBlend mode="normal" in2="BackgroundImageFix" result="effect1_dropShadow_390_11"/>
<feBlend mode="normal" in="SourceGraphic" in2="effect1_dropShadow_390_11" result="shape"/>
<feGaussianBlur stdDeviation="1.10494" result="effect2_foregroundBlur_390_11"/>
</filter>
<linearGradient id="paint0_linear_390_11" x1="5.54766" y1="280.267" x2="357.247" y2="280.267" gradientUnits="userSpaceOnUse">
<stop stop-color="#DB9865"/>
<stop offset="1" stop-color="#A8622C" stop-opacity="0.48"/>
</linearGradient>
</defs>
</svg>
