<svg width="66" height="76" viewBox="0 0 66 76" fill="none" xmlns="http://www.w3.org/2000/svg"><path d="M48.8985 2l-38.3928.15139c-.0263.00011-.0476.02147-.0476.04779V13.52M48.8985 2v15.868c0 .0264.0214.0478.0478.0478h15.0538M48.8985 2l15.1016 15.9158m0 0v56.0364c0 .0264-.0214.0478-.0478.0478H10.5059c-.0264 0-.0478-.0214-.0478-.0478V32.3158m9.9152 10.3074h32.7964m-32.7964 8.64h32.7964m-32.7964 8.7915h32.7964" stroke="url(#paint0_linear_316_274)" stroke-width="3.375" stroke-linecap="round" stroke-linejoin="round"/><path d="M1.04778 13.9746H40.0028c.0263 0 .0477.0214.0477.0478v17.7907c0 .0264-.0214.0478-.0477.0478H9.08468v6.418c0 .0402-.04652.0624-.07777.0372L1 31.8609V14.0224c0-.0264.02139-.0478.04778-.0478z" fill="#EB3D3D"/><path d="M9.08468 31.8609H40.0027c.0264 0 .0478-.0214.0478-.0478V14.0224c0-.0264-.0214-.0478-.0477-.0478H1.04778c-.02639 0-.04778.0214-.04778.0478v17.8385m8.08468 0v6.418c0 .0402-.04652.0624-.07777.0372L1 31.8609m8.08468 0H1" stroke="url(#paint1_linear_316_274)" stroke-width=".610169" stroke-linecap="round" stroke-linejoin="round"/><text fill="#fff" style="white-space:pre" font-family="Mukta" font-size="17.0847" letter-spacing="0em"><tspan x="6.18665" y="28.2934">PDF</tspan></text><defs><linearGradient id="paint0_linear_316_274" x1="10.4581" y1="37.606" x2="64.3597" y2="37.606" gradientUnits="userSpaceOnUse"><stop stop-color="#DB9865"/><stop offset="1" stop-color="#A8622C" stop-opacity=".48"/></linearGradient><linearGradient id="paint1_linear_316_274" x1="1" y1="26.0432" x2="40.3128" y2="26.0432" gradientUnits="userSpaceOnUse"><stop stop-color="#DB9865"/><stop offset="1" stop-color="#A8622C" stop-opacity=".48"/></linearGradient></defs></svg>