<svg width="788" height="804" viewBox="0 0 788 804" fill="none" xmlns="http://www.w3.org/2000/svg">
<g filter="url(#filter0_f_325_159)">
<mask id="mask0_325_159" style="mask-type:alpha" maskUnits="userSpaceOnUse" x="394" y="2" width="57" height="57">
<path d="M422.035 5.58838C415.841 5.58838 410.821 10.6034 410.821 16.8056C410.821 18.2299 411.231 20.0459 411.713 21.2985L422.035 43.2676L432.357 21.2985C432.841 20.0456 433.249 18.2302 433.249 16.8056C433.249 10.6038 428.229 5.58838 422.035 5.58838H422.035ZM422.035 12.7655C424.287 12.7655 426.113 14.5412 426.113 16.7318C426.113 18.9224 424.287 20.698 422.035 20.698C419.783 20.698 417.957 18.9224 417.957 16.7318C417.957 14.5412 419.783 12.7655 422.035 12.7655Z" fill="black"/>
<path d="M401.11 53.4951C401.033 53.5352 400.951 53.5652 400.867 53.5853C400.784 53.6059 400.696 53.6165 400.604 53.6165C400.332 53.6165 400.117 53.5408 399.957 53.3888C399.798 53.2361 399.718 53.0295 399.718 52.7692C399.718 52.5083 399.798 52.3018 399.957 52.1497C400.117 51.997 400.332 51.9207 400.604 51.9207C400.696 51.9207 400.784 51.9313 400.867 51.9519C400.951 51.972 401.033 52.002 401.11 52.0421V52.38C401.032 52.3274 400.954 52.2886 400.879 52.2636C400.803 52.2386 400.722 52.226 400.638 52.226C400.488 52.226 400.37 52.2745 400.284 52.3712C400.198 52.4673 400.155 52.6 400.155 52.7692C400.155 52.9379 400.198 53.0705 400.284 53.1672C400.37 53.2633 400.488 53.3112 400.638 53.3112C400.722 53.3112 400.803 53.2993 400.879 53.2749C400.954 53.2498 401.032 53.2107 401.11 53.1572V53.4951Z" fill="black"/>
<path d="M402.353 52.6913C402.318 52.6757 402.283 52.6638 402.249 52.6563C402.216 52.6481 402.182 52.6438 402.148 52.6438C402.047 52.6438 401.969 52.6763 401.915 52.7414C401.861 52.8058 401.834 52.8978 401.834 53.018V53.5837H401.442V52.3572H401.834V52.5587C401.884 52.4786 401.941 52.4204 402.006 52.3835C402.072 52.3459 402.151 52.3271 402.242 52.3271C402.255 52.3271 402.269 52.3281 402.284 52.3297C402.3 52.3306 402.322 52.3328 402.352 52.3359L402.353 52.6913Z" fill="black"/>
<path d="M403.772 52.9667V53.0793H402.855C402.865 53.1713 402.898 53.2402 402.955 53.2858C403.012 53.3318 403.092 53.3547 403.194 53.3547C403.277 53.3547 403.361 53.3428 403.447 53.3184C403.534 53.2934 403.623 53.2564 403.714 53.207V53.5086C403.621 53.5437 403.528 53.57 403.436 53.5875C403.343 53.6056 403.251 53.615 403.158 53.615C402.936 53.615 402.763 53.5587 402.64 53.446C402.517 53.3334 402.456 53.1754 402.456 52.9717C402.456 52.7714 402.516 52.6144 402.637 52.4999C402.758 52.3847 402.924 52.3271 403.135 52.3271C403.328 52.3271 403.482 52.3857 403.598 52.5024C403.714 52.6184 403.772 52.7733 403.772 52.9667L403.772 52.9667ZM403.369 52.8365C403.369 52.7624 403.348 52.7026 403.304 52.6576C403.261 52.6119 403.204 52.5887 403.134 52.5887C403.058 52.5887 402.996 52.61 402.949 52.6526C402.901 52.6951 402.872 52.7564 402.86 52.8365H403.369Z" fill="black"/>
<path d="M404.619 53.0318C404.537 53.0318 404.475 53.0456 404.434 53.0731C404.393 53.1006 404.372 53.1416 404.372 53.1957C404.372 53.2458 404.389 53.2852 404.422 53.3134C404.455 53.3409 404.501 53.3547 404.56 53.3547C404.634 53.3547 404.696 53.3284 404.746 53.2758C404.797 53.2227 404.823 53.1563 404.823 53.0768V53.0318L404.619 53.0318ZM405.217 52.8841V53.5837H404.823V53.4023C404.77 53.4767 404.711 53.5309 404.645 53.565C404.579 53.5981 404.499 53.615 404.405 53.615C404.278 53.615 404.175 53.5784 404.096 53.5049C404.016 53.4307 403.977 53.3344 403.977 53.2158C403.977 53.0725 404.026 52.9673 404.124 52.9004C404.224 52.8328 404.379 52.799 404.591 52.799H404.823V52.7677C404.823 52.7061 404.798 52.661 404.749 52.6325C404.699 52.6034 404.623 52.5887 404.52 52.5887C404.435 52.5887 404.357 52.5972 404.285 52.6138C404.213 52.6307 404.146 52.6557 404.084 52.6889V52.3897C404.168 52.3697 404.251 52.3544 404.336 52.3434C404.421 52.3328 404.506 52.3271 404.591 52.3271C404.812 52.3271 404.972 52.371 405.069 52.4586C405.168 52.5455 405.217 52.6873 405.217 52.8841L405.217 52.8841Z" fill="black"/>
<path d="M406.011 52.0105V52.3584H406.415V52.6388H406.011V53.1594C406.011 53.2164 406.022 53.2546 406.045 53.2746C406.067 53.2946 406.112 53.3046 406.179 53.3046H406.38V53.585H406.045C405.89 53.585 405.779 53.5531 405.714 53.4886C405.65 53.4235 405.618 53.314 405.618 53.1594V52.6388H405.424V52.3584H405.618V52.0105H406.011Z" fill="black"/>
<path d="M407.879 52.9667V53.0793H406.962C406.972 53.1713 407.005 53.2402 407.062 53.2858C407.119 53.3318 407.198 53.3547 407.301 53.3547C407.384 53.3547 407.468 53.3428 407.554 53.3184C407.641 53.2934 407.729 53.2564 407.82 53.207V53.5086C407.728 53.5437 407.635 53.57 407.543 53.5875C407.45 53.6056 407.357 53.615 407.265 53.615C407.043 53.615 406.87 53.5587 406.747 53.446C406.624 53.3334 406.563 53.1754 406.563 52.9717C406.563 52.7714 406.623 52.6144 406.744 52.4999C406.865 52.3847 407.031 52.3271 407.242 52.3271C407.435 52.3271 407.589 52.3857 407.705 52.5024C407.821 52.6184 407.879 52.7733 407.879 52.9667L407.879 52.9667ZM407.476 52.8365C407.476 52.7624 407.454 52.7026 407.411 52.6576C407.368 52.6119 407.311 52.5887 407.241 52.5887C407.165 52.5887 407.103 52.61 407.056 52.6526C407.008 52.6951 406.978 52.7564 406.967 52.8365H407.476Z" fill="black"/>
<path d="M409.01 52.537V51.8799H409.404V53.5845H409.01V53.4068C408.956 53.4794 408.897 53.5326 408.832 53.5657C408.767 53.5989 408.691 53.6158 408.606 53.6158C408.454 53.6158 408.33 53.5557 408.234 53.4356C408.137 53.3154 408.089 53.1612 408.089 52.9725C408.089 52.7832 408.137 52.6283 408.234 52.5082C408.33 52.388 408.454 52.3279 408.606 52.3279C408.691 52.3279 408.766 52.3451 408.831 52.3792C408.897 52.4137 408.956 52.4662 409.01 52.5369V52.537ZM408.752 53.3317C408.835 53.3317 408.899 53.3014 408.943 53.2403C408.988 53.1787 409.01 53.0895 409.01 52.9725C409.01 52.8558 408.988 52.7669 408.943 52.7059C408.899 52.6443 408.835 52.6133 408.752 52.6133C408.668 52.6133 408.605 52.6443 408.56 52.7059C408.516 52.7669 408.494 52.8558 408.494 52.9725C408.494 53.0895 408.516 53.1787 408.56 53.2403C408.605 53.3014 408.668 53.3317 408.752 53.3317Z" fill="black"/>
<path d="M411.215 53.3317C411.299 53.3317 411.363 53.3013 411.407 53.2403C411.452 53.1787 411.474 53.0895 411.474 52.9725C411.474 52.8558 411.452 52.7669 411.407 52.7059C411.363 52.6443 411.299 52.6133 411.215 52.6133C411.13 52.6133 411.066 52.6443 411.021 52.7059C410.976 52.7679 410.954 52.8567 410.954 52.9725C410.954 53.0886 410.976 53.1774 411.021 53.2391C411.066 53.301 411.13 53.3317 411.215 53.3317V53.3317ZM410.954 52.5369C411.008 52.4662 411.068 52.4137 411.133 52.3792C411.199 52.3451 411.275 52.3279 411.36 52.3279C411.512 52.3279 411.636 52.388 411.733 52.5082C411.83 52.6283 411.878 52.7832 411.878 52.9725C411.878 53.1612 411.83 53.3154 411.733 53.4356C411.636 53.5557 411.512 53.6158 411.36 53.6158C411.275 53.6158 411.199 53.5989 411.133 53.5657C411.068 53.5316 411.008 53.4787 410.954 53.4068V53.5845H410.563V51.8799H410.954V52.5369Z" fill="black"/>
<path d="M412.006 52.3579H412.398L412.729 53.1902L413.009 52.3579H413.401L412.885 53.7009C412.833 53.8367 412.773 53.9318 412.703 53.9862C412.634 54.0413 412.543 54.0688 412.431 54.0688H412.203V53.811H412.325C412.392 53.811 412.441 53.8001 412.471 53.7785C412.501 53.7575 412.525 53.72 412.542 53.6658L412.553 53.632L412.006 52.3579Z" fill="black"/>
<path d="M414.96 53.0318C414.878 53.0318 414.816 53.0456 414.775 53.0731C414.734 53.1006 414.713 53.1416 414.713 53.1957C414.713 53.2458 414.73 53.2852 414.764 53.3134C414.797 53.3409 414.843 53.3547 414.901 53.3547C414.975 53.3547 415.038 53.3284 415.088 53.2758C415.138 53.2227 415.164 53.1563 415.164 53.0768V53.0318L414.96 53.0318ZM415.558 52.8841V53.5837H415.164V53.4023C415.111 53.4767 415.052 53.5309 414.986 53.565C414.92 53.5981 414.84 53.615 414.746 53.615C414.619 53.615 414.516 53.5784 414.437 53.5049C414.357 53.4307 414.318 53.3344 414.318 53.2158C414.318 53.0725 414.367 52.9673 414.466 52.9004C414.565 52.8328 414.72 52.799 414.933 52.799H415.164V52.7677C415.164 52.7061 415.139 52.661 415.09 52.6325C415.041 52.6034 414.964 52.5887 414.861 52.5887C414.777 52.5887 414.698 52.5972 414.626 52.6138C414.554 52.6307 414.487 52.6557 414.426 52.6889V52.3897C414.509 52.3697 414.593 52.3544 414.677 52.3434C414.762 52.3328 414.847 52.3271 414.933 52.3271C415.153 52.3271 415.313 52.371 415.411 52.4586C415.509 52.5455 415.558 52.6873 415.558 52.8841L415.558 52.8841Z" fill="black"/>
<path d="M416.835 52.6913C416.8 52.6757 416.765 52.6638 416.731 52.6563C416.697 52.6481 416.664 52.6438 416.63 52.6438C416.529 52.6438 416.451 52.6763 416.397 52.7414C416.342 52.8058 416.315 52.8978 416.315 53.018V53.5837H415.924V52.3572H416.315V52.5587C416.366 52.4786 416.423 52.4204 416.488 52.3835C416.554 52.3459 416.632 52.3271 416.723 52.3271C416.737 52.3271 416.751 52.3281 416.766 52.3297C416.782 52.3306 416.804 52.3328 416.834 52.3359L416.835 52.6913Z" fill="black"/>
<path d="M417.458 52.0105V52.3584H417.863V52.6388H417.458V53.1594C417.458 53.2164 417.47 53.2546 417.492 53.2746C417.515 53.2946 417.559 53.3046 417.626 53.3046H417.828V53.585H417.492C417.337 53.585 417.227 53.5531 417.162 53.4886C417.097 53.4235 417.065 53.314 417.065 53.1594V52.6388H416.871V52.3584H417.065V52.0105H417.458Z" fill="black"/>
<path d="M419.84 52.396V52.6939C419.757 52.6588 419.676 52.6325 419.598 52.615C419.519 52.5975 419.445 52.5887 419.376 52.5887C419.302 52.5887 419.246 52.5981 419.21 52.6163C419.174 52.6347 419.156 52.6635 419.156 52.7026C419.156 52.7336 419.17 52.7574 419.197 52.774C419.225 52.7909 419.274 52.8034 419.345 52.8115L419.414 52.8215C419.615 52.8475 419.75 52.8897 419.819 52.9479C419.888 53.0064 419.923 53.0978 419.923 53.222C419.923 53.3531 419.875 53.4517 419.778 53.5174C419.682 53.5825 419.538 53.615 419.347 53.615C419.265 53.615 419.181 53.6088 419.095 53.5962C419.008 53.5837 418.92 53.5646 418.829 53.5387V53.2408C418.907 53.2793 418.986 53.3081 419.068 53.3272C419.151 53.3456 419.235 53.3547 419.32 53.3547C419.396 53.3547 419.454 53.3444 419.493 53.3234C419.531 53.3018 419.55 53.2702 419.55 53.2283C419.55 53.1932 419.537 53.1676 419.51 53.1507C419.483 53.1332 419.43 53.12 419.351 53.1106L419.282 53.1019C419.108 53.0803 418.986 53.0399 418.916 52.9805C418.845 52.9213 418.81 52.8315 418.81 52.7114C418.81 52.5812 418.855 52.4849 418.943 52.4223C419.032 52.3591 419.169 52.3271 419.354 52.3271C419.425 52.3271 419.501 52.3331 419.58 52.3447C419.66 52.3556 419.747 52.3728 419.84 52.396L419.84 52.396Z" fill="black"/>
<path d="M421.451 52.8373V53.5845H421.057V53.015C421.057 52.9074 421.054 52.8336 421.049 52.7935C421.044 52.7535 421.036 52.7241 421.024 52.7047C421.009 52.6796 420.988 52.6602 420.962 52.6458C420.936 52.6317 420.906 52.6246 420.873 52.6246C420.791 52.6246 420.727 52.6565 420.68 52.7197C420.633 52.7823 420.61 52.8695 420.61 52.9812V53.5845H420.218V51.8799H420.61V52.537C420.669 52.4662 420.732 52.4137 420.798 52.3793C420.864 52.3451 420.938 52.3279 421.018 52.3279C421.16 52.3279 421.267 52.3717 421.341 52.4594C421.414 52.5463 421.451 52.6721 421.451 52.8373V52.8373Z" fill="black"/>
<path d="M422.398 52.6075C422.311 52.6075 422.245 52.6388 422.199 52.7014C422.153 52.7639 422.13 52.8541 422.13 52.9717C422.13 53.0894 422.153 53.1795 422.199 53.242C422.245 53.304 422.311 53.3347 422.398 53.3347C422.483 53.3347 422.548 53.304 422.593 53.242C422.639 53.1795 422.662 53.0894 422.662 52.9717C422.662 52.8541 422.639 52.7639 422.593 52.7014C422.548 52.6388 422.483 52.6075 422.398 52.6075V52.6075ZM422.398 52.3271C422.609 52.3271 422.774 52.3844 422.892 52.4986C423.011 52.6122 423.07 52.7699 423.07 52.9717C423.07 53.1729 423.011 53.3306 422.892 53.4448C422.774 53.5584 422.609 53.615 422.398 53.615C422.186 53.615 422.02 53.5584 421.901 53.4448C421.781 53.3306 421.722 53.1729 421.722 52.9717C421.722 52.7699 421.781 52.6122 421.901 52.4986C422.02 52.3844 422.186 52.3271 422.398 52.3271V52.3271Z" fill="black"/>
<path d="M423.747 53.406V54.0506H423.356V52.3572H423.747V52.5362C423.802 52.4655 423.861 52.4129 423.926 52.3785C423.992 52.3444 424.068 52.3271 424.153 52.3271C424.305 52.3271 424.429 52.3872 424.526 52.5074C424.623 52.6275 424.671 52.7824 424.671 52.9717C424.671 53.1604 424.623 53.3146 424.526 53.4348C424.429 53.5549 424.305 53.615 424.153 53.615C424.068 53.615 423.992 53.5981 423.926 53.5649C423.861 53.5308 423.802 53.478 423.747 53.406V53.406ZM424.008 52.6125C423.923 52.6125 423.859 52.6435 423.814 52.7052C423.769 52.7671 423.747 52.856 423.747 52.9717C423.747 53.0878 423.769 53.1767 423.814 53.2383C423.859 53.3003 423.923 53.3309 424.008 53.3309C424.092 53.3309 424.156 53.3006 424.201 53.2396C424.245 53.1779 424.267 53.0888 424.267 52.9717C424.267 52.855 424.245 52.7662 424.201 52.7051C424.156 52.6435 424.092 52.6125 424.008 52.6125V52.6125Z" fill="black"/>
<path d="M400.602 54.1228V54.3806H400.386C400.331 54.3806 400.292 54.3906 400.269 54.4107C400.247 54.4307 400.237 54.4657 400.237 54.5158V54.6009H400.572V54.8813H400.237V55.8274H399.845V54.8813H399.65V54.6009H399.845V54.5158C399.845 54.3825 399.882 54.2836 399.956 54.2192C400.03 54.155 400.146 54.1228 400.303 54.1228L400.602 54.1228Z" fill="black"/>
<path d="M401.683 54.9345C401.648 54.9188 401.613 54.9069 401.579 54.8994C401.546 54.8913 401.512 54.8869 401.478 54.8869C401.377 54.8869 401.299 54.9195 401.245 54.9845C401.191 55.049 401.164 55.141 401.164 55.2611V55.8268H400.772V54.6004H401.164V54.8019C401.214 54.7218 401.271 54.6636 401.336 54.6266C401.402 54.5891 401.481 54.5703 401.572 54.5703C401.585 54.5703 401.599 54.5713 401.614 54.5728C401.63 54.5738 401.652 54.5759 401.682 54.5791L401.683 54.9345Z" fill="black"/>
<path d="M402.461 54.8507C402.375 54.8507 402.308 54.882 402.262 54.9445C402.216 55.0071 402.194 55.0972 402.194 55.2149C402.194 55.3325 402.216 55.4226 402.262 55.4852C402.308 55.5472 402.375 55.5778 402.461 55.5778C402.547 55.5778 402.612 55.5472 402.657 55.4852C402.702 55.4226 402.726 55.3325 402.726 55.2149C402.726 55.0972 402.702 55.0071 402.657 54.9445C402.612 54.882 402.547 54.8507 402.461 54.8507V54.8507ZM402.461 54.5703C402.672 54.5703 402.837 54.6276 402.956 54.7418C403.074 54.8554 403.134 55.0131 403.134 55.2149C403.134 55.4161 403.074 55.5738 402.956 55.688C402.837 55.8015 402.672 55.8582 402.461 55.8582C402.249 55.8582 402.084 55.8015 401.965 55.688C401.845 55.5737 401.786 55.4161 401.786 55.2149C401.786 55.0131 401.845 54.8553 401.965 54.7418C402.084 54.6276 402.249 54.5703 402.461 54.5703V54.5703Z" fill="black"/>
<path d="M404.555 54.8044C404.604 54.7286 404.663 54.6704 404.732 54.6304C404.8 54.5903 404.875 54.5703 404.957 54.5703C405.098 54.5703 405.205 54.6141 405.279 54.7017C405.353 54.7887 405.39 54.9145 405.39 55.0797V55.8269H404.996V55.1873V55.1585C404.996 55.1479 404.997 55.1329 404.997 55.1135C404.997 55.0268 404.984 54.9642 404.958 54.9258C404.933 54.8866 404.892 54.8669 404.836 54.8669C404.761 54.8669 404.704 54.8979 404.663 54.9595C404.622 55.0206 404.601 55.1091 404.6 55.2249V55.8269H404.206V55.1873C404.206 55.0515 404.194 54.9642 404.171 54.9257C404.148 54.8866 404.106 54.8669 404.046 54.8669C403.971 54.8669 403.913 54.8979 403.872 54.9595C403.831 55.0205 403.811 55.1085 403.811 55.2236V55.8269H403.416V54.6004H403.811V54.7793C403.859 54.7102 403.914 54.6579 403.976 54.6229C404.038 54.5879 404.107 54.5703 404.182 54.5703C404.267 54.5703 404.343 54.591 404.408 54.6317C404.473 54.6727 404.522 54.7302 404.555 54.8044L404.555 54.8044Z" fill="black"/>
<path d="M406.965 54.2529V54.6009H407.369V54.8812H406.965V55.4019C406.965 55.4588 406.976 55.497 406.999 55.517C407.021 55.537 407.066 55.5471 407.133 55.5471H407.334V55.8274H406.999C406.844 55.8274 406.733 55.7955 406.668 55.731C406.604 55.666 406.572 55.5564 406.572 55.4019V54.8812H406.378V54.6009H406.572V54.2529H406.965Z" fill="black"/>
<path d="M408.842 55.0802V55.8274H408.447V55.258C408.447 55.1503 408.445 55.0765 408.44 55.0364C408.435 54.9964 408.426 54.967 408.415 54.9476C408.4 54.9225 408.379 54.9031 408.352 54.8887C408.326 54.8747 408.297 54.8675 408.263 54.8675C408.181 54.8675 408.117 54.8994 408.071 54.9626C408.024 55.0252 408.001 55.1125 408.001 55.2242V55.8274H407.609V54.1228H408.001V54.7799C408.06 54.7092 408.122 54.6566 408.188 54.6222C408.255 54.5881 408.329 54.5709 408.409 54.5709C408.55 54.5709 408.658 54.6147 408.732 54.7023C408.805 54.7893 408.842 54.915 408.842 55.0802V55.0802Z" fill="black"/>
<path d="M410.429 55.2099V55.3225H409.512C409.522 55.4145 409.555 55.4833 409.612 55.529C409.669 55.575 409.749 55.5978 409.851 55.5978C409.934 55.5978 410.018 55.586 410.104 55.5616C410.191 55.5365 410.28 55.4996 410.371 55.4502V55.7518C410.278 55.7868 410.185 55.8131 410.093 55.8306C410 55.8488 409.908 55.8582 409.815 55.8582C409.593 55.8582 409.42 55.8019 409.297 55.6892C409.174 55.5766 409.113 55.4186 409.113 55.2149C409.113 55.0146 409.173 54.8575 409.294 54.743C409.415 54.6279 409.581 54.5703 409.792 54.5703C409.985 54.5703 410.139 54.6288 410.255 54.7455C410.371 54.8616 410.429 55.0165 410.429 55.2099L410.429 55.2099ZM410.026 55.0797C410.026 55.0055 410.005 54.9458 409.961 54.9007C409.918 54.855 409.861 54.8319 409.791 54.8319C409.715 54.8319 409.653 54.8532 409.606 54.8957C409.558 54.9383 409.529 54.9996 409.517 55.0797H410.026Z" fill="black"/>
<path d="M411.525 54.1921H411.995L412.59 55.3135V54.1921H412.989V55.8267H412.519L411.924 54.7053V55.8267H411.525V54.1921Z" fill="black"/>
<path d="M413.968 54.8507C413.881 54.8507 413.814 54.882 413.769 54.9445C413.723 55.0071 413.7 55.0972 413.7 55.2149C413.7 55.3325 413.723 55.4226 413.769 55.4852C413.814 55.5472 413.881 55.5778 413.968 55.5778C414.053 55.5778 414.118 55.5472 414.163 55.4852C414.209 55.4226 414.232 55.3325 414.232 55.2149C414.232 55.0972 414.209 55.0071 414.163 54.9445C414.118 54.882 414.053 54.8507 413.968 54.8507V54.8507ZM413.968 54.5703C414.179 54.5703 414.344 54.6276 414.462 54.7418C414.58 54.8554 414.64 55.0131 414.64 55.2149C414.64 55.4161 414.58 55.5738 414.462 55.688C414.344 55.8015 414.179 55.8582 413.968 55.8582C413.756 55.8582 413.59 55.8015 413.471 55.688C413.351 55.5737 413.292 55.4161 413.292 55.2149C413.292 55.0131 413.351 54.8553 413.471 54.7418C413.59 54.6276 413.756 54.5703 413.968 54.5703V54.5703Z" fill="black"/>
<path d="M414.911 55.3488V54.6003H415.306V54.723C415.306 54.79 415.305 54.8732 415.304 54.9733C415.304 55.0734 415.303 55.1404 415.303 55.1736C415.303 55.2731 415.306 55.3444 415.311 55.3876C415.316 55.4311 415.325 55.4624 415.337 55.4814C415.354 55.5074 415.375 55.5274 415.401 55.5415C415.427 55.555 415.456 55.5615 415.49 55.5615C415.571 55.5615 415.636 55.5303 415.682 55.4677C415.729 55.4051 415.753 55.3181 415.753 55.2061V54.6003H416.144V55.8268H415.753V55.6491C415.693 55.7211 415.631 55.774 415.565 55.8081C415.499 55.8412 415.426 55.8581 415.346 55.8581C415.205 55.8581 415.097 55.8149 415.023 55.728C414.948 55.6413 414.911 55.5149 414.911 55.3487V55.3488Z" fill="black"/>
<path d="M417.755 55.0797V55.8269H417.361V55.2549C417.361 55.1491 417.358 55.0759 417.353 55.0359C417.348 54.9958 417.34 54.9664 417.328 54.947C417.313 54.922 417.292 54.9026 417.266 54.8882C417.24 54.8741 417.21 54.8669 417.177 54.8669C417.095 54.8669 417.031 54.8988 416.984 54.962C416.937 55.0246 416.914 55.1119 416.914 55.2236V55.8268H416.522V54.6004H416.914V54.7793C416.973 54.7086 417.036 54.656 417.102 54.6216C417.168 54.5875 417.242 54.5703 417.322 54.5703C417.464 54.5703 417.571 54.6141 417.645 54.7017C417.718 54.7887 417.755 54.9145 417.755 55.0797V55.0797Z" fill="black"/>
<path d="M418.917 54.1921H419.617C419.825 54.1921 419.984 54.2384 420.095 54.3311C420.207 54.4231 420.263 54.5545 420.263 54.7253C420.263 54.8965 420.207 55.0282 420.095 55.1208C419.984 55.2134 419.825 55.2597 419.617 55.2597H419.338V55.8267H418.917V54.1921ZM419.338 54.4975V54.9543H419.572C419.653 54.9543 419.716 54.9343 419.761 54.8943C419.806 54.8542 419.828 54.7979 419.828 54.7253C419.828 54.6521 419.806 54.5958 419.761 54.5563C419.716 54.5172 419.653 54.4975 419.572 54.4975L419.338 54.4975Z" fill="black"/>
<path d="M421.455 54.9345C421.42 54.9188 421.385 54.9069 421.351 54.8994C421.317 54.8913 421.284 54.8869 421.25 54.8869C421.149 54.8869 421.071 54.9195 421.017 54.9845C420.962 55.049 420.935 55.141 420.935 55.2611V55.8268H420.544V54.6004H420.935V54.8019C420.986 54.7218 421.043 54.6636 421.108 54.6266C421.174 54.5891 421.252 54.5703 421.343 54.5703C421.357 54.5703 421.371 54.5713 421.386 54.5728C421.402 54.5738 421.424 54.5759 421.454 54.5791L421.455 54.9345Z" fill="black"/>
<path d="M422.232 54.8507C422.145 54.8507 422.079 54.882 422.033 54.9445C421.987 55.0071 421.965 55.0972 421.965 55.2149C421.965 55.3325 421.987 55.4226 422.033 55.4852C422.079 55.5472 422.145 55.5778 422.232 55.5778C422.317 55.5778 422.383 55.5472 422.428 55.4852C422.473 55.4226 422.496 55.3325 422.496 55.2149C422.496 55.0972 422.473 55.0071 422.428 54.9445C422.383 54.882 422.317 54.8507 422.232 54.8507V54.8507ZM422.232 54.5703C422.443 54.5703 422.608 54.6276 422.727 54.7418C422.845 54.8554 422.904 55.0131 422.904 55.2149C422.904 55.4161 422.845 55.5738 422.727 55.688C422.608 55.8015 422.443 55.8582 422.232 55.8582C422.02 55.8582 421.855 55.8015 421.735 55.688C421.616 55.5737 421.557 55.4161 421.557 55.2149C421.557 55.0131 421.616 54.8553 421.735 54.7418C421.855 54.6276 422.02 54.5703 422.232 54.5703V54.5703Z" fill="black"/>
<path d="M423.19 54.6009H423.582V55.8049C423.582 55.9692 423.542 56.0946 423.463 56.1816C423.384 56.2683 423.27 56.3118 423.12 56.3118H422.926V56.054H422.995C423.069 56.054 423.12 56.0371 423.147 56.0039C423.176 55.9704 423.19 55.9041 423.19 55.8049L423.19 54.6009ZM423.19 54.1228H423.582V54.4432H423.19V54.1228Z" fill="black"/>
<path d="M425.183 55.2099V55.3225H424.265C424.275 55.4145 424.309 55.4833 424.366 55.529C424.422 55.575 424.502 55.5978 424.605 55.5978C424.687 55.5978 424.771 55.586 424.857 55.5616C424.944 55.5365 425.033 55.4996 425.124 55.4502V55.7518C425.031 55.7868 424.939 55.8131 424.846 55.8306C424.754 55.8488 424.661 55.8582 424.568 55.8582C424.346 55.8582 424.173 55.8019 424.05 55.6892C423.928 55.5766 423.866 55.4186 423.866 55.2149C423.866 55.0146 423.927 54.8575 424.048 54.743C424.168 54.6279 424.335 54.5703 424.546 54.5703C424.739 54.5703 424.893 54.6288 425.009 54.7455C425.125 54.8616 425.183 55.0165 425.183 55.2099L425.183 55.2099ZM424.78 55.0797C424.78 55.0055 424.758 54.9458 424.715 54.9007C424.671 54.855 424.615 54.8319 424.545 54.8319C424.469 54.8319 424.407 54.8532 424.359 54.8957C424.312 54.9383 424.282 54.9996 424.27 55.0797H424.78Z" fill="black"/>
<path d="M426.47 54.6391V54.9583C426.418 54.9217 426.364 54.8945 426.31 54.8769C426.256 54.8594 426.201 54.8507 426.144 54.8507C426.034 54.8507 425.949 54.8829 425.887 54.947C425.826 55.0105 425.796 55.0997 425.796 55.2149C425.796 55.3294 425.826 55.4186 425.887 55.4827C425.949 55.5462 426.034 55.5778 426.144 55.5778C426.204 55.5778 426.262 55.5691 426.317 55.5515C426.373 55.5334 426.423 55.5062 426.47 55.4702V55.7906C426.409 55.8131 426.347 55.8297 426.284 55.8407C426.221 55.8522 426.158 55.8582 426.093 55.8582C425.872 55.8582 425.699 55.8015 425.574 55.688C425.45 55.5747 425.388 55.417 425.388 55.2149C425.388 55.0121 425.45 54.8541 425.574 54.7405C425.699 54.6273 425.872 54.5703 426.093 54.5703C426.158 54.5703 426.221 54.5763 426.284 54.5878C426.346 54.5988 426.408 54.616 426.47 54.6391V54.6391Z" fill="black"/>
<path d="M427.237 54.2529V54.6009H427.642V54.8812H427.237V55.4019C427.237 55.4588 427.249 55.497 427.271 55.517C427.294 55.537 427.338 55.5471 427.405 55.5471H427.607V55.8274H427.271C427.116 55.8274 427.006 55.7955 426.941 55.731C426.876 55.666 426.845 55.5564 426.845 55.4019V54.8812H426.651V54.6009H426.845V54.2529H427.237Z" fill="black"/>
</mask>
<g mask="url(#mask0_325_159)">
<rect x="397.364" y="0.504639" width="48.9681" height="49.3418" fill="#D5A67B"/>
</g>
</g>
<g filter="url(#filter1_f_325_159)">
<path d="M374.345 769.903C374.239 770.009 373.938 770.062 373.442 770.062C372.947 770.062 372.451 769.814 371.956 769.319C374.504 764.965 376.858 761.106 379.018 757.743C375.973 752.894 374.204 748.363 373.708 744.151L375.035 743.248L379.283 745.372C379.637 747.991 380.451 750.752 381.726 753.655C384.38 749.726 386.646 746.593 388.522 744.257L392.823 743.514L393.991 744.363C389.92 749 386.398 753.301 383.425 757.266C385.513 761.301 388.256 765.513 391.655 769.903C391.655 770.15 391.478 770.274 391.124 770.274C389.991 770.274 389.212 770.097 388.787 769.743C385.885 766.947 383.248 763.903 380.876 760.611C378.257 764.221 376.08 767.319 374.345 769.903Z" fill="#D5A67B"/>
<path d="M374.345 769.903L374.675 770.233L374.708 770.201L374.733 770.163L374.345 769.903ZM371.956 769.319L371.552 769.083L371.37 769.394L371.625 769.649L371.956 769.319ZM379.018 757.743L379.411 757.996L379.571 757.746L379.413 757.495L379.018 757.743ZM373.708 744.151L373.445 743.764L373.211 743.924L373.244 744.205L373.708 744.151ZM375.035 743.248L375.244 742.83L374.999 742.708L374.773 742.862L375.035 743.248ZM379.283 745.372L379.746 745.309L379.713 745.064L379.492 744.954L379.283 745.372ZM381.726 753.655L381.298 753.843L381.638 754.619L382.113 753.917L381.726 753.655ZM388.522 744.257L388.442 743.796L388.268 743.827L388.158 743.964L388.522 744.257ZM392.823 743.514L393.098 743.136L392.938 743.019L392.743 743.053L392.823 743.514ZM393.991 744.363L394.342 744.671L394.68 744.286L394.266 743.985L393.991 744.363ZM383.425 757.266L383.051 756.985L382.875 757.22L383.01 757.48L383.425 757.266ZM391.655 769.903H392.122V769.743L392.024 769.617L391.655 769.903ZM388.787 769.743L388.463 770.08L388.475 770.092L388.488 770.102L388.787 769.743ZM380.876 760.611L381.255 760.338L380.877 759.813L380.498 760.336L380.876 760.611ZM374.015 769.572C374.05 769.537 374.075 769.531 374.059 769.537C374.045 769.542 374.014 769.552 373.959 769.562C373.846 769.582 373.678 769.595 373.442 769.595V770.529C373.703 770.529 373.932 770.516 374.121 770.482C374.285 770.453 374.514 770.395 374.675 770.233L374.015 769.572ZM373.442 769.595C373.115 769.595 372.731 769.433 372.286 768.988L371.625 769.649C372.172 770.195 372.779 770.529 373.442 770.529V769.595ZM372.359 769.555C374.905 765.205 377.256 761.352 379.411 757.996L378.624 757.491C376.461 760.86 374.104 764.724 371.552 769.083L372.359 769.555ZM379.413 757.495C376.394 752.685 374.657 748.22 374.172 744.096L373.244 744.205C373.75 748.506 375.553 753.103 378.622 757.992L379.413 757.495ZM373.971 744.537L375.298 743.634L374.773 742.862L373.445 743.764L373.971 744.537ZM374.826 743.666L379.074 745.79L379.492 744.954L375.244 742.83L374.826 743.666ZM378.82 745.434C379.181 748.105 380.009 750.908 381.298 753.843L382.153 753.467C380.893 750.597 380.093 747.878 379.746 745.309L378.82 745.434ZM382.113 753.917C384.764 749.993 387.021 746.872 388.886 744.549L388.158 743.964C386.27 746.315 383.997 749.459 381.338 753.393L382.113 753.917ZM388.602 744.717L392.902 743.974L392.743 743.053L388.442 743.796L388.602 744.717ZM392.548 743.891L393.716 744.741L394.266 743.985L393.098 743.136L392.548 743.891ZM393.64 744.055C389.563 748.699 386.033 753.009 383.051 756.985L383.798 757.546C386.763 753.593 390.277 749.302 394.342 744.671L393.64 744.055ZM383.01 757.48C385.114 761.546 387.873 765.782 391.285 770.189L392.024 769.617C388.64 765.245 385.913 761.056 383.84 757.051L383.01 757.48ZM391.187 769.903C391.187 769.909 391.186 769.892 391.2 769.864C391.214 769.834 391.235 769.812 391.254 769.799C391.27 769.788 391.273 769.791 391.25 769.796C391.227 769.801 391.186 769.807 391.124 769.807V770.742C391.341 770.742 391.587 770.706 391.79 770.564C392.023 770.401 392.122 770.153 392.122 769.903H391.187ZM391.124 769.807C390.004 769.807 389.375 769.625 389.087 769.384L388.488 770.102C389.049 770.57 389.978 770.742 391.124 770.742V769.807ZM389.112 769.407C386.229 766.63 383.611 763.607 381.255 760.338L380.497 760.884C382.885 764.198 385.54 767.264 388.463 770.08L389.112 769.407ZM380.498 760.336C377.876 763.95 375.696 767.052 373.957 769.642L374.733 770.163C376.463 767.585 378.637 764.493 381.254 760.885L380.498 760.336Z" fill="#1F1F1F" fill-opacity="0.8"/>
</g>
<g filter="url(#filter2_df_325_159)">
<path d="M421.732 60.5003C421.732 60.5003 313 41.5 313 102C313 162.5 392.732 128 407.232 194C421.732 260 276 229 276 229M57.5 271.5C57.5 271.5 190.732 385.5 334.232 378C477.732 370.5 482.732 268.5 595.732 245.5C708.732 222.5 779.232 293 779.232 293M494.5 378C408 378 371.232 458 421.732 487C472.232 516 704.5 453.5 743.5 581.5M513 581.5C381 555.5 398.732 628 344.232 612C289.732 596 329.5 539.5 276 510.5M12.2317 559C-20.7683 698 149.232 564.5 176.232 630.5C203.232 696.5 100.732 754 157.732 790C214.732 826 230.5 649 360 743.5" stroke="url(#paint0_linear_325_159)" stroke-width="7" stroke-linecap="round" stroke-linejoin="round" stroke-dasharray="37.38 37.38" shape-rendering="crispEdges"/>
</g>
<defs>
<filter id="filter0_f_325_159" x="395.364" y="0" width="52.968" height="51.8464" filterUnits="userSpaceOnUse" color-interpolation-filters="sRGB">
<feFlood flood-opacity="0" result="BackgroundImageFix"/>
<feBlend mode="normal" in="SourceGraphic" in2="BackgroundImageFix" result="shape"/>
<feGaussianBlur stdDeviation="1" result="effect1_foregroundBlur_325_159"/>
</filter>
<filter id="filter1_f_325_159" x="369.956" y="741.248" width="26.0353" height="31.0264" filterUnits="userSpaceOnUse" color-interpolation-filters="sRGB">
<feFlood flood-opacity="0" result="BackgroundImageFix"/>
<feBlend mode="normal" in="SourceGraphic" in2="BackgroundImageFix" result="shape"/>
<feGaussianBlur stdDeviation="1" result="effect1_foregroundBlur_325_159"/>
</filter>
<filter id="filter2_df_325_159" x="0.560997" y="49.9495" width="786.843" height="753.132" filterUnits="userSpaceOnUse" color-interpolation-filters="sRGB">
<feFlood flood-opacity="0" result="BackgroundImageFix"/>
<feColorMatrix in="SourceAlpha" type="matrix" values="0 0 0 0 0 0 0 0 0 0 0 0 0 0 0 0 0 0 127 0" result="hardAlpha"/>
<feOffset/>
<feGaussianBlur stdDeviation="2.33626"/>
<feComposite in2="hardAlpha" operator="out"/>
<feColorMatrix type="matrix" values="0 0 0 0 0.121569 0 0 0 0 0.121569 0 0 0 0 0.121569 0 0 0 1 0"/>
<feBlend mode="normal" in2="BackgroundImageFix" result="effect1_dropShadow_325_159"/>
<feBlend mode="normal" in="SourceGraphic" in2="effect1_dropShadow_325_159" result="shape"/>
<feGaussianBlur stdDeviation="1.75" result="effect2_foregroundBlur_325_159"/>
</filter>
<linearGradient id="paint0_linear_325_159" x1="8" y1="422.256" x2="784.412" y2="422.256" gradientUnits="userSpaceOnUse">
<stop stop-color="#DB9865"/>
<stop offset="1" stop-color="#A8622C" stop-opacity="0.48"/>
</linearGradient>
</defs>
</svg>
