<svg  viewBox="0 0 71 48" fill="none" xmlns="http://www.w3.org/2000/svg">
<path id="bg-slide" d="M24.1286 0L70.3775 0C70.3988 0 70.416 0.0172652 70.416 0.038563V14.8957V29.7914M16.4961 7.6325L62.745 7.6325C62.7662 7.6325 62.7835 7.64977 62.7835 7.67107L62.7835 37.4239M21.0509 39.6989L21.0509 21.6082C21.0509 21.579 21.0822 21.5604 21.1079 21.5743L37.9762 30.7419C38.0033 30.7566 38.0031 30.7955 37.9758 30.8099L21.1075 39.7329C21.0819 39.7465 21.0509 39.7279 21.0509 39.6989ZM0.0385633 47.6416L56.3435 47.6416C56.3648 47.6416 56.3821 47.6243 56.3821 47.603L56.3821 14.0725C56.3821 14.0512 56.3648 14.034 56.3435 14.034L0.038563 14.034C0.0172652 14.034 0 14.0512 0 14.0725L0 47.603C0 47.6243 0.0172655 47.6416 0.0385633 47.6416Z" stroke="url(#paint0_linear_316_279)" stroke-width="3.20982" stroke-linecap="round" stroke-linejoin="round"/>
<defs>
<linearGradient id="paint0_linear_316_279" x1="-3.22731e-07" y1="23.5601" x2="70.889" y2="23.5601" gradientUnits="userSpaceOnUse">
<stop stop-color="#DB9865"/>
<stop offset="1" stop-color="#A8622C" stop-opacity="0.48"/>
</linearGradient>
</defs>
</svg>
