<svg width="74" height="52" viewBox="0 0 74 52" fill="none" xmlns="http://www.w3.org/2000/svg"><path d="M25.986 2h45.9754c.0213 0 .0386.01727.0386.03856V32.0155M18.3986 9.68992H64.374c.0213 0 .0386.01727.0386.03857V39.7054m-41.486 2.2922V23.7707c0-.0293.0314-.0479.0571-.0338l16.7688 9.2366c.0268.0148.0266.0533-.0004.0678l-16.7687 8.9903c-.0257.0137-.0568-.0049-.0568-.034zM2.03856 50H58.0104c.0213 0 .0386-.0173.0386-.0386V16.1781c0-.0213-.0173-.0386-.0386-.0386H2.03856c-.02129 0-.03856.0173-.03856.0386v33.7833c0 .0213.01726.0386.03856.0386z" stroke="url(#paint0_linear_316_279)" stroke-width="3.20982" stroke-linecap="round" stroke-linejoin="round"/><defs><linearGradient id="paint0_linear_316_279" x1="2" y1="25.7373" x2="72.4702" y2="25.7373" gradientUnits="userSpaceOnUse"><stop stop-color="#DB9865"/><stop offset="1" stop-color="#A8622C" stop-opacity=".48"/></linearGradient></defs></svg>