<svg width="18" height="17" viewBox="0 0 18 17" fill="none" xmlns="http://www.w3.org/2000/svg">
<g filter="url(#filter0_d_280_424)">
<path d="M8.42937 2.75623C8.60898 2.20344 9.39102 2.20344 9.57063 2.75623L10.6614 6.11327C10.7417 6.36049 10.9721 6.52786 11.232 6.52786H14.7618C15.3431 6.52786 15.5847 7.27163 15.1145 7.61327L12.2588 9.68804C12.0485 9.84083 11.9606 10.1116 12.0409 10.3589L13.1316 13.7159C13.3113 14.2687 12.6786 14.7284 12.2083 14.3867L9.35267 12.312C9.14238 12.1592 8.85762 12.1592 8.64733 12.312L5.79166 14.3867C5.32143 14.7284 4.68874 14.2687 4.86835 13.7159L5.95912 10.3589C6.03945 10.1116 5.95145 9.84083 5.74116 9.68804L2.88549 7.61327C2.41526 7.27163 2.65692 6.52786 3.23816 6.52786H6.76796C7.0279 6.52786 7.25827 6.36049 7.3386 6.11327L8.42937 2.75623Z" fill="#C27C46"/>
<path d="M9.35665 2.82576L10.4474 6.1828C10.5579 6.52272 10.8746 6.75286 11.232 6.75286H14.7618C15.1251 6.75286 15.2762 7.21772 14.9823 7.43125L12.1266 9.50601C11.8374 9.71609 11.7164 10.0885 11.8269 10.4284L12.9177 13.7854C13.0299 14.1309 12.6345 14.4182 12.3406 14.2047L9.48492 12.1299C9.19577 11.9198 8.80423 11.9198 8.51508 12.1299L5.6594 14.2047C5.36551 14.4182 4.97008 14.1309 5.08234 13.7854L6.17311 10.4284C6.28356 10.0885 6.16256 9.71609 5.87341 9.50601L3.01774 7.43124C2.72385 7.21772 2.87488 6.75286 3.23816 6.75286H6.76796C7.12537 6.75286 7.44214 6.52272 7.55258 6.1828L8.64335 2.82576C8.75561 2.48027 9.24439 2.48027 9.35665 2.82576Z" stroke="#DB9865" stroke-width="0.45" stroke-linejoin="round"/>
</g>
<defs>
<filter id="filter0_d_280_424" x="0.687009" y="0.391553" width="16.626" height="16.0626" filterUnits="userSpaceOnUse" color-interpolation-filters="sRGB">
<feFlood flood-opacity="0" result="BackgroundImageFix"/>
<feColorMatrix in="SourceAlpha" type="matrix" values="0 0 0 0 0 0 0 0 0 0 0 0 0 0 0 0 0 0 127 0" result="hardAlpha"/>
<feOffset/>
<feGaussianBlur stdDeviation="0.975"/>
<feComposite in2="hardAlpha" operator="out"/>
<feColorMatrix type="matrix" values="0 0 0 0 0.86 0 0 0 0 0.597839 0 0 0 0 0.3956 0 0 0 1 0"/>
<feBlend mode="normal" in2="BackgroundImageFix" result="effect1_dropShadow_280_424"/>
<feBlend mode="normal" in="SourceGraphic" in2="effect1_dropShadow_280_424" result="shape"/>
</filter>
</defs>
</svg>
