<svg viewBox="0 0 24 33" fill="none" xmlns="http://www.w3.org/2000/svg">
<path fill-rule="evenodd" clip-rule="evenodd" d="M12.3429 0C-5.0388 12.7838 -2.9765 33 11.7536 33C21.4755 33 28.2514 22.5946 20.8864 10.7027C20.3703 11.4986 19.979 11.6764 19.1188 11.5946C17.3511 9.21622 17.8154 6.64249 16.4673 4.75676L15.5835 8.02703C13.0347 7.68274 12.8448 5.77133 12.3429 0ZM7.03998 11.8919C8.09969 8.44747 8.99302 6.72911 10.8698 3.86487C12.0083 8.05549 13.1112 9.47581 16.4673 9.21622C16.8216 11.274 17.1104 12.2483 18.2349 12.7838C19.1208 13.0311 19.5807 13.0344 20.2971 12.7838C24.4216 21.7027 21.1809 31.2162 11.7536 31.5135C4.09394 31.5135 -2.38732 22.8919 4.09395 11.8919C5.33378 12.1649 5.96899 12.1333 7.03998 11.8919Z" fill="url(#paint0_linear_344_10)"/>
<path d="M16.2619 21.1083C16.2619 23.6277 14.2392 25.6623 11.7536 25.6623C9.26806 25.6623 7.24536 23.6277 7.24536 21.1083C7.24536 18.5888 9.26806 16.5542 11.7536 16.5542C14.2392 16.5542 16.2619 18.5888 16.2619 21.1083Z" stroke="url(#paint1_linear_344_10)"/>
<defs>
<linearGradient id="paint0_linear_344_10" x1="-1.09997e-07" y1="16.3194" x2="24.1612" y2="16.3194" gradientUnits="userSpaceOnUse">
<stop stop-color="#DB9865"/>
<stop offset="1" stop-color="#A8622C" stop-opacity="0.48"/>
</linearGradient>
<linearGradient id="paint1_linear_344_10" x1="6.74536" y1="21.0529" x2="16.8291" y2="21.0529" gradientUnits="userSpaceOnUse">
<stop stop-color="#DB9865"/>
<stop offset="1" stop-color="#A8622C" stop-opacity="0.48"/>
</linearGradient>
</defs>
</svg>
