<svg viewBox="0 0 30 21" fill="none" xmlns="http://www.w3.org/2000/svg">
<path d="M11.896 5.72077C11.6947 5.60778 11.4486 5.61002 11.2494 5.72663C11.0502 5.84325 10.9278 6.05676 10.9278 6.28757V15.143C10.9278 15.3755 11.052 15.5903 11.2535 15.7063C11.4549 15.8223 11.703 15.8219 11.9041 15.7052L19.6595 11.2031C19.8613 11.0859 19.9849 10.8696 19.9832 10.6362C19.9815 10.4029 19.8549 10.1883 19.6514 10.0741L11.896 5.72077ZM25.2287 20.0849H4.77131C2.50817 20.0849 0.65 18.2235 0.65 15.9472V4.78768C0.65 2.51134 2.50817 0.65 4.77131 0.65H25.2287C27.4918 0.65 29.35 2.51134 29.35 4.78768V15.9472C29.35 18.2235 27.4918 20.0849 25.2287 20.0849Z" stroke="#F3EDE9" stroke-width="1.3" stroke-linejoin="round"/>
</svg>
