<svg width="122" height="25" viewBox="0 0 122 25" fill="none" xmlns="http://www.w3.org/2000/svg">
<g filter="url(#filter0_d_278_122)">
<path d="M12.4294 2.75623C12.609 2.20344 13.391 2.20344 13.5706 2.75623L15.5595 8.87721C15.6398 9.12442 15.8702 9.2918 16.1301 9.2918H22.5661C23.1473 9.2918 23.389 10.0356 22.9187 10.3772L17.7119 14.1602C17.5016 14.313 17.4136 14.5838 17.494 14.831L19.4828 20.952C19.6624 21.5048 19.0297 21.9644 18.5595 21.6228L13.3527 17.8398C13.1424 17.687 12.8576 17.687 12.6473 17.8398L7.44052 21.6228C6.97029 21.9644 6.3376 21.5048 6.51721 20.952L8.50604 14.831C8.58636 14.5838 8.49837 14.313 8.28807 14.1602L3.08126 10.3772C2.61103 10.0356 2.8527 9.2918 3.43393 9.2918H9.86991C10.1298 9.2918 10.3602 9.12442 10.4405 8.87721L12.4294 2.75623Z" fill="#C27C46"/>
<path d="M12.6434 2.82576C12.7556 2.48027 13.2444 2.48027 13.3566 2.82576L15.3455 8.94673C15.4559 9.28665 15.7727 9.5168 16.1301 9.5168H22.5661C22.9293 9.5168 23.0804 9.98165 22.7865 10.1952L17.5797 13.9781C17.2905 14.1882 17.1695 14.5606 17.28 14.9005L19.2688 21.0215C19.3811 21.367 18.9856 21.6543 18.6917 21.4408L13.4849 17.6578C13.1958 17.4477 12.8042 17.4477 12.5151 17.6578L7.30827 21.4408C7.01437 21.6543 6.61894 21.367 6.7312 21.0215L8.72002 14.9005C8.83047 14.5606 8.70948 14.1882 8.42033 13.9781L3.21351 10.1952C2.91962 9.98165 3.07066 9.5168 3.43393 9.5168H9.86991C10.2273 9.5168 10.5441 9.28665 10.6545 8.94673L12.6434 2.82576Z" stroke="#DB9865" stroke-width="0.45" stroke-linejoin="round"/>
</g>
<g filter="url(#filter1_d_278_122)">
<path d="M36.4294 2.75623C36.609 2.20344 37.391 2.20344 37.5706 2.75623L39.5595 8.87721C39.6398 9.12442 39.8702 9.2918 40.1301 9.2918H46.5661C47.1473 9.2918 47.389 10.0356 46.9187 10.3772L41.7119 14.1602C41.5016 14.313 41.4136 14.5838 41.494 14.831L43.4828 20.952C43.6624 21.5048 43.0297 21.9644 42.5595 21.6228L37.3527 17.8398C37.1424 17.687 36.8576 17.687 36.6473 17.8398L31.4405 21.6228C30.9703 21.9644 30.3376 21.5048 30.5172 20.952L32.506 14.831C32.5864 14.5838 32.4984 14.313 32.2881 14.1602L27.0813 10.3772C26.611 10.0356 26.8527 9.2918 27.4339 9.2918H33.8699C34.1298 9.2918 34.3602 9.12442 34.4405 8.87721L36.4294 2.75623Z" fill="#C27C46"/>
<path d="M36.6434 2.82576C36.7556 2.48027 37.2444 2.48027 37.3566 2.82576L39.3455 8.94673C39.4559 9.28665 39.7727 9.5168 40.1301 9.5168H46.5661C46.9293 9.5168 47.0804 9.98165 46.7865 10.1952L41.5797 13.9781C41.2905 14.1882 41.1695 14.5606 41.28 14.9005L43.2688 21.0215C43.3811 21.367 42.9856 21.6543 42.6917 21.4408L37.4849 17.6578C37.1958 17.4477 36.8042 17.4477 36.5151 17.6578L31.3083 21.4408C31.0144 21.6543 30.6189 21.367 30.7312 21.0215L32.72 14.9005C32.8305 14.5606 32.7095 14.1882 32.4203 13.9781L27.2135 10.1952C26.9196 9.98165 27.0707 9.5168 27.4339 9.5168H33.8699C34.2273 9.5168 34.5441 9.28665 34.6545 8.94673L36.6434 2.82576Z" stroke="#DB9865" stroke-width="0.45" stroke-linejoin="round"/>
</g>
<g filter="url(#filter2_d_278_122)">
<path d="M60.4294 2.75623C60.609 2.20344 61.391 2.20344 61.5706 2.75623L63.5595 8.87721C63.6398 9.12442 63.8702 9.2918 64.1301 9.2918H70.5661C71.1473 9.2918 71.389 10.0356 70.9187 10.3772L65.7119 14.1602C65.5016 14.313 65.4136 14.5838 65.494 14.831L67.4828 20.952C67.6624 21.5048 67.0297 21.9644 66.5595 21.6228L61.3527 17.8398C61.1424 17.687 60.8576 17.687 60.6473 17.8398L55.4405 21.6228C54.9703 21.9644 54.3376 21.5048 54.5172 20.952L56.506 14.831C56.5864 14.5838 56.4984 14.313 56.2881 14.1602L51.0813 10.3772C50.611 10.0356 50.8527 9.2918 51.4339 9.2918H57.8699C58.1298 9.2918 58.3602 9.12442 58.4405 8.87721L60.4294 2.75623Z" fill="#C27C46"/>
<path d="M60.6434 2.82576C60.7556 2.48027 61.2444 2.48027 61.3566 2.82576L63.3455 8.94673C63.4559 9.28665 63.7727 9.5168 64.1301 9.5168H70.5661C70.9293 9.5168 71.0804 9.98165 70.7865 10.1952L65.5797 13.9781C65.2905 14.1882 65.1695 14.5606 65.28 14.9005L67.2688 21.0215C67.3811 21.367 66.9856 21.6543 66.6917 21.4408L61.4849 17.6578C61.1958 17.4477 60.8042 17.4477 60.5151 17.6578L55.3083 21.4408C55.0144 21.6543 54.6189 21.367 54.7312 21.0215L56.72 14.9005C56.8305 14.5606 56.7095 14.1882 56.4203 13.9781L51.2135 10.1952C50.9196 9.98165 51.0707 9.5168 51.4339 9.5168H57.8699C58.2273 9.5168 58.5441 9.28665 58.6545 8.94673L60.6434 2.82576Z" stroke="#DB9865" stroke-width="0.45" stroke-linejoin="round"/>
</g>
<g filter="url(#filter3_d_278_122)">
<path d="M84.4294 2.75623C84.609 2.20344 85.391 2.20344 85.5706 2.75623L87.5595 8.87721C87.6398 9.12442 87.8702 9.2918 88.1301 9.2918H94.5661C95.1473 9.2918 95.389 10.0356 94.9187 10.3772L89.7119 14.1602C89.5016 14.313 89.4136 14.5838 89.494 14.831L91.4828 20.952C91.6624 21.5048 91.0297 21.9644 90.5595 21.6228L85.3527 17.8398C85.1424 17.687 84.8576 17.687 84.6473 17.8398L79.4405 21.6228C78.9703 21.9644 78.3376 21.5048 78.5172 20.952L80.506 14.831C80.5864 14.5838 80.4984 14.313 80.2881 14.1602L75.0813 10.3772C74.611 10.0356 74.8527 9.2918 75.4339 9.2918H81.8699C82.1298 9.2918 82.3602 9.12442 82.4405 8.87721L84.4294 2.75623Z" fill="#C27C46"/>
<path d="M84.6434 2.82576C84.7556 2.48027 85.2444 2.48027 85.3566 2.82576L87.3455 8.94673C87.4559 9.28665 87.7727 9.5168 88.1301 9.5168H94.5661C94.9293 9.5168 95.0804 9.98165 94.7865 10.1952L89.5797 13.9781C89.2905 14.1882 89.1695 14.5606 89.28 14.9005L91.2688 21.0215C91.3811 21.367 90.9856 21.6543 90.6917 21.4408L85.4849 17.6578C85.1958 17.4477 84.8042 17.4477 84.5151 17.6578L79.3083 21.4408C79.0144 21.6543 78.6189 21.367 78.7312 21.0215L80.72 14.9005C80.8305 14.5606 80.7095 14.1882 80.4203 13.9781L75.2135 10.1952C74.9196 9.98165 75.0707 9.5168 75.4339 9.5168H81.8699C82.2273 9.5168 82.5441 9.28665 82.6545 8.94673L84.6434 2.82576Z" stroke="#DB9865" stroke-width="0.45" stroke-linejoin="round"/>
</g>
<g filter="url(#filter4_d_278_122)">
<path d="M108.429 2.75623C108.609 2.20344 109.391 2.20344 109.571 2.75623L111.559 8.87721C111.64 9.12442 111.87 9.2918 112.13 9.2918H118.566C119.147 9.2918 119.389 10.0356 118.919 10.3772L113.712 14.1602C113.502 14.313 113.414 14.5838 113.494 14.831L115.483 20.952C115.662 21.5048 115.03 21.9644 114.559 21.6228L109.353 17.8398C109.142 17.687 108.858 17.687 108.647 17.8398L103.441 21.6228C102.97 21.9644 102.338 21.5048 102.517 20.952L104.506 14.831C104.586 14.5838 104.498 14.313 104.288 14.1602L99.0813 10.3772C98.611 10.0356 98.8527 9.2918 99.4339 9.2918H105.87C106.13 9.2918 106.36 9.12442 106.441 8.87721L108.429 2.75623Z" fill="#C27C46"/>
<path d="M108.643 2.82576C108.756 2.48027 109.244 2.48027 109.357 2.82576L111.345 8.94673C111.456 9.28665 111.773 9.5168 112.13 9.5168H118.566C118.929 9.5168 119.08 9.98165 118.786 10.1952L113.58 13.9781C113.291 14.1882 113.17 14.5606 113.28 14.9005L115.269 21.0215C115.381 21.367 114.986 21.6543 114.692 21.4408L109.485 17.6578C109.196 17.4477 108.804 17.4477 108.515 17.6578L103.308 21.4408C103.014 21.6543 102.619 21.367 102.731 21.0215L104.72 14.9005C104.83 14.5606 104.709 14.1882 104.42 13.9781L99.2135 10.1952C98.9196 9.98165 99.0707 9.5168 99.4339 9.5168H105.87C106.227 9.5168 106.544 9.28665 106.655 8.94673L108.643 2.82576Z" stroke="#DB9865" stroke-width="0.45" stroke-linejoin="round"/>
</g>
<defs>
<filter id="filter0_d_278_122" x="0.882783" y="0.391614" width="24.2344" height="23.2985" filterUnits="userSpaceOnUse" color-interpolation-filters="sRGB">
<feFlood flood-opacity="0" result="BackgroundImageFix"/>
<feColorMatrix in="SourceAlpha" type="matrix" values="0 0 0 0 0 0 0 0 0 0 0 0 0 0 0 0 0 0 127 0" result="hardAlpha"/>
<feOffset/>
<feGaussianBlur stdDeviation="0.975"/>
<feComposite in2="hardAlpha" operator="out"/>
<feColorMatrix type="matrix" values="0 0 0 0 0.86 0 0 0 0 0.597839 0 0 0 0 0.3956 0 0 0 1 0"/>
<feBlend mode="normal" in2="BackgroundImageFix" result="effect1_dropShadow_278_122"/>
<feBlend mode="normal" in="SourceGraphic" in2="effect1_dropShadow_278_122" result="shape"/>
</filter>
<filter id="filter1_d_278_122" x="24.8828" y="0.391614" width="24.2344" height="23.2985" filterUnits="userSpaceOnUse" color-interpolation-filters="sRGB">
<feFlood flood-opacity="0" result="BackgroundImageFix"/>
<feColorMatrix in="SourceAlpha" type="matrix" values="0 0 0 0 0 0 0 0 0 0 0 0 0 0 0 0 0 0 127 0" result="hardAlpha"/>
<feOffset/>
<feGaussianBlur stdDeviation="0.975"/>
<feComposite in2="hardAlpha" operator="out"/>
<feColorMatrix type="matrix" values="0 0 0 0 0.86 0 0 0 0 0.597839 0 0 0 0 0.3956 0 0 0 1 0"/>
<feBlend mode="normal" in2="BackgroundImageFix" result="effect1_dropShadow_278_122"/>
<feBlend mode="normal" in="SourceGraphic" in2="effect1_dropShadow_278_122" result="shape"/>
</filter>
<filter id="filter2_d_278_122" x="48.8828" y="0.391614" width="24.2344" height="23.2985" filterUnits="userSpaceOnUse" color-interpolation-filters="sRGB">
<feFlood flood-opacity="0" result="BackgroundImageFix"/>
<feColorMatrix in="SourceAlpha" type="matrix" values="0 0 0 0 0 0 0 0 0 0 0 0 0 0 0 0 0 0 127 0" result="hardAlpha"/>
<feOffset/>
<feGaussianBlur stdDeviation="0.975"/>
<feComposite in2="hardAlpha" operator="out"/>
<feColorMatrix type="matrix" values="0 0 0 0 0.86 0 0 0 0 0.597839 0 0 0 0 0.3956 0 0 0 1 0"/>
<feBlend mode="normal" in2="BackgroundImageFix" result="effect1_dropShadow_278_122"/>
<feBlend mode="normal" in="SourceGraphic" in2="effect1_dropShadow_278_122" result="shape"/>
</filter>
<filter id="filter3_d_278_122" x="72.8828" y="0.391614" width="24.2344" height="23.2985" filterUnits="userSpaceOnUse" color-interpolation-filters="sRGB">
<feFlood flood-opacity="0" result="BackgroundImageFix"/>
<feColorMatrix in="SourceAlpha" type="matrix" values="0 0 0 0 0 0 0 0 0 0 0 0 0 0 0 0 0 0 127 0" result="hardAlpha"/>
<feOffset/>
<feGaussianBlur stdDeviation="0.975"/>
<feComposite in2="hardAlpha" operator="out"/>
<feColorMatrix type="matrix" values="0 0 0 0 0.86 0 0 0 0 0.597839 0 0 0 0 0.3956 0 0 0 1 0"/>
<feBlend mode="normal" in2="BackgroundImageFix" result="effect1_dropShadow_278_122"/>
<feBlend mode="normal" in="SourceGraphic" in2="effect1_dropShadow_278_122" result="shape"/>
</filter>
<filter id="filter4_d_278_122" x="96.8828" y="0.391614" width="24.2344" height="23.2985" filterUnits="userSpaceOnUse" color-interpolation-filters="sRGB">
<feFlood flood-opacity="0" result="BackgroundImageFix"/>
<feColorMatrix in="SourceAlpha" type="matrix" values="0 0 0 0 0 0 0 0 0 0 0 0 0 0 0 0 0 0 127 0" result="hardAlpha"/>
<feOffset/>
<feGaussianBlur stdDeviation="0.975"/>
<feComposite in2="hardAlpha" operator="out"/>
<feColorMatrix type="matrix" values="0 0 0 0 0.86 0 0 0 0 0.597839 0 0 0 0 0.3956 0 0 0 1 0"/>
<feBlend mode="normal" in2="BackgroundImageFix" result="effect1_dropShadow_278_122"/>
<feBlend mode="normal" in="SourceGraphic" in2="effect1_dropShadow_278_122" result="shape"/>
</filter>
</defs>
</svg>
