<svg  viewBox="0 0 28 27" fill="none" xmlns="http://www.w3.org/2000/svg">
<path d="M3.0335 22.5709L3.03349 22.5709L3.01167 22.6496L3.01167 22.6497C2.88596 23.1032 2.75494 23.578 2.62235 24.0601L2.25992 25.3777L3.56606 24.9758L7.19531 23.8591C7.26477 23.8377 7.34008 23.8477 7.40164 23.8863C9.33438 25.0981 11.5691 25.75 13.9 25.75C20.6655 25.75 26.15 20.2655 26.15 13.5C26.15 6.73451 20.6655 1.25 13.9 1.25C7.13454 1.25 1.65002 6.73451 1.65002 13.5C1.65002 15.8995 2.34093 18.1964 3.62058 20.1657C3.66005 20.2264 3.67123 20.3013 3.65124 20.3709C3.49752 20.9062 3.28659 21.6582 3.0335 22.5709ZM3.04895 20.6598L3.13765 20.3469L2.96985 20.0683C1.78676 18.104 1.15002 15.8493 1.15002 13.5C1.15002 6.45837 6.85839 0.75 13.9 0.75C20.9417 0.75 26.65 6.45837 26.65 13.5C26.65 20.5416 20.9417 26.25 13.9 26.25C11.6229 26.25 9.43427 25.6519 7.51185 24.5366L7.22827 24.3721L6.91493 24.4685L1.97355 25.9889C1.78521 26.0469 1.60699 25.8743 1.65883 25.6842L1.7332 25.4119C1.7924 25.1954 1.85845 24.9541 1.9297 24.6942C2.13332 23.9516 2.33777 23.2091 2.52983 22.5161L2.55168 22.4373C2.55168 22.4373 2.55168 22.4373 2.55168 22.4373C2.74422 21.743 2.91197 21.143 3.04895 20.6598ZM10.4207 11.3212L10.1058 11.6598L10.267 12.0933C10.4326 12.5388 10.7693 13.0238 11.1807 13.4977C11.603 13.9841 12.146 14.5063 12.7776 15.0256C13.4313 15.5632 14.1448 16.0707 14.776 16.4543C15.0564 16.6248 15.318 16.7689 15.5323 16.8685L15.9236 17.0504L16.2776 16.8035C16.411 16.7104 16.5343 16.5955 16.6399 16.4899C16.793 16.3368 16.9528 16.1587 17.1142 15.965C17.3161 15.7226 17.5153 15.4626 17.7013 15.2052C17.8115 15.0525 17.8951 14.9316 17.942 14.8613C17.9511 14.8476 17.9616 14.8349 17.9732 14.8232C18.001 14.7955 18.0479 14.7576 18.1216 14.7208C18.333 14.6151 18.6367 14.5888 19.0118 14.7764C19.006 14.7735 19.0074 14.7743 19.019 14.7812C19.033 14.7895 19.0617 14.8066 19.1104 14.8365C19.1854 14.8826 19.2857 14.9452 19.4067 15.0212C19.5266 15.0965 19.6548 15.1774 19.7941 15.2653C19.9496 15.3634 20.1188 15.4702 20.3056 15.5875C20.9812 16.0122 21.7751 16.5057 22.2714 16.7815C22.3639 16.8328 22.414 16.9368 22.3966 17.0411C22.1852 18.3099 21.8371 19.1665 21.1081 19.8955C20.1188 20.8848 18.5321 21.3601 16.1129 20.9972C11.7286 20.3396 7.8425 16.4469 6.16669 12.0897C5.51052 10.3837 5.81283 8.68844 6.77276 7.08857C7.1336 6.48716 7.48923 6.05724 7.72325 5.82322C7.75815 5.78832 7.8026 5.76453 7.851 5.75485C7.92221 5.74061 8.04409 5.71894 8.198 5.69696C8.35766 5.67415 8.51095 5.65728 8.655 5.64767C9.28895 5.60541 9.42749 5.67391 9.5768 5.82322C9.57677 5.82319 9.58081 5.82727 9.58915 5.83691C9.59728 5.84632 9.60791 5.85917 9.62108 5.87599C9.6477 5.90998 9.68046 5.95469 9.71912 6.01082C9.79661 6.12334 9.8886 6.26832 9.99059 6.43944C10.1943 6.78122 10.4254 7.20622 10.643 7.64161C10.8611 8.07791 11.0599 8.51303 11.202 8.87582C11.2733 9.05764 11.3265 9.21181 11.361 9.33321C11.3894 9.43345 11.3971 9.4847 11.3992 9.49862C11.4 9.5035 11.4 9.5038 11.4 9.5C11.4 9.99205 11.2118 10.4702 10.4207 11.3212ZM21.7499 17.6917L21.8922 17.1478L21.4099 16.8587C20.6462 16.401 19.7098 15.8042 19.2069 15.4837C19.1512 15.4482 19.1008 15.4161 19.0566 15.3879L18.4635 15.0104L18.0485 15.5779C17.8711 15.8205 17.686 16.0598 17.4983 16.285C17.3219 16.4967 17.1535 16.6834 16.9935 16.8434C16.4674 17.3695 16.1754 17.5 15.9 17.5C15.8614 17.5 15.7266 17.4798 15.4721 17.377C15.2335 17.2807 14.9431 17.134 14.6142 16.9412C13.9573 16.5563 13.1945 16.0157 12.46 15.4119C11.54 14.6554 10.8237 13.9337 10.3425 13.2566C9.8593 12.5766 9.65002 11.9942 9.65002 11.5C9.65002 11.4337 9.67636 11.3701 9.72325 11.3232C10.1144 10.9321 10.3893 10.6257 10.5698 10.3725C10.7431 10.1293 10.9 9.83978 10.9 9.5V9.23996L10.7673 9.07151C10.7658 9.0685 10.7643 9.06516 10.7626 9.06146C10.7535 9.0415 10.7428 9.01708 10.7289 8.98476C10.7252 8.97615 10.7212 8.96676 10.7169 8.95684C10.7064 8.9323 10.6944 8.9045 10.6825 8.87712C10.5465 8.56458 10.3581 8.1776 10.147 7.77159C9.95126 7.39522 9.74204 7.01438 9.56309 6.70817C9.51938 6.63338 9.47791 6.56381 9.43955 6.50091L9.20824 6.12165L8.76449 6.14224C8.73973 6.14339 8.71428 6.14483 8.68826 6.14657C8.56633 6.15469 8.43751 6.1687 8.30936 6.18624L8.01743 6.22622L7.83078 6.45422C7.60254 6.73301 7.39512 7.02313 7.2015 7.34582C6.35696 8.75339 6.02404 10.326 6.63336 11.9103C8.20343 15.9924 11.9278 19.8639 16.1871 20.5028C18.2496 20.8121 19.7759 20.5206 20.7545 19.542C21.2649 19.0316 21.5607 18.4156 21.7499 17.6917Z" stroke="url(#paint0_linear_208_312)" stroke-width="1.5"/>
<defs>
<linearGradient id="paint0_linear_208_312" x1="0.400024" y1="13.3522" x2="27.5814" y2="13.3522" gradientUnits="userSpaceOnUse">
<stop stop-color="#DB9865"/>
<stop offset="1" stop-color="#A8622C" stop-opacity="0.48"/>
</linearGradient>
</defs>
</svg>
