<svg viewBox="0 0 30 21" fill="none" xmlns="http://www.w3.org/2000/svg">
<g opacity="0.8">
<path d="M11.899 5.8029C11.6978 5.68851 11.451 5.68974 11.2509 5.80614C11.0509 5.92253 10.9278 6.13652 10.9278 6.36797V15.3366C10.9278 15.5698 11.0527 15.785 11.255 15.9008C11.4574 16.0166 11.7062 16.0151 11.9072 15.897L19.6626 11.3373C19.8627 11.2197 19.9849 11.0043 19.9832 10.7723C19.9815 10.5402 19.8562 10.3266 19.6545 10.2119L11.899 5.8029ZM25.2287 20.35H4.77131C2.51592 20.35 0.65 18.4689 0.65 16.1511V4.8489C0.65 2.53106 2.51592 0.65 4.77131 0.65H25.2287C27.4841 0.65 29.35 2.53106 29.35 4.8489V16.1511C29.35 18.4689 27.4841 20.35 25.2287 20.35Z" fill="url(#paint0_linear_468_6)" stroke="#DB9865" stroke-width="1.3" stroke-linejoin="round"/>
</g>
<defs>
<linearGradient id="paint0_linear_468_6" x1="-1.37496e-07" y1="10.3851" x2="30.2015" y2="10.3851" gradientUnits="userSpaceOnUse">
<stop stop-color="#DB9865"/>
<stop offset="1" stop-color="#A8622C" stop-opacity="0.48"/>
</linearGradient>
</defs>
</svg>
