<svg viewBox="0 0 30 21" fill="none" xmlns="http://www.w3.org/2000/svg">
<path d="M12.0673 5.46586C11.7576 5.29204 11.379 5.29547 11.0726 5.47488C10.7661 5.65429 10.5778 5.98276 10.5778 6.33787V15.1933C10.5778 15.551 10.7688 15.8814 11.0788 16.0599C11.3888 16.2384 11.7705 16.2377 12.0798 16.0581L19.8353 11.5561C20.1457 11.3758 20.3358 11.043 20.3332 10.684C20.3306 10.325 20.1357 9.99494 19.8227 9.81921L12.0673 5.46586ZM25.2287 19.7852H4.77131C2.7026 19.7852 1 18.0817 1 15.9975V4.83797C1 2.7538 2.7026 1.05029 4.77131 1.05029H25.2287C27.2974 1.05029 29 2.7538 29 4.83797V15.9975C29 18.0817 27.2974 19.7852 25.2287 19.7852Z" stroke="url(#paint0_linear_208_314)" stroke-width="2" stroke-linejoin="round"/>
<defs>
<linearGradient id="paint0_linear_208_314" x1="-1.37496e-07" y1="10.3043" x2="30.2015" y2="10.3043" gradientUnits="userSpaceOnUse">
<stop stop-color="#DB9865"/>
<stop offset="1" stop-color="#A8622C" stop-opacity="0.48"/>
</linearGradient>
</defs>
</svg>
