<svg viewBox="0 0 28 27" fill="none" xmlns="http://www.w3.org/2000/svg">
<g id="icon-whatsapp">
<path id="Vector" d="M6.97463 23.1423C7.25243 23.0568 7.55368 23.0964 7.79994 23.2508C9.61367 24.3881 11.7104 25 13.8999 25C20.2512 25 25.3999 19.8513 25.3999 13.5C25.3999 7.14873 20.2512 2 13.8999 2C7.54863 2 2.3999 7.14873 2.3999 13.5C2.3999 15.7538 3.04844 17.9089 4.24935 19.757C4.40721 20 4.45195 20.2995 4.37198 20.5779C4.21922 21.1099 4.00902 21.8593 3.7561 22.7713C3.7452 22.8107 3.7452 22.8107 3.7343 22.85C3.60874 23.303 3.47785 23.7773 3.34537 24.259L6.97463 23.1423ZM2.19399 26.7058C1.44065 26.9376 0.727763 26.2473 0.935133 25.4869C0.948699 25.4372 0.948699 25.4372 1.00962 25.2142C1.06887 24.9974 1.13497 24.7559 1.20628 24.4959C1.41003 23.7527 1.61467 23.0096 1.80696 22.3158C1.81789 22.2764 1.81789 22.2764 1.82883 22.2369C2.02157 21.5419 2.18974 20.9404 2.32726 20.4552C1.07408 18.3746 0.399902 15.9862 0.399902 13.5C0.399902 6.04416 6.44406 0 13.8999 0C21.3557 0 27.3999 6.04416 27.3999 13.5C27.3999 20.9558 21.3557 27 13.8999 27C11.4902 27 9.17176 26.3667 7.13537 25.1854L2.19399 26.7058ZM16.1095 15.9596C16.2424 15.8266 16.3868 15.6662 16.5379 15.4848C16.7268 15.2582 16.9153 15.0123 17.0931 14.7661C17.1995 14.6187 17.2775 14.5058 17.3179 14.4453C17.3544 14.3905 17.3962 14.3395 17.4428 14.2929C17.5288 14.2069 17.6419 14.1221 17.786 14.05C18.2342 13.8259 18.7878 13.8259 19.3471 14.1056C19.5327 14.1984 21.6852 15.5979 22.6355 16.1258C23.0053 16.3313 23.2058 16.7471 23.1363 17.1644C22.9105 18.5193 22.5182 19.5459 21.6383 20.4259C20.4199 21.6442 18.5555 22.122 16.0016 21.7389C11.2742 21.0298 7.2081 16.887 5.46656 12.359C4.70903 10.3894 5.08007 8.45178 6.12952 6.7027C6.51848 6.05443 6.91094 5.57474 7.1928 5.29289C7.3324 5.15329 7.5102 5.05814 7.70379 5.01942C7.79009 5.00216 7.92575 4.97822 8.09181 4.95449C8.26622 4.92958 8.43859 4.91043 8.60499 4.89933C9.28548 4.85397 9.71591 4.90179 10.107 5.29289C10.6012 5.78711 12.1499 8.76533 12.1499 9.5C12.1499 10.2718 11.8113 10.9267 10.9698 11.8318C11.2083 12.473 12.0424 13.4503 13.2538 14.4463C13.8823 14.9632 14.567 15.4497 15.1654 15.8134C15.4325 15.9758 15.6682 16.1047 15.8483 16.1884C15.9273 16.1333 16.0139 16.0551 16.1095 15.9596V15.9596ZM7.8445 7.73169C7.08325 9.00044 6.82877 10.3294 7.33325 11.641C8.84051 15.5599 12.3882 19.1746 16.2982 19.7611C18.2666 20.0563 19.4939 19.7418 20.224 19.0116C20.6143 18.6214 20.858 18.1379 21.0242 17.502C20.1651 16.9871 19.0934 16.3004 18.6538 16.0206C18.4687 16.2738 18.2738 16.5259 18.0744 16.7652C17.887 16.99 17.7032 17.1942 17.5237 17.3738C16.9661 17.9314 16.4881 18.25 15.8999 18.25C15.1647 18.25 13.5005 17.2384 11.9835 15.9912C10.0884 14.433 8.8999 12.9128 8.8999 11.5C8.8999 11.2348 9.00526 10.9804 9.19279 10.7929C9.95949 10.0262 10.1499 9.70885 10.1499 9.5C10.1071 9.44569 10.0587 9.32354 9.99472 9.17646C9.86793 8.88519 9.68793 8.5147 9.48144 8.1176C9.29045 7.75032 9.08719 7.38048 8.91544 7.0866C8.87368 7.01516 8.83465 6.94968 8.79912 6.89143C8.77959 6.89234 8.75919 6.89349 8.73803 6.8949C8.63721 6.90163 8.52612 6.91354 8.41099 6.92931C8.20395 7.18221 8.01792 7.44266 7.8445 7.73169V7.73169Z" fill="url(#paint0_linear_316_176)"/>
</g>
<defs>
<linearGradient id="paint0_linear_316_176" x1="0.399902" y1="13.3522" x2="27.5812" y2="13.3522" gradientUnits="userSpaceOnUse">
<stop stop-color="#DB9865"/>
<stop offset="1" stop-color="#A8622C" stop-opacity="0.48"/>
</linearGradient>
</defs>
</svg>
