<svg   viewBox="0 0 12 21" fill="none" xmlns="http://www.w3.org/2000/svg">
<path d="M6.95493 11.6668V20.3409H3.69708V11.6668V11.2668H3.29708H0.4V8.31315H3.29708H3.69708V7.91315V5.05236C3.69708 3.50492 4.15636 2.35301 4.92022 1.58844C5.68447 0.823455 6.79976 0.4 8.20199 0.4C8.89103 0.4 9.60095 0.461666 10.1421 0.524155C10.3655 0.549949 10.5589 0.575732 10.7086 0.59705V3.0494H9.47116C8.57774 3.0494 7.92624 3.33017 7.50558 3.81661C7.09428 4.29221 6.95493 4.9057 6.95493 5.47731V7.91315V8.31315H7.35493H10.4906L10.0373 11.2668H7.35493H6.95493V11.6668Z" stroke="url(#paint0_linear_468_5)" stroke-width="0.8"/>
<defs>
<linearGradient id="paint0_linear_468_5" x1="-5.09128e-08" y1="10.257" x2="11.1832" y2="10.257" gradientUnits="userSpaceOnUse">
<stop stop-color="#DB9865"/>
<stop offset="1" stop-color="#A8622C" stop-opacity="0.48"/>
</linearGradient>
</defs>
</svg>
