<svg width="509" height="135" viewBox="0 0 509 135" fill="none" xmlns="http://www.w3.org/2000/svg">
<g filter="url(#filter0_f_391_179)">
<text fill="#DB9865" xml:space="preserve" style="white-space: pre" font-family="Cinzel Decorative" font-size="15.697" letter-spacing="0em"><tspan x="1" y="38.2405">Genesis</tspan></text>
</g>
<g filter="url(#filter1_f_391_179)">
<text fill="#DB9865" xml:space="preserve" style="white-space: pre" font-family="Cinzel Decorative" font-size="15.697" letter-spacing="0em"><tspan x="412" y="46.2405">Apocalipse</tspan></text>
</g>
<g filter="url(#filter2_f_391_179)">
<text fill="#D5A67B" xml:space="preserve" style="white-space: pre" font-family="Julee" font-size="29.7292" letter-spacing="0em"><tspan x="427" y="25.5674">x</tspan></text>
<text stroke="#1F1F1F" stroke-opacity="0.8" stroke-width="0.261617" xml:space="preserve" style="white-space: pre" font-family="Julee" font-size="29.7292" letter-spacing="0em"><tspan x="427" y="25.5674">x</tspan></text>
</g>
<g filter="url(#filter3_f_391_179)">
<mask id="mask0_391_179" style="mask-type:alpha" maskUnits="userSpaceOnUse" x="26" y="42" width="32" height="32">
<path d="M41.697 44.0098C38.2289 44.0098 35.4182 46.8177 35.4182 50.2904C35.4182 51.0878 35.6479 52.1046 35.9177 52.8059L41.6969 65.1066L47.4761 52.8059C47.7473 52.1045 47.9755 51.088 47.9755 50.2904C47.9755 46.8179 45.1648 44.0098 41.6967 44.0098H41.697ZM41.697 48.0283C42.958 48.0283 43.9802 49.0225 43.9802 50.249C43.9802 51.4755 42.958 52.4698 41.697 52.4698C40.436 52.4698 39.4138 51.4755 39.4138 50.249C39.4138 49.0225 40.436 48.0283 41.697 48.0283Z" fill="black"/>
<path d="M29.9809 70.8332C29.9375 70.8556 29.8921 70.8725 29.845 70.8837C29.7982 70.8952 29.7492 70.9012 29.6978 70.9012C29.5454 70.9012 29.4247 70.8588 29.3356 70.7737C29.2462 70.6882 29.2017 70.5725 29.2017 70.4268C29.2017 70.2807 29.2462 70.165 29.3356 70.0799C29.4247 69.9944 29.5454 69.9517 29.6978 69.9517C29.7492 69.9517 29.7982 69.9576 29.845 69.9692C29.8921 69.9804 29.9375 69.9972 29.9809 70.0196V70.2088C29.937 70.1794 29.8937 70.1577 29.8513 70.1437C29.8087 70.1297 29.7639 70.1226 29.7168 70.1226C29.6327 70.1226 29.5664 70.1498 29.5184 70.2039C29.4703 70.2577 29.4463 70.332 29.4463 70.4268C29.4463 70.5212 29.4703 70.5955 29.5184 70.6496C29.5664 70.7034 29.6327 70.7302 29.7168 70.7302C29.7639 70.7302 29.8087 70.7236 29.8513 70.7099C29.8937 70.6959 29.937 70.674 29.9809 70.644V70.8332Z" fill="black"/>
<path d="M30.677 70.3831C30.6574 70.3743 30.6379 70.3677 30.6188 70.3635C30.6001 70.3589 30.5812 70.3565 30.5621 70.3565C30.5055 70.3565 30.462 70.3747 30.4317 70.4111C30.4012 70.4472 30.3862 70.4987 30.3862 70.566V70.8827H30.1668V70.196H30.3862V70.3088C30.4142 70.264 30.4464 70.2314 30.4829 70.2107C30.5197 70.1897 30.5636 70.1792 30.6146 70.1792C30.622 70.1792 30.63 70.1797 30.6384 70.1806C30.6472 70.1811 30.6598 70.1824 30.6763 70.1841L30.677 70.3831Z" fill="black"/>
<path d="M31.4716 70.5373V70.6004H30.958C30.9636 70.6519 30.9821 70.6904 31.014 70.716C31.0457 70.7417 31.0904 70.7545 31.1479 70.7545C31.1941 70.7545 31.2413 70.7479 31.2894 70.7342C31.338 70.7202 31.3877 70.6995 31.4387 70.6718V70.8407C31.3868 70.8603 31.335 70.8751 31.2831 70.8849C31.2313 70.895 31.1794 70.9003 31.1276 70.9003C31.0032 70.9003 30.9065 70.8687 30.8374 70.8057C30.7688 70.7426 30.7344 70.6541 30.7344 70.5401C30.7344 70.428 30.7682 70.34 30.836 70.2759C30.9037 70.2114 30.9967 70.1792 31.1149 70.1792C31.2228 70.1792 31.3092 70.212 31.3742 70.2773C31.439 70.3423 31.4716 70.429 31.4716 70.5373L31.4716 70.5373ZM31.246 70.4644C31.246 70.4229 31.2337 70.3894 31.2095 70.3642C31.1852 70.3386 31.1535 70.3257 31.1142 70.3257C31.0717 70.3257 31.0372 70.3376 31.0105 70.3614C30.9839 70.3852 30.9673 70.4196 30.9608 70.4644H31.246Z" fill="black"/>
<path d="M31.9455 70.5737C31.8996 70.5737 31.8651 70.5814 31.8418 70.5969C31.8188 70.6123 31.8075 70.6352 31.8075 70.6655C31.8075 70.6936 31.8167 70.7156 31.8355 70.7314C31.8541 70.7468 31.8798 70.7545 31.9126 70.7545C31.9541 70.7545 31.989 70.7398 32.017 70.7104C32.0454 70.6806 32.0597 70.6435 32.0597 70.599V70.5737L31.9455 70.5737ZM32.2805 70.491V70.8828H32.0597V70.7812C32.0303 70.8229 31.997 70.8532 31.9602 70.8723C31.9233 70.8908 31.8784 70.9003 31.8257 70.9003C31.7546 70.9003 31.6969 70.8798 31.6526 70.8386C31.6081 70.7971 31.586 70.7431 31.586 70.6767C31.586 70.5965 31.6135 70.5376 31.6687 70.5001C31.7242 70.4623 31.8113 70.4434 31.9301 70.4434H32.0597V70.4259C32.0597 70.3914 32.0459 70.3661 32.0184 70.3502C31.9907 70.3339 31.948 70.3257 31.8901 70.3257C31.8428 70.3257 31.799 70.3304 31.7584 70.3397C31.7181 70.3491 31.6808 70.3631 31.6463 70.3817V70.2142C31.6929 70.203 31.7398 70.1944 31.7871 70.1883C31.8348 70.1824 31.8824 70.1792 31.9301 70.1792C32.0538 70.1792 32.1431 70.2037 32.1978 70.2528C32.2528 70.3015 32.2805 70.3808 32.2805 70.491L32.2805 70.491Z" fill="black"/>
<path d="M32.725 70.0015V70.1963H32.9513V70.3532H32.725V70.6448C32.725 70.6767 32.7313 70.698 32.7439 70.7092C32.7565 70.7204 32.7814 70.7261 32.8189 70.7261H32.9317V70.883H32.7439C32.657 70.883 32.5953 70.8652 32.5589 70.8291C32.5228 70.7926 32.505 70.7313 32.505 70.6448V70.3532H32.3963V70.1963H32.505V70.0015H32.725Z" fill="black"/>
<path d="M33.7711 70.5373V70.6004H33.2574C33.263 70.6519 33.2816 70.6904 33.3135 70.716C33.3452 70.7417 33.3899 70.7545 33.4473 70.7545C33.4936 70.7545 33.5407 70.7479 33.5889 70.7342C33.6374 70.7202 33.6872 70.6995 33.7382 70.6718V70.8407C33.6863 70.8603 33.6344 70.8751 33.5826 70.8849C33.5307 70.895 33.4789 70.9003 33.427 70.9003C33.3026 70.9003 33.2059 70.8687 33.1369 70.8057C33.0682 70.7426 33.0339 70.6541 33.0339 70.5401C33.0339 70.428 33.0677 70.34 33.1355 70.2759C33.2031 70.2114 33.2961 70.1792 33.4144 70.1792C33.5223 70.1792 33.6087 70.212 33.6737 70.2773C33.7385 70.3423 33.7711 70.429 33.7711 70.5373L33.7711 70.5373ZM33.5454 70.4644C33.5454 70.4229 33.5332 70.3894 33.509 70.3642C33.4847 70.3386 33.4529 70.3257 33.4137 70.3257C33.3711 70.3257 33.3366 70.3376 33.31 70.3614C33.2834 70.3852 33.2667 70.4196 33.2602 70.4644H33.5454Z" fill="black"/>
<path d="M34.404 70.2966V69.9287H34.6248V70.8831H34.404V70.7836C34.3741 70.8243 34.341 70.8541 34.3045 70.8726C34.2681 70.8912 34.2257 70.9007 34.1777 70.9007C34.0931 70.9007 34.0237 70.867 33.9695 70.7997C33.9152 70.7325 33.8883 70.6461 33.8883 70.5405C33.8883 70.4345 33.9152 70.3478 33.9695 70.2805C34.0237 70.2132 34.0931 70.1796 34.1777 70.1796C34.2253 70.1796 34.2674 70.1892 34.3038 70.2083C34.3406 70.2276 34.3741 70.257 34.404 70.2966V70.2966ZM34.2597 70.7416C34.3063 70.7416 34.342 70.7246 34.3669 70.6904C34.3916 70.6559 34.404 70.606 34.404 70.5405C34.404 70.4751 34.3916 70.4254 34.3669 70.3912C34.342 70.3567 34.3063 70.3394 34.2597 70.3394C34.2129 70.3394 34.1771 70.3567 34.1524 70.3912C34.1276 70.4254 34.1153 70.4751 34.1153 70.5405C34.1153 70.606 34.1276 70.6559 34.1524 70.6904C34.1771 70.7246 34.2129 70.7416 34.2597 70.7416Z" fill="black"/>
<path d="M35.6386 70.7416C35.6857 70.7416 35.7216 70.7246 35.7465 70.6904C35.7712 70.6559 35.7836 70.606 35.7836 70.5405C35.7836 70.4751 35.7712 70.4254 35.7465 70.3912C35.7216 70.3567 35.6857 70.3394 35.6386 70.3394C35.5913 70.3394 35.5552 70.3567 35.53 70.3912C35.5051 70.4259 35.4928 70.4756 35.4928 70.5405C35.4928 70.6055 35.5051 70.6552 35.53 70.6897C35.5552 70.7244 35.5913 70.7416 35.6386 70.7416V70.7416ZM35.4928 70.2966C35.5231 70.257 35.5566 70.2276 35.593 70.2083C35.6298 70.1892 35.6722 70.1796 35.7199 70.1796C35.8048 70.1796 35.8744 70.2132 35.9287 70.2805C35.9828 70.3478 36.01 70.4345 36.01 70.5405C36.01 70.6461 35.9828 70.7325 35.9287 70.7997C35.8744 70.867 35.8048 70.9007 35.7199 70.9007C35.6722 70.9007 35.6298 70.8912 35.593 70.8726C35.5566 70.8535 35.5231 70.8239 35.4928 70.7836V70.8831H35.2735V69.9287H35.4928V70.2966Z" fill="black"/>
<path d="M36.0819 70.1963H36.3012L36.4862 70.6623L36.6432 70.1963H36.8625L36.5738 70.9482C36.5447 71.0243 36.5109 71.0775 36.4722 71.108C36.4333 71.1388 36.3825 71.1542 36.3194 71.1542H36.1919V71.0099H36.2605C36.2979 71.0099 36.325 71.0038 36.3418 70.9917C36.359 70.9799 36.3723 70.9589 36.3818 70.9286L36.3881 70.9097L36.0819 70.1963Z" fill="black"/>
<path d="M37.7356 70.5737C37.6897 70.5737 37.6552 70.5814 37.6319 70.5969C37.609 70.6123 37.5976 70.6352 37.5976 70.6655C37.5976 70.6936 37.6069 70.7156 37.6256 70.7314C37.6442 70.7468 37.6699 70.7545 37.7027 70.7545C37.7442 70.7545 37.7791 70.7398 37.8071 70.7104C37.8355 70.6806 37.8499 70.6435 37.8499 70.599V70.5737L37.7356 70.5737ZM38.0706 70.491V70.8828H37.8499V70.7812C37.8204 70.8229 37.7872 70.8532 37.7504 70.8723C37.7134 70.8908 37.6685 70.9003 37.6158 70.9003C37.5447 70.9003 37.487 70.8798 37.4427 70.8386C37.3982 70.7971 37.3762 70.7431 37.3762 70.6767C37.3762 70.5965 37.4037 70.5376 37.4588 70.5001C37.5144 70.4623 37.6014 70.4434 37.7202 70.4434H37.8499V70.4259C37.8499 70.3914 37.836 70.3661 37.8085 70.3502C37.7808 70.3339 37.7381 70.3257 37.6803 70.3257C37.633 70.3257 37.5892 70.3304 37.5485 70.3397C37.5082 70.3491 37.4709 70.3631 37.4364 70.3817V70.2142C37.483 70.203 37.53 70.1944 37.5773 70.1883C37.6249 70.1824 37.6726 70.1792 37.7202 70.1792C37.8439 70.1792 37.9333 70.2037 37.9879 70.2528C38.0429 70.3015 38.0706 70.3808 38.0706 70.491L38.0706 70.491Z" fill="black"/>
<path d="M38.7854 70.3831C38.7658 70.3743 38.7463 70.3677 38.7272 70.3635C38.7085 70.3589 38.6895 70.3565 38.6704 70.3565C38.6139 70.3565 38.5704 70.3747 38.5401 70.4111C38.5096 70.4472 38.4946 70.4987 38.4946 70.566V70.8827H38.2752V70.196H38.4946V70.3088C38.5226 70.264 38.5548 70.2314 38.5913 70.2107C38.6281 70.1897 38.672 70.1792 38.723 70.1792C38.7304 70.1792 38.7384 70.1797 38.7468 70.1806C38.7556 70.1811 38.7682 70.1824 38.7847 70.1841L38.7854 70.3831Z" fill="black"/>
<path d="M39.1345 70.0015V70.1963H39.3608V70.3532H39.1345V70.6448C39.1345 70.6767 39.1408 70.698 39.1534 70.7092C39.166 70.7204 39.1909 70.7261 39.2284 70.7261H39.3412V70.883H39.1534C39.0665 70.883 39.0048 70.8652 38.9684 70.8291C38.9323 70.7926 38.9144 70.7313 38.9144 70.6448V70.3532H38.8058V70.1963H38.9144V70.0015H39.1345Z" fill="black"/>
<path d="M40.4682 70.2177V70.3845C40.4214 70.3649 40.376 70.3502 40.3322 70.3404C40.2882 70.3306 40.2469 70.3257 40.2082 70.3257C40.1665 70.3257 40.1355 70.3309 40.115 70.3411C40.0948 70.3514 40.0849 70.3675 40.0849 70.3894C40.0849 70.4068 40.0926 70.4201 40.108 70.4294C40.1234 70.4388 40.1509 70.4458 40.1907 70.4504L40.2292 70.456C40.3417 70.4705 40.4174 70.4942 40.4563 70.5268C40.495 70.5595 40.5144 70.6107 40.5144 70.6802C40.5144 70.7536 40.4873 70.8088 40.4331 70.8456C40.3794 70.8821 40.2989 70.9003 40.1921 70.9003C40.1462 70.9003 40.0991 70.8968 40.0505 70.8898C40.0023 70.8828 39.9528 70.8721 39.902 70.8575V70.6908C39.9454 70.7123 39.9899 70.7284 40.0358 70.7391C40.0821 70.7494 40.129 70.7545 40.1767 70.7545C40.2196 70.7545 40.2518 70.7487 40.2734 70.737C40.2947 70.7249 40.3056 70.7072 40.3056 70.6837C40.3056 70.6641 40.2981 70.6498 40.2832 70.6403C40.2681 70.6305 40.2385 70.6231 40.1942 70.6179L40.1556 70.613C40.0579 70.6009 39.9896 70.5783 39.9503 70.545C39.9111 70.5119 39.8914 70.4616 39.8914 70.3943C39.8914 70.3215 39.9162 70.2675 39.9657 70.2325C40.0157 70.1971 40.0922 70.1792 40.1956 70.1792C40.2357 70.1792 40.2779 70.1825 40.3224 70.189C40.3673 70.1951 40.4158 70.2048 40.4682 70.2177L40.4682 70.2177Z" fill="black"/>
<path d="M41.3699 70.4648V70.8831H41.1492V70.5643C41.1492 70.504 41.1478 70.4627 41.145 70.4403C41.1422 70.4178 41.1374 70.4014 41.131 70.3905C41.1225 70.3765 41.1108 70.3656 41.0959 70.3576C41.0814 70.3497 41.0647 70.3457 41.0462 70.3457C41.0003 70.3457 40.9643 70.3635 40.9382 70.3989C40.912 70.434 40.899 70.4828 40.899 70.5454V70.8831H40.6797V69.9287H40.899V70.2966C40.9321 70.257 40.9671 70.2276 41.0041 70.2083C41.0414 70.1892 41.0826 70.1796 41.1275 70.1796C41.2068 70.1796 41.2671 70.2041 41.3082 70.2532C41.3492 70.3019 41.3699 70.3723 41.3699 70.4648V70.4648Z" fill="black"/>
<path d="M41.9001 70.3362C41.8514 70.3362 41.8143 70.3537 41.7887 70.3887C41.7629 70.4238 41.7502 70.4742 41.7502 70.5401C41.7502 70.606 41.7629 70.6564 41.7887 70.6915C41.8143 70.7261 41.8514 70.7433 41.9001 70.7433C41.9478 70.7433 41.9842 70.7261 42.0094 70.6915C42.035 70.6564 42.048 70.606 42.048 70.5401C42.048 70.4742 42.035 70.4238 42.0094 70.3887C41.9842 70.3537 41.9478 70.3362 41.9001 70.3362V70.3362ZM41.9001 70.1792C42.0182 70.1792 42.1105 70.2113 42.1769 70.2752C42.2431 70.3388 42.2764 70.4271 42.2764 70.5401C42.2764 70.6527 42.2431 70.741 42.1769 70.805C42.1105 70.8686 42.0182 70.9003 41.9001 70.9003C41.7813 70.9003 41.6887 70.8686 41.6219 70.805C41.555 70.741 41.5217 70.6527 41.5217 70.5401C41.5217 70.4271 41.555 70.3388 41.6219 70.2752C41.6887 70.2113 41.7813 70.1792 41.9001 70.1792V70.1792Z" fill="black"/>
<path d="M42.6557 70.7833V71.1442H42.4364V70.196H42.6557V70.2962C42.6861 70.2566 42.7195 70.2272 42.756 70.2079C42.7927 70.1888 42.8351 70.1792 42.8828 70.1792C42.9678 70.1792 43.0373 70.2128 43.0916 70.2801C43.1457 70.3474 43.1729 70.4341 43.1729 70.5401C43.1729 70.6457 43.1458 70.7321 43.0916 70.7994C43.0373 70.8666 42.9678 70.9003 42.8828 70.9003C42.8351 70.9003 42.7927 70.8908 42.756 70.8723C42.7195 70.8532 42.6861 70.8235 42.6557 70.7833V70.7833ZM42.8015 70.339C42.7542 70.339 42.7181 70.3563 42.6929 70.3908C42.668 70.4255 42.6557 70.4753 42.6557 70.5401C42.6557 70.6051 42.668 70.6549 42.6929 70.6894C42.7181 70.7241 42.7542 70.7412 42.8015 70.7412C42.8486 70.7412 42.8845 70.7242 42.9094 70.6901C42.9341 70.6556 42.9466 70.6056 42.9466 70.5401C42.9466 70.4748 42.9341 70.425 42.9094 70.3908C42.8845 70.3563 42.8486 70.339 42.8015 70.339V70.339Z" fill="black"/>
<path d="M29.6965 71.1841V71.3284H29.5753C29.5445 71.3284 29.5227 71.334 29.5101 71.3453C29.4979 71.3565 29.4919 71.3761 29.4919 71.4041V71.4518H29.6797V71.6087H29.4919V72.1385H29.2726V71.6087H29.1632V71.4518H29.2726V71.4041C29.2726 71.3295 29.2932 71.2741 29.3349 71.238C29.3764 71.2021 29.4411 71.1841 29.529 71.1841L29.6965 71.1841Z" fill="black"/>
<path d="M30.3018 71.639C30.2822 71.6302 30.2627 71.6235 30.2436 71.6193C30.2249 71.6148 30.206 71.6123 30.1869 71.6123C30.1303 71.6123 30.0868 71.6305 30.0565 71.667C30.026 71.7031 30.011 71.7546 30.011 71.8219V72.1386H29.7916V71.4519H30.011V71.5647C30.039 71.5199 30.0712 71.4873 30.1077 71.4666C30.1445 71.4456 30.1884 71.4351 30.2394 71.4351C30.2468 71.4351 30.2548 71.4356 30.2632 71.4365C30.272 71.437 30.2846 71.4382 30.3011 71.44L30.3018 71.639Z" fill="black"/>
<path d="M30.7376 71.592C30.6889 71.592 30.6518 71.6095 30.6262 71.6446C30.6005 71.6796 30.5877 71.7301 30.5877 71.796C30.5877 71.8618 30.6005 71.9123 30.6262 71.9473C30.6518 71.982 30.6889 71.9992 30.7376 71.9992C30.7853 71.9992 30.8217 71.982 30.847 71.9473C30.8725 71.9123 30.8855 71.8618 30.8855 71.796C30.8855 71.7301 30.8725 71.6796 30.847 71.6446C30.8217 71.6095 30.7853 71.592 30.7376 71.592V71.592ZM30.7376 71.4351C30.8557 71.4351 30.9481 71.4671 31.0145 71.5311C31.0807 71.5947 31.114 71.683 31.114 71.7959C31.114 71.9086 31.0807 71.9969 31.0145 72.0608C30.9481 72.1244 30.8557 72.1561 30.7376 72.1561C30.6189 72.1561 30.5262 72.1244 30.4594 72.0608C30.3925 71.9969 30.3592 71.9086 30.3592 71.7959C30.3592 71.683 30.3925 71.5947 30.4594 71.5311C30.5262 71.4671 30.6189 71.4351 30.7376 71.4351V71.4351Z" fill="black"/>
<path d="M31.9099 71.5661C31.9374 71.5237 31.9704 71.4911 32.0087 71.4687C32.0469 71.4463 32.089 71.4351 32.1349 71.4351C32.2137 71.4351 32.2738 71.4596 32.315 71.5086C32.3565 71.5573 32.3773 71.6278 32.3773 71.7203V72.1386H32.1566V71.7805V71.7644C32.1569 71.7585 32.1573 71.75 32.1573 71.7392C32.1573 71.6907 32.1499 71.6556 32.1356 71.6341C32.1216 71.6122 32.0986 71.6011 32.0669 71.6011C32.0252 71.6011 31.993 71.6185 31.9702 71.653C31.9472 71.6872 31.9355 71.7367 31.9352 71.8016V72.1386H31.7144V71.7805C31.7144 71.7045 31.7078 71.6556 31.6948 71.6341C31.6817 71.6122 31.6584 71.6011 31.6247 71.6011C31.5827 71.6011 31.5501 71.6185 31.5273 71.653C31.5044 71.6871 31.493 71.7364 31.493 71.8008V72.1386H31.2722V71.4519H31.493V71.5521C31.52 71.5134 31.5508 71.4841 31.5855 71.4645C31.6205 71.4449 31.6591 71.4351 31.7011 71.4351C31.7487 71.4351 31.7908 71.4466 31.8272 71.4694C31.8637 71.4924 31.8912 71.5246 31.9099 71.5661L31.9099 71.5661Z" fill="black"/>
<path d="M33.2591 71.2568V71.4516H33.4855V71.6086H33.2591V71.9001C33.2591 71.932 33.2654 71.9534 33.278 71.9646C33.2907 71.9758 33.3155 71.9814 33.353 71.9814H33.4658V72.1384H33.278C33.1911 72.1384 33.1295 72.1205 33.093 72.0844C33.057 72.048 33.0391 71.9867 33.0391 71.9001V71.6086H32.9305V71.4516H33.0391V71.2568H33.2591Z" fill="black"/>
<path d="M34.3099 71.7202V72.1385H34.0892V71.8197C34.0892 71.7594 34.0878 71.7181 34.085 71.6956C34.0822 71.6732 34.0774 71.6567 34.071 71.6459C34.0626 71.6319 34.0508 71.621 34.0359 71.6129C34.0214 71.6051 34.0047 71.601 33.9862 71.601C33.9403 71.601 33.9044 71.6189 33.8783 71.6543C33.852 71.6893 33.839 71.7382 33.839 71.8007V72.1385H33.6197V71.1841H33.839V71.552C33.8721 71.5124 33.9072 71.483 33.9441 71.4637C33.9814 71.4446 34.0226 71.435 34.0675 71.435C34.1468 71.435 34.2071 71.4595 34.2483 71.5085C34.2893 71.5572 34.3099 71.6277 34.3099 71.7202V71.7202Z" fill="black"/>
<path d="M35.1989 71.7931V71.8562H34.6853C34.6909 71.9077 34.7094 71.9463 34.7413 71.9718C34.773 71.9976 34.8177 72.0104 34.8752 72.0104C34.9214 72.0104 34.9686 72.0037 35.0167 71.9901C35.0653 71.976 35.115 71.9554 35.166 71.9277V72.0966C35.1141 72.1162 35.0623 72.1309 35.0104 72.1407C34.9586 72.1509 34.9067 72.1561 34.8548 72.1561C34.7305 72.1561 34.6338 72.1246 34.5647 72.0615C34.4961 71.9985 34.4617 71.91 34.4617 71.7959C34.4617 71.6838 34.4955 71.5959 34.5633 71.5318C34.6309 71.4673 34.724 71.4351 34.8422 71.4351C34.9501 71.4351 35.0365 71.4678 35.1015 71.5332C35.1663 71.5982 35.1989 71.6849 35.1989 71.7931L35.1989 71.7931ZM34.9733 71.7203C34.9733 71.6787 34.961 71.6453 34.9368 71.6201C34.9125 71.5945 34.8808 71.5815 34.8415 71.5815C34.799 71.5815 34.7644 71.5934 34.7378 71.6173C34.7112 71.6411 34.6946 71.6754 34.6881 71.7203H34.9733Z" fill="black"/>
<path d="M35.8123 71.2231H36.0758L36.4086 71.851V71.2231H36.6322V72.1383H36.3687L36.0358 71.5104V72.1383H35.8123V71.2231Z" fill="black"/>
<path d="M37.18 71.592C37.1313 71.592 37.0942 71.6095 37.0686 71.6446C37.0428 71.6796 37.03 71.7301 37.03 71.796C37.03 71.8618 37.0428 71.9123 37.0686 71.9473C37.0942 71.982 37.1313 71.9992 37.18 71.9992C37.2277 71.9992 37.2641 71.982 37.2893 71.9473C37.3149 71.9123 37.3279 71.8618 37.3279 71.796C37.3279 71.7301 37.3149 71.6796 37.2893 71.6446C37.2641 71.6095 37.2277 71.592 37.18 71.592V71.592ZM37.18 71.4351C37.2981 71.4351 37.3904 71.4671 37.4568 71.5311C37.523 71.5947 37.5563 71.683 37.5563 71.7959C37.5563 71.9086 37.523 71.9969 37.4568 72.0608C37.3904 72.1244 37.2981 72.1561 37.18 72.1561C37.0612 72.1561 36.9686 72.1244 36.9018 72.0608C36.8349 71.9969 36.8016 71.9086 36.8016 71.7959C36.8016 71.683 36.8349 71.5947 36.9018 71.5311C36.9686 71.4671 37.0612 71.4351 37.18 71.4351V71.4351Z" fill="black"/>
<path d="M37.7085 71.8707V71.4517H37.9292V71.5203C37.9292 71.5578 37.9289 71.6044 37.9285 71.6605C37.928 71.7165 37.9278 71.754 37.9278 71.7726C37.9278 71.8283 37.9292 71.8683 37.932 71.8924C37.9352 71.9168 37.9401 71.9343 37.9467 71.945C37.956 71.9595 37.9679 71.9707 37.9825 71.9786C37.9968 71.9862 38.0135 71.9898 38.0322 71.9898C38.0779 71.9898 38.1139 71.9723 38.1401 71.9373C38.1662 71.9022 38.1794 71.8535 38.1794 71.7908V71.4517H38.3987V72.1384H38.1794V72.0389C38.1461 72.0792 38.1111 72.1088 38.0743 72.1279C38.0373 72.1464 37.9965 72.1559 37.9516 72.1559C37.8726 72.1559 37.8123 72.1317 37.7708 72.083C37.7291 72.0345 37.7085 71.9637 37.7085 71.8707V71.8707Z" fill="black"/>
<path d="M39.3005 71.7203V72.1386H39.0797V71.8184C39.0797 71.7591 39.0783 71.7181 39.0755 71.6957C39.0727 71.6733 39.068 71.6568 39.0615 71.646C39.0531 71.632 39.0414 71.6211 39.0265 71.613C39.0119 71.6051 38.9953 71.6011 38.9767 71.6011C38.9308 71.6011 38.8949 71.619 38.8688 71.6544C38.8425 71.6894 38.8296 71.7383 38.8296 71.8008V72.1386H38.6102V71.4519H38.8296V71.5521C38.8627 71.5125 38.8977 71.4831 38.9347 71.4638C38.972 71.4447 39.0132 71.4351 39.058 71.4351C39.1374 71.4351 39.1976 71.4596 39.2388 71.5086C39.2798 71.5573 39.3005 71.6278 39.3005 71.7203V71.7203Z" fill="black"/>
<path d="M39.9513 71.2231H40.343C40.4593 71.2231 40.5485 71.2491 40.6107 71.3009C40.6732 71.3524 40.7046 71.426 40.7046 71.5217C40.7046 71.6175 40.6733 71.6913 40.6107 71.7431C40.5485 71.795 40.4593 71.8209 40.343 71.8209H40.1867V72.1383H39.9513V71.2231ZM40.1867 71.3941V71.6499H40.3178C40.3635 71.6499 40.3987 71.6387 40.4236 71.6163C40.4488 71.5938 40.4614 71.5623 40.4614 71.5217C40.4614 71.4807 40.4488 71.4491 40.4236 71.4271C40.3987 71.4052 40.3635 71.3941 40.3178 71.3941L40.1867 71.3941Z" fill="black"/>
<path d="M41.3721 71.639C41.3525 71.6302 41.333 71.6235 41.3139 71.6193C41.2952 71.6148 41.2763 71.6123 41.2572 71.6123C41.2006 71.6123 41.1571 71.6305 41.1268 71.667C41.0964 71.7031 41.0813 71.7546 41.0813 71.8219V72.1386H40.862V71.4519H41.0813V71.5647C41.1093 71.5199 41.1416 71.4873 41.178 71.4666C41.2148 71.4456 41.2588 71.4351 41.3097 71.4351C41.3171 71.4351 41.3252 71.4356 41.3336 71.4365C41.3423 71.437 41.3549 71.4382 41.3714 71.44L41.3721 71.639Z" fill="black"/>
<path d="M41.8075 71.592C41.7588 71.592 41.7216 71.6095 41.696 71.6446C41.6703 71.6796 41.6575 71.7301 41.6575 71.796C41.6575 71.8618 41.6703 71.9123 41.696 71.9473C41.7216 71.982 41.7588 71.9992 41.8075 71.9992C41.8551 71.9992 41.8915 71.982 41.9168 71.9473C41.9424 71.9123 41.9553 71.8618 41.9553 71.796C41.9553 71.7301 41.9424 71.6796 41.9168 71.6446C41.8915 71.6095 41.8551 71.592 41.8075 71.592V71.592ZM41.8075 71.4351C41.9255 71.4351 42.0179 71.4671 42.0843 71.5311C42.1505 71.5947 42.1838 71.683 42.1838 71.7959C42.1838 71.9086 42.1505 71.9969 42.0843 72.0608C42.0179 72.1244 41.9255 72.1561 41.8075 72.1561C41.6887 72.1561 41.596 72.1244 41.5293 72.0608C41.4623 71.9969 41.429 71.9086 41.429 71.7959C41.429 71.683 41.4623 71.5947 41.5293 71.5311C41.596 71.4671 41.6887 71.4351 41.8075 71.4351V71.4351Z" fill="black"/>
<path d="M42.3436 71.4518H42.563V72.1259C42.563 72.2179 42.5407 72.2881 42.4964 72.3368C42.4524 72.3853 42.3885 72.4097 42.3044 72.4097H42.1958V72.2653H42.2343C42.2758 72.2653 42.3044 72.2559 42.3198 72.2373C42.3356 72.2186 42.3436 72.1814 42.3436 72.1259L42.3436 71.4518ZM42.3436 71.1841H42.563V71.3635H42.3436V71.1841Z" fill="black"/>
<path d="M43.4594 71.7931V71.8562H42.9458C42.9514 71.9077 42.97 71.9463 43.0018 71.9718C43.0336 71.9976 43.0782 72.0104 43.1357 72.0104C43.1819 72.0104 43.2291 72.0037 43.2772 71.9901C43.3258 71.976 43.3755 71.9554 43.4265 71.9277V72.0966C43.3746 72.1162 43.3228 72.1309 43.2709 72.1407C43.2191 72.1509 43.1672 72.1561 43.1154 72.1561C42.991 72.1561 42.8943 72.1246 42.8252 72.0615C42.7566 71.9985 42.7222 71.91 42.7222 71.7959C42.7222 71.6838 42.756 71.5959 42.8238 71.5318C42.8915 71.4673 42.9845 71.4351 43.1027 71.4351C43.2107 71.4351 43.297 71.4678 43.362 71.5332C43.4268 71.5982 43.4594 71.6849 43.4594 71.7931L43.4594 71.7931ZM43.2338 71.7203C43.2338 71.6787 43.2215 71.6453 43.1974 71.6201C43.173 71.5945 43.1413 71.5815 43.102 71.5815C43.0595 71.5815 43.025 71.5934 42.9983 71.6173C42.9717 71.6411 42.9551 71.6754 42.9486 71.7203H43.2338Z" fill="black"/>
<path d="M44.1802 71.4736V71.6523C44.1508 71.6318 44.1208 71.6165 44.0905 71.6067C44.0605 71.5969 44.0295 71.592 43.9973 71.592C43.936 71.592 43.8882 71.6101 43.8536 71.646C43.8195 71.6815 43.8025 71.7315 43.8025 71.7959C43.8025 71.8601 43.8195 71.91 43.8536 71.9459C43.8882 71.9815 43.936 71.9992 43.9973 71.9992C44.0313 71.9992 44.0639 71.9943 44.0947 71.9845C44.1255 71.9743 44.1539 71.9591 44.1802 71.9389V72.1183C44.146 72.1309 44.1112 72.1402 44.0758 72.1463C44.0408 72.1528 44.0052 72.1561 43.9693 72.1561C43.8454 72.1561 43.7485 72.1244 43.6785 72.0608C43.6087 71.9974 43.574 71.9091 43.574 71.796C43.574 71.6824 43.6087 71.594 43.6785 71.5304C43.7485 71.4669 43.8454 71.4351 43.9693 71.4351C44.0052 71.4351 44.0408 71.4384 44.0758 71.4449C44.1108 71.451 44.1455 71.4606 44.1802 71.4736V71.4736Z" fill="black"/>
<path d="M44.6099 71.2568V71.4516H44.8362V71.6086H44.6099V71.9001C44.6099 71.932 44.6162 71.9534 44.6288 71.9646C44.6414 71.9758 44.6663 71.9814 44.7038 71.9814H44.8166V72.1384H44.6288C44.5419 72.1384 44.4802 72.1205 44.4438 72.0844C44.4077 72.048 44.3898 71.9867 44.3898 71.9001V71.6086H44.2812V71.4516H44.3898V71.2568H44.6099Z" fill="black"/>
</mask>
<g mask="url(#mask0_391_179)">
<rect x="27.8837" y="41.1631" width="27.4175" height="27.6268" fill="#D5A67B"/>
</g>
</g>
<g filter="url(#filter4_df_391_179)">
<path d="M39 76.2481C3.68164 135.112 143.77 142.092 158.159 114.622C172.547 87.1523 92.7542 102.41 99.2946 76.2481C105.835 50.0863 137.229 31.7732 158.159 47.4701C179.088 63.167 200.689 131.692 237.952 122.031C273.27 112.874 230.103 43.5459 266.73 43.5459C303.356 43.5459 308.589 125.955 339.983 127.263C371.377 128.571 367.293 24.9243 417 21" stroke="url(#paint0_linear_391_179)" stroke-width="3.92426" stroke-linecap="round" stroke-linejoin="round" stroke-dasharray="20.93 20.93" shape-rendering="crispEdges"/>
</g>
<g filter="url(#filter5_di_391_179)">
<text fill="url(#paint1_linear_391_179)" fill-opacity="0.8" shape-rendering="crispEdges" xml:space="preserve" style="white-space: pre" font-family="Cinzel Decorative" font-size="80" letter-spacing="0em"><tspan x="46" y="109.16">JornadA</tspan></text>
</g>
<defs>
<filter id="filter0_f_391_179" x="0.822006" y="25.6097" width="65.0675" height="16.2416" filterUnits="userSpaceOnUse" color-interpolation-filters="sRGB">
<feFlood flood-opacity="0" result="BackgroundImageFix"/>
<feBlend mode="normal" in="SourceGraphic" in2="BackgroundImageFix" result="shape"/>
<feGaussianBlur stdDeviation="0.559906" result="effect1_foregroundBlur_391_179"/>
</filter>
<filter id="filter1_f_391_179" x="410.739" y="32.9349" width="98.0316" height="17.5912" filterUnits="userSpaceOnUse" color-interpolation-filters="sRGB">
<feFlood flood-opacity="0" result="BackgroundImageFix"/>
<feBlend mode="normal" in="SourceGraphic" in2="BackgroundImageFix" result="shape"/>
<feGaussianBlur stdDeviation="0.559906" result="effect1_foregroundBlur_391_179"/>
</filter>
<filter id="filter2_f_391_179" x="425.855" y="9.90183" width="15.6971" height="18.4913" filterUnits="userSpaceOnUse" color-interpolation-filters="sRGB">
<feFlood flood-opacity="0" result="BackgroundImageFix"/>
<feBlend mode="normal" in="SourceGraphic" in2="BackgroundImageFix" result="shape"/>
<feGaussianBlur stdDeviation="0.839859" result="effect1_foregroundBlur_391_179"/>
</filter>
<filter id="filter3_f_391_179" x="26.2039" y="40.3203" width="30.7769" height="30.1495" filterUnits="userSpaceOnUse" color-interpolation-filters="sRGB">
<feFlood flood-opacity="0" result="BackgroundImageFix"/>
<feBlend mode="normal" in="SourceGraphic" in2="BackgroundImageFix" result="shape"/>
<feGaussianBlur stdDeviation="0.839859" result="effect1_foregroundBlur_391_179"/>
</filter>
<filter id="filter4_df_391_179" x="30.1135" y="16.4214" width="391.465" height="118.183" filterUnits="userSpaceOnUse" color-interpolation-filters="sRGB">
<feFlood flood-opacity="0" result="BackgroundImageFix"/>
<feColorMatrix in="SourceAlpha" type="matrix" values="0 0 0 0 0 0 0 0 0 0 0 0 0 0 0 0 0 0 127 0" result="hardAlpha"/>
<feOffset/>
<feGaussianBlur stdDeviation="1.30809"/>
<feComposite in2="hardAlpha" operator="out"/>
<feColorMatrix type="matrix" values="0 0 0 0 0.121569 0 0 0 0 0.121569 0 0 0 0 0.121569 0 0 0 1 0"/>
<feBlend mode="normal" in2="BackgroundImageFix" result="effect1_dropShadow_391_179"/>
<feBlend mode="normal" in="SourceGraphic" in2="effect1_dropShadow_391_179" result="shape"/>
<feGaussianBlur stdDeviation="0.979835" result="effect2_foregroundBlur_391_179"/>
</filter>
<filter id="filter5_di_391_179" x="37.6803" y="48.1201" width="419.742" height="86.0784" filterUnits="userSpaceOnUse" color-interpolation-filters="sRGB">
<feFlood flood-opacity="0" result="BackgroundImageFix"/>
<feColorMatrix in="SourceAlpha" type="matrix" values="0 0 0 0 0 0 0 0 0 0 0 0 0 0 0 0 0 0 127 0" result="hardAlpha"/>
<feOffset dx="1.67972" dy="4.47925"/>
<feGaussianBlur stdDeviation="1.67972"/>
<feComposite in2="hardAlpha" operator="out"/>
<feColorMatrix type="matrix" values="0 0 0 0 0.0941176 0 0 0 0 0.0588235 0 0 0 0 0.0352941 0 0 0 0.72 0"/>
<feBlend mode="normal" in2="BackgroundImageFix" result="effect1_dropShadow_391_179"/>
<feBlend mode="normal" in="SourceGraphic" in2="effect1_dropShadow_391_179" result="shape"/>
<feColorMatrix in="SourceAlpha" type="matrix" values="0 0 0 0 0 0 0 0 0 0 0 0 0 0 0 0 0 0 127 0" result="hardAlpha"/>
<feOffset dy="1.73143"/>
<feGaussianBlur stdDeviation="0.865716"/>
<feComposite in2="hardAlpha" operator="arithmetic" k2="-1" k3="1"/>
<feColorMatrix type="matrix" values="0 0 0 0 0.86 0 0 0 0 0.597839 0 0 0 0 0.3956 0 0 0 1 0"/>
<feBlend mode="normal" in2="shape" result="effect2_innerShadow_391_179"/>
</filter>
<linearGradient id="paint0_linear_391_179" x1="33.3107" y1="74.9456" x2="419.577" y2="74.9455" gradientUnits="userSpaceOnUse">
<stop stop-color="#DB9865"/>
<stop offset="1" stop-color="#A8622C" stop-opacity="0.48"/>
</linearGradient>
<linearGradient id="paint1_linear_391_179" x1="239.724" y1="50.4762" x2="239.727" y2="129.175" gradientUnits="userSpaceOnUse">
<stop stop-color="#DB9865"/>
<stop offset="1" stop-color="#5C3618"/>
</linearGradient>
</defs>
</svg>
