<svg viewBox="0 0 886 197" fill="none" xmlns="http://www.w3.org/2000/svg">
<g id="LogoJornada">
<g id="Trilha">
<g id="Genesis" filter="url(#filter0_f_316_425)">
<path d="M27.1661 100.351C24.7924 100.351 22.8486 99.5938 21.3347 98.0799C20.2133 96.9585 19.4751 95.5474 19.12 93.8466C17.3444 95.1923 15.167 95.8651 12.5878 95.8651C10.5506 95.8651 8.69089 95.4259 7.00878 94.5475C5.34537 93.6504 4.03706 92.4262 3.08387 90.8749C2.14936 89.3236 1.68211 87.5761 1.68211 85.6323C1.68211 83.6886 2.14936 81.941 3.08387 80.3898C4.03706 78.8198 5.34537 77.6049 7.00878 76.7452C8.6722 75.8854 10.5319 75.4556 12.5878 75.4556C15.167 75.4556 17.4379 76.091 19.4003 77.362L19.961 81.3149H19.7087C19.148 79.1469 17.8771 77.6703 15.8959 76.8854C14.924 76.4929 13.8213 76.2966 12.5878 76.2966C10.0646 76.2966 7.96198 77.1751 6.27987 78.9319C4.61645 80.6888 3.78474 82.9223 3.78474 85.6323C3.78474 88.3237 4.6258 90.5572 6.30791 92.3327C7.99002 94.1083 10.0833 95.0054 12.5878 95.0241C13.8026 95.0241 14.9614 94.8092 16.0641 94.3793C17.1669 93.9494 18.1107 93.3513 18.8957 92.585V87.6228C18.8957 87.2116 18.7742 86.9032 18.5312 86.6977C18.2883 86.4734 17.9425 86.3612 17.4939 86.3612H17.0454V86.0809H22.5403V86.3612H22.1197C21.6525 86.3612 21.2974 86.4734 21.0544 86.6977C20.8114 86.9032 20.6993 87.2116 20.718 87.6228V91.9402C20.8301 94.8933 21.7926 97.0052 23.6056 98.2762C24.8765 99.1733 26.5212 99.6219 28.5398 99.6219C29.3808 99.6219 30.2966 99.5378 31.2872 99.3695L31.3153 99.6499C29.82 100.117 28.437 100.351 27.1661 100.351ZM25.756 95.1923C26.2419 95.1923 26.6531 95.0241 26.9895 94.6877C27.3446 94.3326 27.5315 93.912 27.5502 93.4261V77.7264C27.5502 77.2779 27.3727 76.904 27.0176 76.605C26.6624 76.2873 26.2419 76.1284 25.756 76.1284H25.4195L25.3915 75.8481H33.6058C34.1852 75.8481 34.8113 75.792 35.4842 75.6798C36.1757 75.5677 36.6616 75.4556 36.942 75.3434V78.8759H36.6616V78.3712C36.6616 77.9227 36.5028 77.5395 36.185 77.2218C35.886 76.904 35.5215 76.7358 35.0917 76.7171H29.3725V85.38H34.1104C34.4842 85.3613 34.802 85.2211 35.0636 84.9595C35.3253 84.6978 35.4561 84.3707 35.4561 83.9782V83.5858H35.7365V88.0153H35.4561V87.5948C35.4561 87.221 35.3253 86.9032 35.0636 86.6416C34.8207 86.3799 34.5123 86.2397 34.1385 86.2211H29.3725V94.6036H33.3815C34.7646 94.6036 35.8206 94.2952 36.5495 93.6784C37.2784 93.0616 37.8858 92.1458 38.3718 90.931H38.6521L37.0261 95.4727H25.3915V95.1923H25.756ZM61.7012 76.1284C61.2339 76.1284 60.8321 76.2966 60.4957 76.633C60.1592 76.9508 59.9817 77.3433 59.963 77.8105V92.2767C59.963 93.3607 60.0284 94.3886 60.1592 95.3605L60.2153 95.8651H59.963L44.6838 79.5487V93.5102C44.6838 93.9774 44.8521 94.3793 45.1885 94.7157C45.5249 95.0334 45.9267 95.1923 46.394 95.1923H46.9267V95.4727H41.1514V95.1923H41.6841C42.1513 95.1923 42.5532 95.0334 42.8896 94.7157C43.226 94.3793 43.3942 93.9681 43.3942 93.4822V78.9319C43.3942 77.7918 43.3288 76.7732 43.198 75.8761L43.1419 75.4275H43.4223L58.7014 91.744V77.8386C58.6827 77.3526 58.5052 76.9508 58.1688 76.633C57.8323 76.2966 57.4305 76.1284 56.9632 76.1284H56.4306V75.8481H62.2058V76.1284H61.7012ZM65.2351 95.1923C65.7211 95.1923 66.1323 95.0241 66.4687 94.6877C66.8238 94.3326 67.0107 93.912 67.0294 93.4261V77.7264C67.0294 77.2779 66.8518 76.904 66.4967 76.605C66.1416 76.2873 65.7211 76.1284 65.2351 76.1284H64.8987L64.8707 75.8481H73.085C73.6644 75.8481 74.2905 75.792 74.9633 75.6798C75.6549 75.5677 76.1408 75.4556 76.4212 75.3434V78.8759H76.1408V78.3712C76.1408 77.9227 75.9819 77.5395 75.6642 77.2218C75.3652 76.904 75.0007 76.7358 74.5708 76.7171H68.8517V85.38H73.5896C73.9634 85.3613 74.2811 85.2211 74.5428 84.9595C74.8045 84.6978 74.9353 84.3707 74.9353 83.9782V83.5858H75.2157V88.0153H74.9353V87.5948C74.9353 87.221 74.8045 86.9032 74.5428 86.6416C74.2998 86.3799 73.9914 86.2397 73.6176 86.2211H68.8517V94.6036H72.8607C74.2438 94.6036 75.2998 94.2952 76.0287 93.6784C76.7576 93.0616 77.365 92.1458 77.851 90.931H78.1313L76.5053 95.4727H64.8707V95.1923H65.2351ZM81.0792 94.3232C81.0231 94.0616 80.995 93.5569 80.995 92.8093C80.995 92.0617 81.1352 91.2674 81.4156 90.4263H81.6679C81.6492 90.6319 81.6399 90.8375 81.6399 91.0431C81.6399 92.1832 81.9856 93.1364 82.6772 93.9027C83.3687 94.6503 84.2845 95.0241 85.4246 95.0241C86.6021 95.0241 87.5646 94.669 88.3122 93.9588C89.0785 93.2485 89.4617 92.3608 89.4617 91.2954C89.4617 90.2114 89.0972 89.333 88.3683 88.6601L82.9855 83.6699C81.9763 82.7354 81.4716 81.6046 81.4716 80.2776C81.4716 78.9506 81.9109 77.8199 82.7893 76.8854C83.6864 75.9322 84.8919 75.4556 86.4058 75.4556C87.1161 75.4556 87.9197 75.549 88.8169 75.7359H89.9102V79.1842H89.6579C89.6579 78.3058 89.3495 77.6049 88.7327 77.0816C88.1347 76.5583 87.359 76.2966 86.4058 76.2966C85.4526 76.2966 84.649 76.6144 83.9948 77.2498C83.3593 77.8853 83.0416 78.6796 83.0416 79.6328C83.0416 80.586 83.4154 81.4084 84.163 82.0999L89.6859 87.2023C90.6204 88.062 91.0877 89.2395 91.0877 90.7347C91.0877 92.2299 90.6111 93.4635 89.6579 94.4354C88.7047 95.3886 87.4338 95.8651 85.8451 95.8651C85.0228 95.8651 84.1443 95.7343 83.2098 95.4727C82.294 95.2297 81.5838 94.8465 81.0792 94.3232ZM94.7487 95.1923C95.2346 95.1923 95.6458 95.0241 95.9822 94.6877C96.3374 94.3326 96.5243 93.912 96.5429 93.4261V77.8666C96.5243 77.3806 96.3374 76.9695 95.9822 76.633C95.6458 76.2966 95.2346 76.1284 94.7487 76.1284H94.3842V75.8481H100.524V76.1284H100.159C99.6735 76.1284 99.253 76.2966 98.8979 76.633C98.5615 76.9695 98.3839 77.3806 98.3652 77.8666V93.4261C98.3652 93.912 98.5428 94.3326 98.8979 94.6877C99.253 95.0241 99.6735 95.1923 100.159 95.1923H100.524V95.4727H94.3842V95.1923H94.7487ZM103.885 94.3232C103.829 94.0616 103.801 93.5569 103.801 92.8093C103.801 92.0617 103.941 91.2674 104.222 90.4263H104.474C104.455 90.6319 104.446 90.8375 104.446 91.0431C104.446 92.1832 104.792 93.1364 105.483 93.9027C106.175 94.6503 107.09 95.0241 108.231 95.0241C109.408 95.0241 110.371 94.669 111.118 93.9588C111.884 93.2485 112.268 92.3608 112.268 91.2954C112.268 90.2114 111.903 89.333 111.174 88.6601L105.791 83.6699C104.782 82.7354 104.278 81.6046 104.278 80.2776C104.278 78.9506 104.717 77.8199 105.595 76.8854C106.492 75.9322 107.698 75.4556 109.212 75.4556C109.922 75.4556 110.726 75.549 111.623 75.7359H112.716V79.1842H112.464C112.464 78.3058 112.155 77.6049 111.539 77.0816C110.941 76.5583 110.165 76.2966 109.212 76.2966C108.259 76.2966 107.455 76.6144 106.801 77.2498C106.165 77.8853 105.848 78.6796 105.848 79.6328C105.848 80.586 106.221 81.4084 106.969 82.0999L112.492 87.2023C113.426 88.062 113.894 89.2395 113.894 90.7347C113.894 92.2299 113.417 93.4635 112.464 94.4354C111.511 95.3886 110.24 95.8651 108.651 95.8651C107.829 95.8651 106.95 95.7343 106.016 95.4727C105.1 95.2297 104.39 94.8465 103.885 94.3232Z" fill="#DB9865"/>
</g>
<g id="Apocalipse" filter="url(#filter1_f_316_425)">
<path d="M716.232 36.1302C717.447 35.6256 718.615 35.3733 719.736 35.3733C720.671 35.3733 721.633 35.719 722.624 36.4106C723.166 36.7844 723.773 37.5133 724.446 38.5973C724.895 39.3449 725.465 40.6999 726.156 42.6624L729.576 52.3626C730.361 54.5306 731.156 56.2501 731.959 57.521C732.782 58.8106 733.529 59.7732 734.202 60.4086C734.875 61.0628 735.576 61.5207 736.305 61.7824C737.034 62.044 737.632 62.1749 738.099 62.1749C738.585 62.1749 739.015 62.1375 739.389 62.0627L739.417 62.3431C738.52 62.6421 737.641 62.7916 736.781 62.7916C735.922 62.7916 735.062 62.5674 734.202 62.1188C733.342 61.6889 732.539 61.0815 731.791 60.2965C730.184 58.6705 728.819 56.194 727.698 52.8672L726.605 49.6712H718.923L716.989 54.6614C716.895 54.8857 716.848 55.11 716.848 55.3343C716.848 55.5586 716.942 55.8015 717.129 56.0632C717.334 56.3062 717.643 56.4277 718.054 56.4277H718.278V56.708H712.643V56.4277H712.896C713.344 56.4277 713.783 56.2968 714.213 56.0352C714.643 55.7548 714.998 55.3436 715.278 54.8016L722.231 38.1487C721.222 36.7096 719.97 35.99 718.475 35.99C717.802 35.99 717.082 36.1302 716.316 36.4106L716.232 36.1302ZM719.231 48.8301H726.324L724.11 42.2979C723.68 41.0457 723.287 40.0645 722.932 39.3543L719.231 48.8301ZM747.629 42.4942C747.629 43.3166 747.46 44.0828 747.124 44.7931C746.507 46.1201 745.423 47.0452 743.872 47.5686C743.33 47.7555 742.863 47.8489 742.47 47.8489C741.311 47.8489 740.311 47.634 739.47 47.2041V46.9237C740.835 47.2228 742.096 47.0733 743.255 46.4752C744.283 45.9519 744.984 45.0921 745.358 43.8959C745.47 43.5221 745.526 43.167 745.526 42.8306C745.526 42.4942 745.526 42.2886 745.526 42.2138C745.489 40.9055 745.143 39.8682 744.489 39.1019C743.835 38.317 742.919 37.9245 741.741 37.9245H738.517V54.6614C738.536 55.1474 738.713 55.5679 739.05 55.923C739.405 56.2594 739.826 56.4277 740.311 56.4277H740.676V56.708H734.536V56.4277H734.901C735.387 56.4277 735.798 56.2594 736.134 55.923C736.489 55.5679 736.676 55.1474 736.695 54.6614V38.9898C736.639 38.5225 736.443 38.1394 736.106 37.8404C735.77 37.5226 735.368 37.3638 734.901 37.3638H734.564L734.536 37.0834H741.853C743.648 37.0834 745.059 37.5694 746.087 38.5412C747.115 39.4944 747.629 40.8121 747.629 42.4942ZM753.293 39.5225C755.292 37.6348 757.881 36.6909 761.058 36.6909C764.254 36.6909 766.852 37.6348 768.852 39.5225C770.852 41.3915 771.852 43.8492 771.852 46.8957C771.852 49.9422 770.852 52.4093 768.852 54.297C766.852 56.166 764.254 57.1005 761.058 57.1005C757.881 57.1005 755.292 56.166 753.293 54.297C751.293 52.4093 750.293 49.9422 750.293 46.8957C750.293 43.8492 751.293 41.3915 753.293 39.5225ZM754.807 53.6802C756.395 55.3997 758.479 56.2594 761.058 56.2594C763.638 56.2594 765.712 55.3997 767.282 53.6802C768.871 51.9607 769.665 49.6992 769.665 46.8957C769.665 44.0922 768.871 41.8307 767.282 40.1112C765.712 38.3917 763.638 37.532 761.058 37.532C758.479 37.532 756.395 38.3917 754.807 40.1112C753.237 41.8307 752.452 44.0922 752.452 46.8957C752.452 49.6992 753.237 51.9607 754.807 53.6802ZM784.9 57.1005C781.947 57.0818 779.536 56.138 777.667 54.269C775.817 52.3999 774.891 49.9422 774.891 46.8957C774.891 43.8305 775.817 41.3634 777.667 39.4944C779.536 37.6254 782.003 36.6909 785.068 36.6909C787.573 36.6909 789.788 37.3264 791.713 38.5973L792.273 42.5503H792.021C791.61 40.9429 790.778 39.7094 789.526 38.8496C788.274 37.9712 786.788 37.532 785.068 37.532C782.62 37.532 780.657 38.3824 779.181 40.0832C777.723 41.784 776.994 44.0361 776.994 46.8396C776.994 49.6432 777.714 51.9047 779.153 53.6241C780.611 55.3249 782.526 56.2034 784.9 56.2594C786.993 56.2594 788.741 55.6894 790.143 54.5493C791.657 53.3158 792.572 51.3066 792.89 48.5217H793.114L792.778 52.9233C791.077 55.7081 788.451 57.1005 784.9 57.1005ZM814.583 56.4277H814.807V56.708H808.499V56.4277H808.751C809.144 56.4277 809.434 56.3062 809.62 56.0632C809.826 55.8015 809.929 55.5586 809.929 55.3343C809.929 55.11 809.891 54.8857 809.817 54.6614L808.022 49.8955H800.453L798.575 54.6895C798.5 54.9138 798.462 55.138 798.462 55.3623C798.462 55.5679 798.556 55.8015 798.743 56.0632C798.948 56.3062 799.247 56.4277 799.64 56.4277H799.892V56.708H794.257V56.4277H794.51C794.977 56.4277 795.435 56.2781 795.883 55.9791C796.332 55.6801 796.696 55.2408 796.977 54.6614L803.313 39.5785C804.004 38.0646 804.35 37.1021 804.35 36.6909H804.602L812.116 54.6614C812.377 55.2408 812.732 55.6801 813.181 55.9791C813.629 56.2781 814.097 56.4277 814.583 56.4277ZM800.789 49.0544H807.686L804.322 40.0551L800.789 49.0544ZM816.515 56.4277C817.001 56.4277 817.412 56.2594 817.748 55.923C818.103 55.5679 818.29 55.1474 818.309 54.6614V39.13C818.29 38.644 818.103 38.2329 817.748 37.8964C817.412 37.5413 817.001 37.3638 816.515 37.3638H816.15V37.0834H822.29V37.3638H821.925C821.253 37.3638 820.739 37.6535 820.384 38.2329C820.215 38.5132 820.131 38.8122 820.131 39.13V55.8389H824.14C825.523 55.8389 826.579 55.5305 827.308 54.9138C828.037 54.297 828.645 53.3812 829.131 52.1663H829.411L827.785 56.708H816.15V56.4277H816.515ZM831.846 56.4277C832.332 56.4277 832.744 56.2594 833.08 55.923C833.435 55.5679 833.622 55.1474 833.641 54.6614V39.1019C833.622 38.616 833.435 38.2048 833.08 37.8684C832.744 37.532 832.332 37.3638 831.846 37.3638H831.482V37.0834H837.622V37.3638H837.257C836.771 37.3638 836.351 37.532 835.996 37.8684C835.659 38.2048 835.482 38.616 835.463 39.1019V54.6614C835.463 55.1474 835.641 55.5679 835.996 55.923C836.351 56.2594 836.771 56.4277 837.257 56.4277H837.622V56.708H831.482V56.4277H831.846ZM854.047 42.4942C854.047 43.3166 853.879 44.0828 853.543 44.7931C852.926 46.1201 851.842 47.0452 850.29 47.5686C849.748 47.7555 849.281 47.8489 848.889 47.8489C847.73 47.8489 846.73 47.634 845.889 47.2041V46.9237C847.253 47.2228 848.515 47.0733 849.674 46.4752C850.702 45.9519 851.403 45.0921 851.776 43.8959C851.888 43.5221 851.945 43.167 851.945 42.8306C851.945 42.4942 851.945 42.2886 851.945 42.2138C851.907 40.9055 851.561 39.8682 850.907 39.1019C850.253 38.317 849.337 37.9245 848.16 37.9245H844.936V54.6614C844.954 55.1474 845.132 55.5679 845.468 55.923C845.824 56.2594 846.244 56.4277 846.73 56.4277H847.094V56.708H840.955V56.4277H841.319C841.805 56.4277 842.216 56.2594 842.553 55.923C842.908 55.5679 843.095 55.1474 843.113 54.6614V38.9898C843.057 38.5225 842.861 38.1394 842.525 37.8404C842.188 37.5226 841.786 37.3638 841.319 37.3638H840.983L840.955 37.0834H848.272C850.066 37.0834 851.477 37.5694 852.505 38.5412C853.533 39.4944 854.047 40.8121 854.047 42.4942ZM857.163 55.5586C857.107 55.2969 857.079 54.7923 857.079 54.0447C857.079 53.2971 857.219 52.5027 857.5 51.6617H857.752C857.733 51.8673 857.724 52.0729 857.724 52.2785C857.724 53.4186 858.07 54.3717 858.761 55.138C859.453 55.8856 860.369 56.2594 861.509 56.2594C862.686 56.2594 863.649 55.9043 864.396 55.1941C865.163 54.4839 865.546 53.5961 865.546 52.5308C865.546 51.4467 865.181 50.5683 864.452 49.8955L859.07 44.9052C858.06 43.9707 857.556 42.84 857.556 41.513C857.556 40.186 857.995 39.0552 858.873 38.1207C859.771 37.1675 860.976 36.6909 862.49 36.6909C863.2 36.6909 864.004 36.7844 864.901 36.9713H865.994V40.4196H865.742C865.742 39.5412 865.434 38.8403 864.817 38.317C864.219 37.7936 863.443 37.532 862.49 37.532C861.537 37.532 860.733 37.8497 860.079 38.4852C859.443 39.1206 859.126 39.915 859.126 40.8682C859.126 41.8213 859.499 42.6437 860.247 43.3352L865.77 48.4376C866.705 49.2974 867.172 50.4749 867.172 51.9701C867.172 53.4653 866.695 54.6988 865.742 55.6707C864.789 56.6239 863.518 57.1005 861.929 57.1005C861.107 57.1005 860.228 56.9697 859.294 56.708C858.378 56.465 857.668 56.0819 857.163 55.5586ZM870.833 56.4277C871.319 56.4277 871.73 56.2594 872.066 55.923C872.421 55.5679 872.608 55.1474 872.627 54.6614V38.9618C872.627 38.5132 872.449 38.1394 872.094 37.8404C871.739 37.5226 871.319 37.3638 870.833 37.3638H870.496L870.468 37.0834H878.683C879.262 37.0834 879.888 37.0273 880.561 36.9152C881.253 36.8031 881.738 36.6909 882.019 36.5788V40.1112H881.738V39.6066C881.738 39.158 881.58 38.7749 881.262 38.4571C880.963 38.1394 880.598 37.9712 880.168 37.9525H874.449V46.6154H879.187C879.561 46.5967 879.879 46.4565 880.14 46.1948C880.402 45.9332 880.533 45.6061 880.533 45.2136V44.8211H880.813V49.2507H880.533V48.8301C880.533 48.4563 880.402 48.1386 880.14 47.8769C879.897 47.6153 879.589 47.4751 879.215 47.4564H874.449V55.8389H878.458C879.841 55.8389 880.897 55.5305 881.626 54.9138C882.355 54.297 882.963 53.3812 883.449 52.1663H883.729L882.103 56.708H870.468V56.4277H870.833Z" fill="#DB9865"/>
</g>
<g id="x" filter="url(#filter2_f_316_425)">
<path d="M688.205 45.9026C688.099 46.0088 687.798 46.0619 687.303 46.0619C686.807 46.0619 686.312 45.8142 685.816 45.3186C688.365 40.9646 690.719 37.1063 692.878 33.7435C689.834 28.894 688.064 24.363 687.568 20.1507L688.896 19.248L693.143 21.3719C693.497 23.9913 694.312 26.7524 695.586 29.655C698.241 25.7258 700.506 22.5931 702.382 20.2569L706.683 19.5135L707.851 20.3631C703.781 25.0002 700.258 29.301 697.285 33.2656C699.373 37.301 702.117 41.5133 705.515 45.9026C705.515 46.1504 705.338 46.2743 704.984 46.2743C703.851 46.2743 703.073 46.0973 702.648 45.7434C699.745 42.9469 697.108 39.9027 694.736 36.6107C692.117 40.2213 689.94 43.3186 688.205 45.9026Z" fill="#D5A67B"/>
<path d="M688.205 45.9026L688.536 46.233L688.568 46.2009L688.593 46.1631L688.205 45.9026ZM685.816 45.3186L685.413 45.0825L685.231 45.3939L685.486 45.649L685.816 45.3186ZM692.878 33.7435L693.271 33.9959L693.431 33.7463L693.274 33.495L692.878 33.7435ZM687.568 20.1507L687.306 19.7643L687.071 19.9237L687.104 20.2053L687.568 20.1507ZM688.896 19.248L689.105 18.8301L688.86 18.7076L688.633 18.8616L688.896 19.248ZM693.143 21.3719L693.607 21.3093L693.573 21.0645L693.352 20.954L693.143 21.3719ZM695.586 29.655L695.158 29.8428L695.499 30.6187L695.973 29.9166L695.586 29.655ZM702.382 20.2569L702.303 19.7964L702.129 19.8265L702.018 19.9643L702.382 20.2569ZM706.683 19.5135L706.958 19.1356L706.798 19.0194L706.604 19.0531L706.683 19.5135ZM707.851 20.3631L708.202 20.6713L708.54 20.2864L708.126 19.9852L707.851 20.3631ZM697.285 33.2656L696.911 32.9852L696.735 33.2199L696.87 33.4804L697.285 33.2656ZM705.515 45.9026H705.982V45.7429L705.884 45.6166L705.515 45.9026ZM702.648 45.7434L702.324 46.0799L702.336 46.0915L702.349 46.1023L702.648 45.7434ZM694.736 36.6107L695.115 36.3376L694.738 35.8132L694.358 36.3363L694.736 36.6107ZM687.875 45.5722C687.91 45.5374 687.935 45.531 687.919 45.5372C687.906 45.5424 687.875 45.5521 687.819 45.562C687.707 45.5818 687.538 45.5947 687.303 45.5947V46.5292C687.563 46.5292 687.793 46.5155 687.981 46.4823C688.146 46.4532 688.374 46.3949 688.536 46.233L687.875 45.5722ZM687.303 45.5947C686.975 45.5947 686.591 45.4328 686.146 44.9882L685.486 45.649C686.032 46.1955 686.64 46.5292 687.303 46.5292V45.5947ZM686.219 45.5546C688.766 41.2049 691.116 37.3521 693.271 33.9959L692.485 33.491C690.321 36.8604 687.964 40.7244 685.413 45.0825L686.219 45.5546ZM693.274 33.495C690.254 28.6848 688.517 24.2199 688.032 20.0961L687.104 20.2053C687.61 24.5062 689.413 29.1031 692.482 33.9919L693.274 33.495ZM687.831 20.5371L689.158 19.6344L688.633 18.8616L687.306 19.7643L687.831 20.5371ZM688.687 19.6659L692.934 21.7898L693.352 20.954L689.105 18.8301L688.687 19.6659ZM692.68 21.4345C693.041 24.1047 693.87 26.908 695.158 29.8428L696.014 29.4672C694.754 26.5968 693.954 23.878 693.607 21.3093L692.68 21.4345ZM695.973 29.9166C698.624 25.9927 700.882 22.8717 702.747 20.5494L702.018 19.9643C700.131 22.3146 697.857 25.459 695.199 29.3934L695.973 29.9166ZM702.462 20.7173L706.763 19.9739L706.604 19.0531L702.303 19.7964L702.462 20.7173ZM706.408 19.8914L707.576 20.7409L708.126 19.9852L706.958 19.1356L706.408 19.8914ZM707.5 20.0548C703.423 24.6989 699.893 29.0091 696.911 32.9852L697.659 33.5459C700.624 29.593 704.138 25.3015 708.202 20.6713L707.5 20.0548ZM696.87 33.4804C698.974 37.5456 701.734 41.7817 705.146 46.1887L705.884 45.6166C702.5 41.2449 699.773 37.0563 697.7 33.0508L696.87 33.4804ZM705.048 45.9026C705.048 45.909 705.047 45.8922 705.06 45.8644C705.074 45.8342 705.096 45.8116 705.114 45.7986C705.13 45.7878 705.133 45.7907 705.11 45.7961C705.087 45.8014 705.047 45.8071 704.984 45.8071V46.7416C705.201 46.7416 705.447 46.7062 705.65 46.5642C705.883 46.401 705.982 46.1531 705.982 45.9026H705.048ZM704.984 45.8071C703.865 45.8071 703.236 45.625 702.947 45.3844L702.349 46.1023C702.91 46.5697 703.838 46.7416 704.984 46.7416V45.8071ZM702.972 45.4069C700.09 42.63 697.471 39.607 695.115 36.3376L694.357 36.8838C696.745 40.1984 699.401 43.2639 702.324 46.0799L702.972 45.4069ZM694.358 36.3363C691.737 39.9497 689.556 43.0519 687.817 45.6422L688.593 46.1631C690.324 43.5853 692.497 40.4929 695.115 36.8851L694.358 36.3363Z" fill="#1F1F1F" fill-opacity="0.8"/>
</g>
<g id="GPS" filter="url(#filter3_f_316_425)">
<g id="Mask group">
<mask id="mask0_316_425" style="mask-type:alpha" maskUnits="userSpaceOnUse" x="104" y="45" width="57" height="57">
<g id="noun-gps-1483344 1">
<g id="Group">
<path id="Vector" d="M132.238 49.0107C126.044 49.0107 121.024 54.0257 121.024 60.228C121.024 61.6523 121.434 63.4683 121.916 64.7208L132.238 86.69L142.56 64.7208C143.044 63.468 143.452 61.6526 143.452 60.228C143.452 54.0261 138.432 49.0107 132.238 49.0107H132.238ZM132.238 56.1879C134.491 56.1879 136.316 57.9636 136.316 60.1542C136.316 62.3447 134.491 64.1204 132.238 64.1204C129.986 64.1204 128.16 62.3447 128.16 60.1542C128.16 57.9636 129.986 56.1879 132.238 56.1879Z" fill="black"/>
<g id="t">
<path id="Vector_2" d="M111.313 96.9173C111.236 96.9573 111.155 96.9873 111.071 97.0074C110.987 97.028 110.899 97.0387 110.808 97.0387C110.536 97.0387 110.32 96.9629 110.161 96.8109C110.001 96.6582 109.922 96.4517 109.922 96.1913C109.922 95.9304 110.001 95.7239 110.161 95.5718C110.32 95.4191 110.536 95.3428 110.808 95.3428C110.899 95.3428 110.987 95.3534 111.071 95.3741C111.155 95.3941 111.236 95.4241 111.313 95.4642V95.8021C111.235 95.7495 111.158 95.7107 111.082 95.6857C111.006 95.6607 110.926 95.6482 110.842 95.6482C110.691 95.6482 110.573 95.6967 110.487 95.7933C110.401 95.8894 110.358 96.0221 110.358 96.1913C110.358 96.36 110.401 96.4927 110.487 96.5893C110.573 96.6854 110.691 96.7333 110.842 96.7333C110.926 96.7333 111.006 96.7214 111.082 96.697C111.158 96.672 111.235 96.6328 111.313 96.5793V96.9173Z" fill="black"/>
</g>
<g id="c">
<path id="Vector_3" d="M112.556 96.1137C112.521 96.098 112.487 96.0861 112.453 96.0786C112.419 96.0705 112.385 96.0661 112.351 96.0661C112.25 96.0661 112.172 96.0987 112.118 96.1637C112.064 96.2282 112.037 96.3202 112.037 96.4403V97.006H111.645V95.7796H112.037V95.9811C112.087 95.901 112.145 95.8428 112.21 95.8058C112.275 95.7683 112.354 95.7495 112.445 95.7495C112.458 95.7495 112.473 95.7505 112.488 95.752C112.503 95.753 112.526 95.7551 112.555 95.7583L112.556 96.1137Z" fill="black"/>
</g>
<g id="b">
<path id="Vector_4" d="M113.976 96.3891V96.5017H113.058C113.068 96.5937 113.102 96.6625 113.158 96.7082C113.215 96.7542 113.295 96.777 113.398 96.777C113.48 96.777 113.564 96.7652 113.65 96.7408C113.737 96.7157 113.826 96.6788 113.917 96.6294V96.931C113.824 96.966 113.732 96.9923 113.639 97.0098C113.546 97.028 113.454 97.0374 113.361 97.0374C113.139 97.0374 112.966 96.9811 112.843 96.8684C112.72 96.7558 112.659 96.5978 112.659 96.3941C112.659 96.1938 112.719 96.0367 112.841 95.9222C112.961 95.8071 113.127 95.7495 113.339 95.7495C113.531 95.7495 113.686 95.808 113.802 95.9247C113.918 96.0408 113.976 96.1957 113.976 96.3891L113.976 96.3891ZM113.573 96.2589C113.573 96.1847 113.551 96.125 113.508 96.0799C113.464 96.0342 113.408 96.0111 113.337 96.0111C113.261 96.0111 113.2 96.0324 113.152 96.0749C113.105 96.1175 113.075 96.1788 113.063 96.2589H113.573Z" fill="black"/>
</g>
<g id="e">
<path id="Vector_5" d="M114.822 96.4542C114.74 96.4542 114.678 96.4679 114.637 96.4955C114.596 96.523 114.575 96.564 114.575 96.6181C114.575 96.6682 114.592 96.7076 114.625 96.7358C114.659 96.7633 114.705 96.7771 114.763 96.7771C114.837 96.7771 114.9 96.7508 114.95 96.6982C115 96.645 115.026 96.5787 115.026 96.4992V96.4541L114.822 96.4542ZM115.42 96.3065V97.0061H115.026V96.8246C114.973 96.8991 114.914 96.9532 114.848 96.9873C114.782 97.0205 114.702 97.0374 114.608 97.0374C114.481 97.0374 114.378 97.0008 114.299 96.9272C114.219 96.8531 114.18 96.7567 114.18 96.6381C114.18 96.4948 114.229 96.3897 114.328 96.3227C114.427 96.2551 114.582 96.2214 114.794 96.2214H115.026V96.1901C115.026 96.1284 115.001 96.0834 114.952 96.0549C114.903 96.0258 114.826 96.0111 114.723 96.0111C114.639 96.0111 114.56 96.0195 114.488 96.0361C114.416 96.053 114.349 96.0781 114.288 96.1112V95.8121C114.371 95.7921 114.455 95.7767 114.539 95.7658C114.624 95.7551 114.709 95.7495 114.794 95.7495C115.015 95.7495 115.175 95.7933 115.273 95.8809C115.371 95.9679 115.42 96.1097 115.42 96.3065L115.42 96.3065Z" fill="black"/>
</g>
<g id="a">
<path id="Vector_6" d="M116.214 95.4326V95.7806H116.618V96.0609H116.214V96.5816C116.214 96.6385 116.225 96.6767 116.248 96.6967C116.271 96.7167 116.315 96.7267 116.382 96.7267H116.583V97.0071H116.248C116.093 97.0071 115.983 96.9752 115.918 96.9107C115.853 96.8456 115.821 96.7361 115.821 96.5816V96.0609H115.627V95.7806H115.821V95.4326H116.214Z" fill="black"/>
</g>
<g id="b_2">
<path id="Vector_7" d="M118.083 96.3891V96.5017H117.165C117.175 96.5937 117.208 96.6625 117.265 96.7082C117.322 96.7542 117.402 96.777 117.504 96.777C117.587 96.777 117.671 96.7652 117.757 96.7408C117.844 96.7157 117.933 96.6788 118.024 96.6294V96.931C117.931 96.966 117.838 96.9923 117.746 97.0098C117.653 97.028 117.561 97.0374 117.468 97.0374C117.246 97.0374 117.073 96.9811 116.95 96.8684C116.827 96.7558 116.766 96.5978 116.766 96.3941C116.766 96.1938 116.826 96.0367 116.947 95.9222C117.068 95.8071 117.234 95.7495 117.445 95.7495C117.638 95.7495 117.792 95.808 117.909 95.9247C118.024 96.0408 118.083 96.1957 118.083 96.3891L118.083 96.3891ZM117.68 96.2589C117.68 96.1847 117.658 96.125 117.614 96.0799C117.571 96.0342 117.514 96.0111 117.444 96.0111C117.368 96.0111 117.307 96.0324 117.259 96.0749C117.211 96.1175 117.182 96.1788 117.17 96.2589H117.68Z" fill="black"/>
</g>
<g id="j">
<path id="Vector_8" d="M119.213 95.9593V95.3022H119.607V97.0069H119.213V96.8291C119.16 96.9017 119.1 96.9549 119.035 96.9881C118.97 97.0213 118.894 97.0382 118.809 97.0382C118.658 97.0382 118.534 96.9781 118.437 96.8579C118.34 96.7378 118.292 96.5835 118.292 96.3948C118.292 96.2055 118.34 96.0507 118.437 95.9305C118.534 95.8104 118.658 95.7503 118.809 95.7503C118.894 95.7503 118.969 95.7675 119.034 95.8016C119.1 95.836 119.16 95.8886 119.213 95.9593V95.9593ZM118.955 96.7541C119.038 96.7541 119.102 96.7237 119.147 96.6627C119.191 96.6011 119.213 96.5119 119.213 96.3949C119.213 96.2782 119.191 96.1893 119.147 96.1283C119.102 96.0666 119.038 96.0357 118.955 96.0357C118.872 96.0357 118.808 96.0666 118.764 96.1283C118.719 96.1893 118.697 96.2782 118.697 96.3949C118.697 96.5119 118.719 96.6011 118.764 96.6627C118.808 96.7237 118.872 96.7541 118.955 96.7541Z" fill="black"/>
</g>
<g id="i">
<path id="Vector_9" d="M121.418 96.7541C121.502 96.7541 121.566 96.7237 121.611 96.6627C121.655 96.601 121.677 96.5119 121.677 96.3948C121.677 96.2781 121.655 96.1893 121.611 96.1283C121.566 96.0666 121.502 96.0357 121.418 96.0357C121.333 96.0357 121.269 96.0666 121.224 96.1283C121.18 96.1902 121.158 96.2791 121.158 96.3948C121.158 96.5109 121.18 96.5998 121.224 96.6614C121.269 96.7234 121.333 96.754 121.418 96.754V96.7541ZM121.158 95.9593C121.212 95.8886 121.272 95.836 121.337 95.8016C121.402 95.7675 121.478 95.7503 121.563 95.7503C121.715 95.7503 121.839 95.8104 121.936 95.9305C122.033 96.0507 122.081 96.2055 122.081 96.3948C122.081 96.5835 122.033 96.7378 121.936 96.8579C121.839 96.9781 121.715 97.0382 121.563 97.0382C121.478 97.0382 121.402 97.0213 121.337 96.9881C121.272 96.954 121.212 96.9011 121.158 96.8291V97.0069H120.766V95.3022H121.158V95.9593Z" fill="black"/>
</g>
<g id="h">
<path id="Vector_10" d="M122.21 95.7803H122.601L122.932 96.6126L123.212 95.7803H123.604L123.088 97.1232C123.036 97.259 122.976 97.3542 122.907 97.4086C122.837 97.4637 122.747 97.4912 122.634 97.4912H122.406V97.2334H122.529C122.595 97.2334 122.644 97.2224 122.674 97.2008C122.705 97.1799 122.728 97.1423 122.745 97.0882L122.757 97.0544L122.21 95.7803Z" fill="black"/>
</g>
<g id="e_2">
<path id="Vector_11" d="M125.163 96.4542C125.081 96.4542 125.02 96.4679 124.978 96.4955C124.937 96.523 124.917 96.564 124.917 96.6181C124.917 96.6682 124.933 96.7076 124.967 96.7358C125 96.7633 125.046 96.7771 125.104 96.7771C125.179 96.7771 125.241 96.7508 125.291 96.6982C125.342 96.645 125.367 96.5787 125.367 96.4992V96.4541L125.163 96.4542ZM125.762 96.3065V97.0061H125.367V96.8246C125.315 96.8991 125.255 96.9532 125.19 96.9873C125.124 97.0205 125.043 97.0374 124.949 97.0374C124.822 97.0374 124.719 97.0008 124.64 96.9272C124.561 96.8531 124.521 96.7567 124.521 96.6381C124.521 96.4948 124.57 96.3897 124.669 96.3227C124.768 96.2551 124.924 96.2214 125.136 96.2214H125.367V96.1901C125.367 96.1284 125.343 96.0834 125.293 96.0549C125.244 96.0258 125.168 96.0111 125.064 96.0111C124.98 96.0111 124.902 96.0195 124.829 96.0361C124.757 96.053 124.691 96.0781 124.629 96.1112V95.8121C124.712 95.7921 124.796 95.7767 124.88 95.7658C124.966 95.7551 125.051 95.7495 125.136 95.7495C125.357 95.7495 125.516 95.7933 125.614 95.8809C125.712 95.9679 125.762 96.1097 125.762 96.3065L125.762 96.3065Z" fill="black"/>
</g>
<g id="c_2">
<path id="Vector_12" d="M127.038 96.1137C127.003 96.098 126.968 96.0861 126.934 96.0786C126.901 96.0705 126.867 96.0661 126.833 96.0661C126.732 96.0661 126.654 96.0987 126.6 96.1637C126.546 96.2282 126.519 96.3202 126.519 96.4403V97.006H126.127V95.7796H126.519V95.9811C126.569 95.901 126.626 95.8428 126.691 95.8058C126.757 95.7683 126.836 95.7495 126.927 95.7495C126.94 95.7495 126.954 95.7505 126.969 95.752C126.985 95.753 127.007 95.7551 127.037 95.7583L127.038 96.1137Z" fill="black"/>
</g>
<g id="a_2">
<path id="Vector_13" d="M127.662 95.4326V95.7806H128.066V96.0609H127.662V96.5816C127.662 96.6385 127.673 96.6767 127.695 96.6967C127.718 96.7167 127.762 96.7267 127.829 96.7267H128.031V97.0071H127.695C127.54 97.0071 127.43 96.9752 127.365 96.9107C127.301 96.8456 127.269 96.7361 127.269 96.5816V96.0609H127.075V95.7806H127.269V95.4326H127.662Z" fill="black"/>
</g>
<g id="g">
<path id="Vector_14" d="M130.044 95.8184V96.1162C129.96 96.0812 129.879 96.0549 129.801 96.0374C129.722 96.0199 129.649 96.0111 129.579 96.0111C129.505 96.0111 129.45 96.0205 129.413 96.0386C129.377 96.0571 129.359 96.0859 129.359 96.125C129.359 96.156 129.373 96.1797 129.4 96.1963C129.428 96.2132 129.477 96.2257 129.548 96.2339L129.617 96.2439C129.818 96.2699 129.953 96.3121 130.022 96.3703C130.092 96.4288 130.126 96.5202 130.126 96.6444C130.126 96.7755 130.078 96.8741 129.981 96.9398C129.885 97.0048 129.741 97.0374 129.551 97.0374C129.469 97.0374 129.384 97.0311 129.298 97.0186C129.212 97.0061 129.123 96.987 129.032 96.961V96.6632C129.11 96.7016 129.19 96.7304 129.272 96.7495C129.354 96.768 129.438 96.7771 129.523 96.7771C129.6 96.7771 129.657 96.7667 129.696 96.7458C129.734 96.7242 129.753 96.6926 129.753 96.6506C129.753 96.6156 129.74 96.5899 129.713 96.573C129.686 96.5555 129.634 96.5424 129.554 96.533L129.486 96.5242C129.311 96.5026 129.189 96.4623 129.119 96.4028C129.049 96.3437 129.014 96.2539 129.014 96.1337C129.014 96.0036 129.058 95.9072 129.146 95.8446C129.236 95.7814 129.372 95.7495 129.557 95.7495C129.629 95.7495 129.704 95.7555 129.783 95.767C129.863 95.778 129.95 95.7952 130.044 95.8183L130.044 95.8184Z" fill="black"/>
</g>
<g id="f">
<path id="Vector_15" d="M131.654 96.2597V97.0069H131.26V96.4374C131.26 96.3298 131.257 96.2559 131.252 96.2159C131.247 96.1758 131.239 96.1464 131.227 96.127C131.212 96.102 131.191 96.0826 131.165 96.0682C131.139 96.0541 131.109 96.0469 131.076 96.0469C130.994 96.0469 130.93 96.0788 130.883 96.142C130.836 96.2046 130.813 96.2919 130.813 96.4036V97.0069H130.421V95.3022H130.813V95.9593C130.872 95.8886 130.935 95.836 131.001 95.8016C131.068 95.7675 131.141 95.7503 131.221 95.7503C131.363 95.7503 131.471 95.7941 131.544 95.8817C131.617 95.9687 131.654 96.0945 131.654 96.2597V96.2597Z" fill="black"/>
</g>
<g id="d">
<path id="Vector_16" d="M132.601 96.0299C132.514 96.0299 132.448 96.0612 132.402 96.1237C132.356 96.1863 132.333 96.2764 132.333 96.3941C132.333 96.5117 132.356 96.6018 132.402 96.6644C132.448 96.7264 132.514 96.757 132.601 96.757C132.686 96.757 132.751 96.7264 132.796 96.6644C132.842 96.6018 132.865 96.5117 132.865 96.3941C132.865 96.2764 132.842 96.1863 132.796 96.1237C132.751 96.0612 132.686 96.0299 132.601 96.0299V96.0299ZM132.601 95.7495C132.812 95.7495 132.977 95.8068 133.096 95.921C133.214 96.0346 133.273 96.1923 133.273 96.3941C133.273 96.5953 133.214 96.753 133.096 96.8672C132.977 96.9807 132.812 97.0374 132.601 97.0374C132.389 97.0374 132.223 96.9807 132.104 96.8672C131.985 96.7529 131.925 96.5953 131.925 96.3941C131.925 96.1923 131.985 96.0345 132.104 95.921C132.223 95.8068 132.389 95.7495 132.601 95.7495V95.7495Z" fill="black"/>
</g>
<g id="s">
<path id="Vector_17" d="M133.951 96.8284V97.473H133.559V95.7796H133.951V95.9585C134.005 95.8878 134.065 95.8352 134.13 95.8008C134.195 95.7667 134.271 95.7495 134.356 95.7495C134.508 95.7495 134.632 95.8096 134.729 95.9297C134.826 96.0499 134.874 96.2048 134.874 96.3941C134.874 96.5827 134.826 96.737 134.729 96.8571C134.632 96.9773 134.508 97.0374 134.356 97.0374C134.271 97.0374 134.195 97.0205 134.13 96.9873C134.065 96.9532 134.005 96.9003 133.951 96.8284V96.8284ZM134.211 96.0349C134.127 96.0349 134.062 96.0659 134.017 96.1275C133.973 96.1895 133.951 96.2783 133.951 96.3941C133.951 96.5102 133.973 96.599 134.017 96.6607C134.062 96.7226 134.127 96.7533 134.211 96.7533C134.295 96.7533 134.359 96.7229 134.404 96.6619C134.448 96.6003 134.47 96.5111 134.47 96.3941C134.47 96.2774 134.448 96.1885 134.404 96.1275C134.359 96.0659 134.295 96.0349 134.211 96.0349V96.0349Z" fill="black"/>
</g>
<g id="r">
<path id="Vector_18" d="M110.805 97.5449V97.8027H110.589C110.534 97.8027 110.495 97.8128 110.472 97.8328C110.451 97.8528 110.44 97.8879 110.44 97.9379V98.023H110.775V98.3034H110.44V99.2495H110.048V98.3034H109.853V98.023H110.048V97.9379C110.048 97.8046 110.085 97.7058 110.16 97.6413C110.234 97.5772 110.349 97.5449 110.506 97.5449L110.805 97.5449Z" fill="black"/>
</g>
<g id="c_3">
<path id="Vector_19" d="M111.886 98.3568C111.851 98.3412 111.817 98.3293 111.782 98.3218C111.749 98.3137 111.715 98.3093 111.681 98.3093C111.58 98.3093 111.502 98.3418 111.448 98.4069C111.394 98.4714 111.367 98.5634 111.367 98.6835V99.2492H110.975V98.0227H111.367V98.2242C111.417 98.1441 111.475 98.0859 111.54 98.049C111.605 98.0114 111.684 97.9927 111.775 97.9927C111.788 97.9927 111.803 97.9936 111.818 97.9952C111.833 97.9961 111.856 97.9983 111.885 98.0014L111.886 98.3568Z" fill="black"/>
</g>
<g id="d_2">
<path id="Vector_20" d="M112.665 98.273C112.578 98.273 112.511 98.3043 112.466 98.3669C112.42 98.4295 112.397 98.5196 112.397 98.6372C112.397 98.7549 112.42 98.845 112.466 98.9076C112.511 98.9695 112.578 99.0002 112.665 99.0002C112.75 99.0002 112.815 98.9695 112.86 98.9076C112.906 98.845 112.929 98.7549 112.929 98.6372C112.929 98.5196 112.906 98.4295 112.86 98.3669C112.815 98.3043 112.75 98.273 112.665 98.273V98.273ZM112.665 97.9927C112.876 97.9927 113.041 98.0499 113.159 98.1641C113.277 98.2777 113.337 98.4354 113.337 98.6372C113.337 98.8384 113.277 98.9961 113.159 99.1103C113.041 99.2239 112.876 99.2805 112.665 99.2805C112.453 99.2805 112.287 99.2239 112.168 99.1103C112.048 98.9961 111.989 98.8384 111.989 98.6372C111.989 98.4354 112.048 98.2777 112.168 98.1641C112.287 98.0499 112.453 97.9927 112.665 97.9927V97.9927Z" fill="black"/>
</g>
<g id="q">
<path id="Vector_21" d="M114.759 98.2267C114.808 98.151 114.867 98.0928 114.935 98.0528C115.003 98.0127 115.078 97.9927 115.16 97.9927C115.301 97.9927 115.408 98.0365 115.482 98.1241C115.556 98.2111 115.593 98.3369 115.593 98.5021V99.2493H115.199V98.6097V98.5809C115.2 98.5703 115.2 98.5553 115.2 98.5359C115.2 98.4492 115.187 98.3866 115.162 98.3481C115.137 98.309 115.096 98.2893 115.039 98.2893C114.964 98.2893 114.907 98.3203 114.866 98.3819C114.825 98.4429 114.804 98.5315 114.804 98.6472V99.2492H114.409V98.6097C114.409 98.4739 114.397 98.3866 114.374 98.3481C114.351 98.309 114.309 98.2893 114.249 98.2893C114.174 98.2893 114.116 98.3203 114.075 98.3819C114.034 98.4429 114.014 98.5308 114.014 98.646V99.2492H113.62V98.0227H114.014V98.2017C114.062 98.1326 114.117 98.0803 114.179 98.0453C114.242 98.0102 114.31 97.9927 114.386 97.9927C114.471 97.9927 114.546 98.0134 114.611 98.054C114.676 98.095 114.725 98.1526 114.759 98.2267L114.759 98.2267Z" fill="black"/>
</g>
<g id="a_3">
<path id="Vector_22" d="M117.168 97.6748V98.0227H117.572V98.3031H117.168V98.8237C117.168 98.8807 117.179 98.9189 117.202 98.9389C117.224 98.9589 117.269 98.9689 117.336 98.9689H117.537V99.2493H117.202C117.047 99.2493 116.937 99.2174 116.872 99.1529C116.807 99.0878 116.775 98.9783 116.775 98.8237V98.3031H116.581V98.0227H116.775V97.6748H117.168Z" fill="black"/>
</g>
<g id="f_2">
<path id="Vector_23" d="M119.045 98.5024V99.2495H118.651V98.6801C118.651 98.5724 118.648 98.4986 118.643 98.4586C118.638 98.4185 118.63 98.3891 118.618 98.3697C118.603 98.3447 118.582 98.3253 118.556 98.3109C118.53 98.2968 118.5 98.2896 118.467 98.2896C118.385 98.2896 118.321 98.3215 118.274 98.3847C118.227 98.4473 118.204 98.5346 118.204 98.6463V99.2495H117.812V97.5449H118.204V98.202C118.263 98.1313 118.326 98.0787 118.392 98.0443C118.458 98.0102 118.532 97.993 118.612 97.993C118.754 97.993 118.861 98.0368 118.935 98.1244C119.008 98.2114 119.045 98.3372 119.045 98.5024V98.5024Z" fill="black"/>
</g>
<g id="b_3">
<path id="Vector_24" d="M120.633 98.6322V98.7449H119.715C119.725 98.8369 119.758 98.9057 119.815 98.9514C119.872 98.9974 119.952 99.0202 120.054 99.0202C120.137 99.0202 120.221 99.0083 120.307 98.9839C120.394 98.9589 120.483 98.922 120.574 98.8725V99.1742C120.481 99.2092 120.389 99.2355 120.296 99.253C120.203 99.2712 120.111 99.2805 120.018 99.2805C119.796 99.2805 119.623 99.2242 119.5 99.1116C119.377 98.9989 119.316 98.8409 119.316 98.6372C119.316 98.437 119.376 98.2799 119.498 98.1654C119.618 98.0502 119.784 97.9927 119.996 97.9927C120.188 97.9927 120.343 98.0512 120.459 98.1679C120.574 98.284 120.633 98.4389 120.633 98.6322L120.633 98.6322ZM120.23 98.5021C120.23 98.4279 120.208 98.3681 120.165 98.3231C120.121 98.2774 120.064 98.2543 119.994 98.2543C119.918 98.2543 119.857 98.2755 119.809 98.3181C119.762 98.3606 119.732 98.422 119.72 98.5021H120.23Z" fill="black"/>
</g>
<g id="p">
<path id="Vector_25" d="M121.728 97.6143H122.199L122.793 98.7357V97.6143H123.192V99.2488H122.722L122.127 98.1274V99.2488H121.728V97.6143Z" fill="black"/>
</g>
<g id="d_3">
<path id="Vector_26" d="M124.171 98.273C124.084 98.273 124.018 98.3043 123.972 98.3669C123.926 98.4295 123.903 98.5196 123.903 98.6372C123.903 98.7549 123.926 98.845 123.972 98.9076C124.018 98.9695 124.084 99.0002 124.171 99.0002C124.256 99.0002 124.321 98.9695 124.366 98.9076C124.412 98.845 124.435 98.7549 124.435 98.6372C124.435 98.5196 124.412 98.4295 124.366 98.3669C124.321 98.3043 124.256 98.273 124.171 98.273V98.273ZM124.171 97.9927C124.382 97.9927 124.547 98.0499 124.665 98.1641C124.784 98.2777 124.843 98.4354 124.843 98.6372C124.843 98.8384 124.784 98.9961 124.665 99.1103C124.547 99.2239 124.382 99.2805 124.171 99.2805C123.959 99.2805 123.793 99.2239 123.674 99.1103C123.555 98.9961 123.495 98.8384 123.495 98.6372C123.495 98.4354 123.555 98.2777 123.674 98.1641C123.793 98.0499 123.959 97.9927 124.171 97.9927V97.9927Z" fill="black"/>
</g>
<g id="o">
<path id="Vector_27" d="M125.115 98.7709V98.0225H125.509V98.1451C125.509 98.2121 125.508 98.2953 125.508 98.3954C125.507 98.4956 125.506 98.5625 125.506 98.5957C125.506 98.6952 125.509 98.7665 125.514 98.8097C125.52 98.8532 125.528 98.8845 125.54 98.9036C125.557 98.9295 125.578 98.9496 125.604 98.9636C125.63 98.9771 125.659 98.9837 125.693 98.9837C125.775 98.9837 125.839 98.9524 125.886 98.8898C125.932 98.8272 125.956 98.7402 125.956 98.6282V98.0225H126.348V99.249H125.956V99.0712C125.896 99.1432 125.834 99.1961 125.768 99.2302C125.702 99.2633 125.629 99.2802 125.549 99.2802C125.408 99.2802 125.3 99.2371 125.226 99.1501C125.152 99.0634 125.115 98.937 125.115 98.7709V98.7709Z" fill="black"/>
</g>
<g id="n">
<path id="Vector_28" d="M127.958 98.502V99.2492H127.564V98.6773C127.564 98.5715 127.561 98.4983 127.556 98.4582C127.551 98.4182 127.543 98.3888 127.531 98.3694C127.516 98.3443 127.495 98.3249 127.469 98.3105C127.443 98.2965 127.413 98.2893 127.38 98.2893C127.298 98.2893 127.234 98.3212 127.187 98.3844C127.14 98.447 127.117 98.5343 127.117 98.646V99.2492H126.725V98.0227H127.117V98.2017C127.176 98.131 127.239 98.0784 127.305 98.044C127.371 98.0099 127.445 97.9927 127.525 97.9927C127.667 97.9927 127.774 98.0365 127.848 98.1241C127.921 98.2111 127.958 98.3369 127.958 98.5021V98.502Z" fill="black"/>
</g>
<g id="m">
<path id="Vector_29" d="M129.12 97.6143H129.82C130.028 97.6143 130.187 97.6606 130.298 97.7532C130.41 97.8452 130.466 97.9766 130.466 98.1474C130.466 98.3186 130.41 98.4503 130.298 98.5429C130.187 98.6355 130.028 98.6819 129.82 98.6819H129.541V99.2488H129.12V97.6143ZM129.541 97.9196V98.3765H129.775C129.857 98.3765 129.92 98.3564 129.964 98.3164C130.009 98.2763 130.032 98.22 130.032 98.1474C130.032 98.0742 130.009 98.0179 129.964 97.9785C129.92 97.9393 129.857 97.9196 129.775 97.9196L129.541 97.9196Z" fill="black"/>
</g>
<g id="c_4">
<path id="Vector_30" d="M131.658 98.3568C131.623 98.3412 131.588 98.3293 131.554 98.3218C131.521 98.3137 131.487 98.3093 131.453 98.3093C131.352 98.3093 131.274 98.3418 131.22 98.4069C131.166 98.4714 131.139 98.5634 131.139 98.6835V99.2492H130.747V98.0227H131.139V98.2242C131.189 98.1441 131.246 98.0859 131.311 98.049C131.377 98.0114 131.456 97.9927 131.547 97.9927C131.56 97.9927 131.574 97.9936 131.589 97.9952C131.605 97.9961 131.627 97.9983 131.657 98.0014L131.658 98.3568Z" fill="black"/>
</g>
<g id="d_4">
<path id="Vector_31" d="M132.436 98.273C132.349 98.273 132.282 98.3043 132.237 98.3669C132.191 98.4295 132.168 98.5196 132.168 98.6372C132.168 98.7549 132.191 98.845 132.237 98.9076C132.282 98.9695 132.349 99.0002 132.436 99.0002C132.521 99.0002 132.586 98.9695 132.631 98.9076C132.677 98.845 132.7 98.7549 132.7 98.6372C132.7 98.5196 132.677 98.4295 132.631 98.3669C132.586 98.3043 132.521 98.273 132.436 98.273V98.273ZM132.436 97.9927C132.647 97.9927 132.811 98.0499 132.93 98.1641C133.048 98.2777 133.108 98.4354 133.108 98.6372C133.108 98.8384 133.048 98.9961 132.93 99.1103C132.811 99.2239 132.647 99.2805 132.436 99.2805C132.223 99.2805 132.058 99.2239 131.939 99.1103C131.819 98.9961 131.76 98.8384 131.76 98.6372C131.76 98.4354 131.819 98.2777 131.939 98.1641C132.058 98.0499 132.223 97.9927 132.436 97.9927V97.9927Z" fill="black"/>
</g>
<g id="l">
<path id="Vector_32" d="M133.393 98.023H133.785V99.227C133.785 99.3913 133.745 99.5168 133.666 99.6037C133.588 99.6904 133.473 99.7339 133.323 99.7339H133.129V99.4761H133.198C133.272 99.4761 133.323 99.4592 133.351 99.426C133.379 99.3925 133.393 99.3262 133.393 99.227L133.393 98.023ZM133.393 97.5449H133.785V97.8653H133.393V97.5449Z" fill="black"/>
</g>
<g id="b_4">
<path id="Vector_33" d="M135.386 98.6322V98.7449H134.469C134.479 98.8369 134.512 98.9057 134.569 98.9514C134.625 98.9974 134.705 99.0202 134.808 99.0202C134.891 99.0202 134.975 99.0083 135.061 98.9839C135.147 98.9589 135.236 98.922 135.327 98.8725V99.1742C135.235 99.2092 135.142 99.2355 135.049 99.253C134.957 99.2712 134.864 99.2805 134.772 99.2805C134.549 99.2805 134.377 99.2242 134.253 99.1116C134.131 98.9989 134.069 98.8409 134.069 98.6372C134.069 98.437 134.13 98.2799 134.251 98.1654C134.372 98.0502 134.538 97.9927 134.749 97.9927C134.942 97.9927 135.096 98.0512 135.212 98.1679C135.328 98.284 135.386 98.4389 135.386 98.6322L135.386 98.6322ZM134.983 98.5021C134.983 98.4279 134.961 98.3681 134.918 98.3231C134.875 98.2774 134.818 98.2543 134.748 98.2543C134.672 98.2543 134.61 98.2755 134.563 98.3181C134.515 98.3606 134.485 98.422 134.474 98.5021H134.983Z" fill="black"/>
</g>
<g id="k">
<path id="Vector_34" d="M136.673 98.0615V98.3806C136.621 98.344 136.567 98.3168 136.513 98.2993C136.46 98.2818 136.404 98.273 136.347 98.273C136.237 98.273 136.152 98.3052 136.09 98.3694C136.029 98.4329 135.999 98.5221 135.999 98.6372C135.999 98.7517 136.029 98.8409 136.09 98.9051C136.152 98.9686 136.237 99.0002 136.347 99.0002C136.407 99.0002 136.466 98.9914 136.521 98.9739C136.576 98.9558 136.626 98.9285 136.673 98.8926V99.213C136.612 99.2355 136.55 99.2521 136.487 99.263C136.424 99.2746 136.361 99.2805 136.297 99.2805C136.075 99.2805 135.902 99.2239 135.777 99.1103C135.653 98.9971 135.591 98.8394 135.591 98.6372C135.591 98.4345 135.653 98.2765 135.777 98.1629C135.902 98.0496 136.075 97.9927 136.297 97.9927C136.361 97.9927 136.424 97.9986 136.487 98.0102C136.55 98.0211 136.611 98.0384 136.673 98.0615V98.0615Z" fill="black"/>
</g>
<g id="a_4">
<path id="Vector_35" d="M137.441 97.6748V98.0227H137.845V98.3031H137.441V98.8237C137.441 98.8807 137.452 98.9189 137.475 98.9389C137.497 98.9589 137.541 98.9689 137.608 98.9689H137.81V99.2493H137.475C137.319 99.2493 137.209 99.2174 137.144 99.1529C137.08 99.0878 137.048 98.9783 137.048 98.8237V98.3031H136.854V98.0227H137.048V97.6748H137.441Z" fill="black"/>
</g>
</g>
</g>
</mask>
<g mask="url(#mask0_316_425)">
<rect id="Rectangle 9" x="107.568" y="43.9263" width="48.9681" height="49.3418" fill="#D5A67B"/>
</g>
</g>
</g>
<g id="Vector 27" filter="url(#filter4_df_316_425)">
<path d="M131.924 100.46C68.8448 205.592 254.988 218.058 280.687 168.996C306.386 119.935 163.874 147.185 175.556 100.46C187.237 53.7344 243.307 21.0269 280.687 49.0618C318.068 77.0967 356.648 199.483 423.199 182.229C486.278 165.875 409.182 42.0531 474.597 42.0531C540.013 42.0531 549.358 189.238 605.428 191.574C661.498 193.91 579.729 39.7168 668.507 32.708" stroke="url(#paint0_linear_316_425)" stroke-width="7.00878" stroke-linecap="round" stroke-linejoin="round" stroke-dasharray="37.38 37.38" shape-rendering="crispEdges"/>
</g>
</g>
<g id="Group 156">
<g id="JornadA" filter="url(#filter5_f_316_425)">
<path d="M171.141 174.76C173.159 175.432 175.178 175.769 177.196 175.769C179.14 175.769 181.196 175.358 183.364 174.535C185.532 173.713 187.513 172.405 189.308 170.61C191.102 168.891 192.56 166.274 193.681 162.761C194.877 159.247 195.475 155.098 195.475 150.313V89.3085C195.401 87.3647 194.653 85.72 193.233 84.3743C191.887 82.9538 190.242 82.2436 188.298 82.2436H186.841V81.1222H211.399V82.2436H209.942C207.998 82.2436 206.316 82.9165 204.895 84.2621C203.55 85.6078 202.839 87.2899 202.765 89.3085V150.649C202.765 155.733 201.98 160.181 200.41 163.994C198.84 167.807 196.858 170.685 194.466 172.629C189.981 176.143 185.009 177.9 179.551 177.9C176.337 177.9 173.384 177.264 170.692 175.993L171.141 174.76ZM232.295 90.8784C240.295 83.3276 250.649 79.5522 263.358 79.5522C276.142 79.5522 286.534 83.3276 294.533 90.8784C302.533 98.3545 306.532 108.185 306.532 120.371C306.532 132.557 302.533 142.426 294.533 149.977C286.534 157.453 276.142 161.191 263.358 161.191C250.649 161.191 240.295 157.453 232.295 149.977C224.296 142.426 220.296 132.557 220.296 120.371C220.296 108.185 224.296 98.3545 232.295 90.8784ZM238.351 147.509C244.705 154.387 253.041 157.826 263.358 157.826C273.675 157.826 281.973 154.387 288.253 147.509C294.608 140.631 297.785 131.585 297.785 120.371C297.785 109.157 294.608 100.111 288.253 93.2334C281.973 86.3554 273.675 82.9165 263.358 82.9165C253.041 82.9165 244.705 86.3554 238.351 93.2334C232.071 100.111 228.931 109.157 228.931 120.371C228.931 131.585 232.071 140.631 238.351 147.509ZM338.506 84.5986H331.329V151.434C331.329 153.378 332.002 155.06 333.348 156.481C334.768 157.826 336.488 158.499 338.506 158.499H339.852L339.964 159.621H315.405V158.499H316.863C318.807 158.499 320.452 157.826 321.797 156.481C323.218 155.135 323.965 153.49 324.04 151.546V89.3085C323.965 87.3647 323.218 85.72 321.797 84.3743C320.452 82.9538 318.807 82.2436 316.863 82.2436H315.405V81.1222H345.683C352.486 81.1222 357.832 83.0286 361.719 86.8414C365.607 90.5794 367.551 95.4762 367.551 101.532C367.551 107.513 365.682 112.708 361.944 117.119C358.28 121.455 353.795 123.623 348.487 123.623C349.608 124.147 350.917 125.193 352.412 126.763C353.982 128.259 355.365 129.829 356.561 131.473C362.99 140.669 367.177 146.351 369.121 148.519C371.064 150.612 372.448 152.07 373.27 152.892C374.092 153.64 374.989 154.387 375.961 155.135C376.933 155.883 377.905 156.481 378.877 156.929C381.045 157.976 383.363 158.499 385.83 158.499V159.621H379.662C376.447 159.621 373.457 159.06 370.691 157.938C367.925 156.742 365.831 155.546 364.411 154.35C363.065 153.079 361.869 151.883 360.822 150.762C359.85 149.565 357.084 145.678 352.524 139.099C347.963 132.52 345.309 128.782 344.562 127.885C343.814 126.913 343.029 125.978 342.207 125.081C339.815 122.539 337.422 121.269 335.03 121.269V120.147C335.628 120.222 336.413 120.259 337.385 120.259C338.357 120.259 339.553 120.222 340.973 120.147C350.244 119.923 356.075 116.035 358.467 108.485C358.916 106.989 359.14 105.606 359.14 104.335C359.14 102.99 359.14 102.13 359.14 101.756C358.991 96.7471 357.682 92.7101 355.215 89.6449C352.748 86.5797 349.421 84.935 345.235 84.7107C343.44 84.6359 341.198 84.5986 338.506 84.5986ZM471.814 82.2436C469.945 82.2436 468.338 82.9165 466.992 84.2621C465.647 85.5331 464.936 87.103 464.862 88.972V146.837C464.862 151.173 465.123 155.285 465.647 159.172L465.871 161.191H464.862L403.745 95.9248V151.771C403.745 153.64 404.418 155.247 405.763 156.593C407.109 157.864 408.717 158.499 410.586 158.499H412.716V159.621H389.615V158.499H391.746C393.615 158.499 395.222 157.864 396.568 156.593C397.914 155.247 398.586 153.602 398.586 151.659V93.4577C398.586 88.8973 398.325 84.8229 397.801 81.2343L397.577 79.4401H398.699L459.815 144.706V89.0842C459.74 87.1404 459.03 85.5331 457.685 84.2621C456.339 82.9165 454.732 82.2436 452.863 82.2436H450.732V81.1222H473.833V82.2436H471.814ZM557.509 158.499H558.406V159.621H533.174V158.499H534.184C535.754 158.499 536.912 158.013 537.66 157.041C538.482 155.995 538.894 155.023 538.894 154.126C538.894 153.229 538.744 152.331 538.445 151.434L531.268 132.37H500.99L493.477 151.546C493.178 152.444 493.028 153.341 493.028 154.238C493.028 155.06 493.402 155.995 494.15 157.041C494.972 158.013 496.168 158.499 497.738 158.499H498.747V159.621H476.207V158.499H477.216C479.085 158.499 480.917 157.901 482.711 156.705C484.505 155.509 485.963 153.752 487.085 151.434L512.428 91.1027C515.195 85.0471 516.578 81.197 516.578 79.5522H517.587L547.641 151.434C548.687 153.752 550.108 155.509 551.902 156.705C553.696 157.901 555.565 158.499 557.509 158.499ZM502.336 129.006H529.922L516.465 93.0091L502.336 129.006ZM601.795 81.1222C613.756 81.1222 623.438 84.7481 630.839 91.9998C638.315 99.1768 642.053 108.634 642.053 120.371C642.053 132.109 638.315 141.603 630.839 148.855C623.438 156.032 613.756 159.621 601.795 159.621H563.779V158.499H565.237C567.181 158.499 568.825 157.826 570.171 156.481C571.592 155.06 572.339 153.378 572.414 151.434V88.6356C572.414 86.8414 571.666 85.3462 570.171 84.15C568.751 82.8791 567.106 82.2436 565.237 82.2436H563.891L563.779 81.1222H601.795ZM579.703 84.4864V156.256H601.795C608.075 156.256 613.607 154.761 618.392 151.771C623.251 148.78 626.989 144.594 629.606 139.211C632.297 133.754 633.643 127.474 633.643 120.371C633.643 109.606 630.69 100.934 624.784 94.3548C618.952 87.7759 611.289 84.4864 601.795 84.4864H579.703ZM656.91 77.3094C661.77 75.2909 666.442 74.2816 670.928 74.2816C674.666 74.2816 678.516 75.6647 682.478 78.4308C684.646 79.926 687.076 82.8417 689.767 87.1778C691.562 90.1682 693.842 95.5883 696.608 103.438L710.289 142.239C713.429 150.911 716.606 157.789 719.821 162.873C723.11 168.031 726.101 171.881 728.792 174.423C731.484 177.04 734.287 178.871 737.203 179.918C740.118 180.965 742.511 181.488 744.38 181.488C746.324 181.488 748.043 181.338 749.538 181.039L749.65 182.161C746.062 183.357 742.548 183.955 739.109 183.955C735.67 183.955 732.231 183.058 728.792 181.264C725.353 179.544 722.139 177.115 719.148 173.975C712.719 167.47 707.261 157.565 702.776 144.257L698.402 131.473H667.676L659.938 151.434C659.564 152.331 659.377 153.229 659.377 154.126C659.377 155.023 659.751 155.995 660.499 157.041C661.321 158.013 662.555 158.499 664.199 158.499H665.096V159.621H642.556V158.499H643.565C645.36 158.499 647.117 157.976 648.836 156.929C650.556 155.808 651.976 154.163 653.097 151.995L680.908 85.3836C676.871 79.627 671.862 76.7487 665.881 76.7487C663.19 76.7487 660.312 77.3094 657.247 78.4308L656.91 77.3094ZM668.909 128.109H697.281L688.422 101.98C686.702 96.9714 685.132 93.0465 683.712 90.2056L668.909 128.109Z" fill="#180F09"/>
</g>
<g id="JornadA_2" filter="url(#filter6_i_316_425)">
<path d="M164.141 168.894C166.159 169.567 168.178 169.903 170.196 169.903C172.14 169.903 174.196 169.492 176.364 168.67C178.532 167.847 180.513 166.539 182.308 164.745C184.102 163.025 185.56 160.409 186.681 156.895C187.877 153.381 188.475 149.232 188.475 144.447V83.4428C188.401 81.499 187.653 79.8543 186.233 78.5086C184.887 77.0881 183.242 76.3779 181.298 76.3779H179.841V75.2565H204.399V76.3779H202.942C200.998 76.3779 199.316 77.0507 197.895 78.3964C196.55 79.7421 195.839 81.4242 195.765 83.4428V144.784C195.765 149.867 194.98 154.316 193.41 158.128C191.84 161.941 189.858 164.819 187.466 166.763C182.981 170.277 178.009 172.034 172.551 172.034C169.337 172.034 166.384 171.398 163.692 170.127L164.141 168.894ZM225.295 85.0127C233.295 77.4619 243.649 73.6865 256.358 73.6865C269.142 73.6865 279.534 77.4619 287.533 85.0127C295.533 92.4888 299.532 102.32 299.532 114.506C299.532 126.692 295.533 136.56 287.533 144.111C279.534 151.587 269.142 155.325 256.358 155.325C243.649 155.325 233.295 151.587 225.295 144.111C217.296 136.56 213.296 126.692 213.296 114.506C213.296 102.32 217.296 92.4888 225.295 85.0127ZM231.351 141.644C237.705 148.522 246.041 151.961 256.358 151.961C266.675 151.961 274.973 148.522 281.253 141.644C287.608 134.766 290.785 125.72 290.785 114.506C290.785 103.292 287.608 94.2456 281.253 87.3677C274.973 80.4897 266.675 77.0507 256.358 77.0507C246.041 77.0507 237.705 80.4897 231.351 87.3677C225.071 94.2456 221.931 103.292 221.931 114.506C221.931 125.72 225.071 134.766 231.351 141.644ZM331.506 78.7328H324.329V145.569C324.329 147.512 325.002 149.194 326.348 150.615C327.768 151.961 329.488 152.633 331.506 152.633H332.852L332.964 153.755H308.405V152.633H309.863C311.807 152.633 313.452 151.961 314.797 150.615C316.218 149.269 316.965 147.625 317.04 145.681V83.4428C316.965 81.499 316.218 79.8543 314.797 78.5086C313.452 77.0881 311.807 76.3779 309.863 76.3779H308.405V75.2565H338.683C345.486 75.2565 350.832 77.1629 354.719 80.9757C358.607 84.7137 360.551 89.6105 360.551 95.6661C360.551 101.647 358.682 106.843 354.944 111.254C351.28 115.59 346.795 117.758 341.487 117.758C342.608 118.281 343.917 119.328 345.412 120.898C346.982 122.393 348.365 123.963 349.561 125.608C355.99 134.803 360.177 140.485 362.121 142.653C364.064 144.746 365.448 146.204 366.27 147.026C367.092 147.774 367.989 148.522 368.961 149.269C369.933 150.017 370.905 150.615 371.877 151.064C374.045 152.11 376.363 152.633 378.83 152.633V153.755H372.662C369.447 153.755 366.457 153.194 363.691 152.073C360.925 150.877 358.831 149.68 357.411 148.484C356.065 147.213 354.869 146.017 353.822 144.896C352.85 143.7 350.084 139.812 345.524 133.233C340.963 126.654 338.309 122.916 337.562 122.019C336.814 121.047 336.029 120.113 335.207 119.216C332.815 116.674 330.422 115.403 328.03 115.403V114.281C328.628 114.356 329.413 114.394 330.385 114.394C331.357 114.394 332.553 114.356 333.973 114.281C343.244 114.057 349.075 110.17 351.467 102.619C351.916 101.124 352.14 99.7405 352.14 98.4696C352.14 97.1239 352.14 96.2642 352.14 95.8904C351.991 90.8814 350.682 86.8444 348.215 83.7792C345.748 80.714 342.421 79.0693 338.235 78.845C336.44 78.7702 334.198 78.7328 331.506 78.7328ZM464.814 76.3779C462.945 76.3779 461.338 77.0507 459.992 78.3964C458.647 79.6674 457.936 81.2373 457.862 83.1063V140.971C457.862 145.307 458.123 149.419 458.647 153.306L458.871 155.325H457.862L396.745 90.059V145.905C396.745 147.774 397.418 149.381 398.763 150.727C400.109 151.998 401.717 152.633 403.586 152.633H405.716V153.755H382.615V152.633H384.746C386.615 152.633 388.222 151.998 389.568 150.727C390.914 149.381 391.586 147.737 391.586 145.793V87.592C391.586 83.0316 391.325 78.9571 390.801 75.3686L390.577 73.5744H391.699L452.815 138.84V83.2185C452.74 81.2747 452.03 79.6674 450.685 78.3964C449.339 77.0507 447.732 76.3779 445.863 76.3779H443.732V75.2565H466.833V76.3779H464.814ZM550.509 152.633H551.406V153.755H526.174V152.633H527.184C528.754 152.633 529.912 152.148 530.66 151.176C531.482 150.129 531.894 149.157 531.894 148.26C531.894 147.363 531.744 146.466 531.445 145.569L524.268 126.505H493.99L486.477 145.681C486.178 146.578 486.028 147.475 486.028 148.372C486.028 149.195 486.402 150.129 487.15 151.176C487.972 152.148 489.168 152.633 490.738 152.633H491.747V153.755H469.207V152.633H470.216C472.085 152.633 473.917 152.035 475.711 150.839C477.505 149.643 478.963 147.886 480.085 145.569L505.428 85.237C508.195 79.1814 509.578 75.3312 509.578 73.6865H510.587L540.641 145.569C541.687 147.886 543.108 149.643 544.902 150.839C546.696 152.035 548.565 152.633 550.509 152.633ZM495.336 123.141H522.922L509.465 87.1434L495.336 123.141ZM594.795 75.2565C606.756 75.2565 616.438 78.8824 623.839 86.1341C631.315 93.3111 635.053 102.768 635.053 114.506C635.053 126.243 631.315 135.738 623.839 142.989C616.438 150.166 606.756 153.755 594.795 153.755H556.779V152.633H558.237C560.181 152.633 561.825 151.961 563.171 150.615C564.592 149.194 565.339 147.512 565.414 145.569V82.7699C565.414 80.9757 564.666 79.4805 563.171 78.2843C561.751 77.0134 560.106 76.3779 558.237 76.3779H556.891L556.779 75.2565H594.795ZM572.703 78.6207V150.391H594.795C601.075 150.391 606.607 148.895 611.392 145.905C616.251 142.915 619.989 138.728 622.606 133.345C625.297 127.888 626.643 121.608 626.643 114.506C626.643 103.74 623.69 95.068 617.784 88.4891C611.952 81.9102 604.289 78.6207 594.795 78.6207H572.703ZM649.91 71.4437C654.77 69.4252 659.442 68.4159 663.928 68.4159C667.666 68.4159 671.516 69.799 675.478 72.5651C677.646 74.0603 680.076 76.976 682.767 81.3121C684.562 84.3025 686.842 89.7226 689.608 97.5725L703.289 136.373C706.429 145.045 709.606 151.923 712.821 157.007C716.11 162.165 719.101 166.016 721.792 168.557C724.484 171.174 727.287 173.006 730.203 174.052C733.118 175.099 735.511 175.622 737.38 175.622C739.324 175.622 741.043 175.473 742.538 175.174L742.65 176.295C739.062 177.491 735.548 178.089 732.109 178.089C728.67 178.089 725.231 177.192 721.792 175.398C718.353 173.679 715.139 171.249 712.148 168.109C705.719 161.605 700.261 151.699 695.776 138.392L691.402 125.608H660.676L652.938 145.569C652.564 146.466 652.377 147.363 652.377 148.26C652.377 149.157 652.751 150.129 653.499 151.176C654.321 152.148 655.555 152.633 657.199 152.633H658.096V153.755H635.556V152.633H636.565C638.36 152.633 640.117 152.11 641.836 151.064C643.556 149.942 644.976 148.297 646.097 146.129L673.908 79.5178C669.871 73.7613 664.862 70.883 658.881 70.883C656.19 70.883 653.312 71.4437 650.247 72.5651L649.91 71.4437ZM661.909 122.243H690.281L681.422 96.1146C679.702 91.1057 678.132 87.1808 676.712 84.3399L661.909 122.243Z" fill="url(#paint1_linear_316_425)" fill-opacity="0.8"/>
</g>
</g>
</g>
<defs>
<filter id="filter0_f_316_425" x="-0.317871" y="73.3433" width="116.212" height="29.0073" filterUnits="userSpaceOnUse" color-interpolation-filters="sRGB">
<feFlood flood-opacity="0" result="BackgroundImageFix"/>
<feBlend mode="normal" in="SourceGraphic" in2="BackgroundImageFix" result="shape"/>
<feGaussianBlur stdDeviation="1" result="effect1_foregroundBlur_316_425"/>
</filter>
<filter id="filter1_f_316_425" x="710.643" y="33.373" width="175.086" height="31.4185" filterUnits="userSpaceOnUse" color-interpolation-filters="sRGB">
<feFlood flood-opacity="0" result="BackgroundImageFix"/>
<feBlend mode="normal" in="SourceGraphic" in2="BackgroundImageFix" result="shape"/>
<feGaussianBlur stdDeviation="1" result="effect1_foregroundBlur_316_425"/>
</filter>
<filter id="filter2_f_316_425" x="682.816" y="16.248" width="28.0352" height="33.0264" filterUnits="userSpaceOnUse" color-interpolation-filters="sRGB">
<feFlood flood-opacity="0" result="BackgroundImageFix"/>
<feBlend mode="normal" in="SourceGraphic" in2="BackgroundImageFix" result="shape"/>
<feGaussianBlur stdDeviation="1.5" result="effect1_foregroundBlur_316_425"/>
</filter>
<filter id="filter3_f_316_425" x="104.568" y="42.4219" width="54.968" height="53.8462" filterUnits="userSpaceOnUse" color-interpolation-filters="sRGB">
<feFlood flood-opacity="0" result="BackgroundImageFix"/>
<feBlend mode="normal" in="SourceGraphic" in2="BackgroundImageFix" result="shape"/>
<feGaussianBlur stdDeviation="1.5" result="effect1_foregroundBlur_316_425"/>
</filter>
<filter id="filter4_df_316_425" x="114.255" y="24.5311" width="562.429" height="180.259" filterUnits="userSpaceOnUse" color-interpolation-filters="sRGB">
<feFlood flood-opacity="0" result="BackgroundImageFix"/>
<feColorMatrix in="SourceAlpha" type="matrix" values="0 0 0 0 0 0 0 0 0 0 0 0 0 0 0 0 0 0 127 0" result="hardAlpha"/>
<feOffset/>
<feGaussianBlur stdDeviation="2.33626"/>
<feComposite in2="hardAlpha" operator="out"/>
<feColorMatrix type="matrix" values="0 0 0 0 0.121569 0 0 0 0 0.121569 0 0 0 0 0.121569 0 0 0 1 0"/>
<feBlend mode="normal" in2="BackgroundImageFix" result="effect1_dropShadow_316_425"/>
<feBlend mode="normal" in="SourceGraphic" in2="effect1_dropShadow_316_425" result="shape"/>
<feGaussianBlur stdDeviation="1.75" result="effect2_foregroundBlur_316_425"/>
</filter>
<filter id="filter5_f_316_425" x="162.692" y="66.2817" width="594.958" height="125.673" filterUnits="userSpaceOnUse" color-interpolation-filters="sRGB">
<feFlood flood-opacity="0" result="BackgroundImageFix"/>
<feBlend mode="normal" in="SourceGraphic" in2="BackgroundImageFix" result="shape"/>
<feGaussianBlur stdDeviation="4" result="effect1_foregroundBlur_316_425"/>
</filter>
<filter id="filter6_i_316_425" x="163.692" y="68.416" width="578.958" height="112.766" filterUnits="userSpaceOnUse" color-interpolation-filters="sRGB">
<feFlood flood-opacity="0" result="BackgroundImageFix"/>
<feBlend mode="normal" in="SourceGraphic" in2="BackgroundImageFix" result="shape"/>
<feColorMatrix in="SourceAlpha" type="matrix" values="0 0 0 0 0 0 0 0 0 0 0 0 0 0 0 0 0 0 127 0" result="hardAlpha"/>
<feOffset dy="3.09236"/>
<feGaussianBlur stdDeviation="1.54618"/>
<feComposite in2="hardAlpha" operator="arithmetic" k2="-1" k3="1"/>
<feColorMatrix type="matrix" values="0 0 0 0 0.86 0 0 0 0 0.597839 0 0 0 0 0.3956 0 0 0 1 0"/>
<feBlend mode="normal" in2="shape" result="effect1_innerShadow_316_425"/>
</filter>
<linearGradient id="paint0_linear_316_425" x1="118.954" y1="113.764" x2="672.198" y2="113.764" gradientUnits="userSpaceOnUse">
<stop stop-color="#DB9865"/>
<stop offset="1" stop-color="#A8622C" stop-opacity="0.48"/>
</linearGradient>
<linearGradient id="paint1_linear_316_425" x1="444.613" y1="72" x2="444.617" y2="182" gradientUnits="userSpaceOnUse">
<stop stop-color="#DB9865"/>
<stop offset="1" stop-color="#5C3618"/>
</linearGradient>
</defs>
</svg>
