<svg width="69" height="59" viewBox="0 0 69 59" fill="none" xmlns="http://www.w3.org/2000/svg">
<path d="M47.2953 13.2832C50.1392 13.2961 51.7101 13.2959 54.4606 13.2832" stroke="#F3F3F3" stroke-width="1.53543" stroke-linecap="round" stroke-linejoin="round"/>
<path d="M41.1535 19.4253C48.8726 19.4253 53.1367 19.4253 60.6023 19.4253" stroke="#F3F3F3" stroke-width="2.55906" stroke-linecap="round" stroke-linejoin="round"/>
<path d="M41.1535 24.0317C48.8726 24.0317 53.1367 24.0317 60.6023 24.0317" stroke="#F3F3F3" stroke-width="2.55906" stroke-linecap="round" stroke-linejoin="round"/>
<path d="M41.1535 29.1494C48.8726 29.1494 53.1367 29.1494 60.6023 29.1494" stroke="#D6381F" stroke-width="2.55906" stroke-linecap="round" stroke-linejoin="round"/>
<path d="M41.1535 34.0122C48.8726 34.0122 53.1367 34.0122 60.6023 34.0122" stroke="#D6381F" stroke-width="2.55906" stroke-linecap="round" stroke-linejoin="round"/>
<path d="M41.1535 39.0273C48.8726 39.0273 53.1367 39.0273 60.6023 39.0273" stroke="#D6381F" stroke-width="2.55906" stroke-linecap="round" stroke-linejoin="round"/>
<path d="M41.1535 43.9922C48.8726 43.9922 53.1367 43.9922 60.6023 43.9922" stroke="#F3F3F3" stroke-width="2.55906" stroke-linecap="round" stroke-linejoin="round"/>
<path d="M50.6221 51.4131C50.7236 51.4131 50.7797 51.4131 50.878 51.4131" stroke="#F3F3F3" stroke-width="4.09449" stroke-linecap="round" stroke-linejoin="round"/>
<path d="M8.39764 3.55908C4.55906 3.55908 2 6.37404 2 10.2126V46.0394C2 49.3662 4.30315 51.9252 8.39764 51.9252M19.1457 3.55908H27.8465C31.4291 3.55908 34.5 6.88585 34.5 8.67719V13.0276M34.5 47.063C34.5 49.878 31.1732 51.9252 27.8465 51.9252H19.1457M34.5 47.063V51.9252C34.5 54.2284 37.8268 57.0433 40.1299 57.0433H62.1378C64.185 57.0433 67 54.4843 67 51.6693V14.3071C67 11.4922 64.4409 8.9331 61.626 8.9331H40.1299C37.2053 9.35382 36.1012 10.4583 34.5 13.0276M34.5 47.063V13.0276" stroke="#F3F3F3" stroke-width="3.07087"/>
<path d="M17.8661 1H9.42126V57.811C9.42126 58.3228 10.4449 58.5787 11.2126 57.811L13.5158 55.5079C13.7717 55.252 13.7717 55.252 14.0276 55.5079L16.3307 57.811C17.3543 58.5787 17.8661 58.3228 17.8661 57.811V1Z" fill="#D6381F" stroke="#D6381F" stroke-width="0.255906" stroke-linejoin="round"/>
</svg>
