<svg width="325" height="275" viewBox="0 0 325 275" fill="none" xmlns="http://www.w3.org/2000/svg">
<path d="M223.326 59.3923C236.846 59.4535 244.314 59.4525 257.389 59.3923" stroke="#F3F3F3" stroke-width="7.29921" stroke-linecap="round" stroke-linejoin="round"/>
<path d="M194.13 88.5911C230.825 88.5911 251.096 88.5911 286.587 88.5911" stroke="#F3F3F3" stroke-width="12.1654" stroke-linecap="round" stroke-linejoin="round"/>
<path d="M194.13 110.489C230.825 110.489 251.096 110.489 286.587 110.489" stroke="#F3F3F3" stroke-width="12.1654" stroke-linecap="round" stroke-linejoin="round"/>
<path d="M194.13 134.818C230.825 134.818 251.096 134.818 286.587 134.818" stroke="#D6381F" stroke-width="12.1654" stroke-linecap="round" stroke-linejoin="round"/>
<path d="M194.13 157.935C230.825 157.935 251.096 157.935 286.587 157.935" stroke="#D6381F" stroke-width="12.1654" stroke-linecap="round" stroke-linejoin="round"/>
<path d="M194.13 181.776C230.825 181.776 251.096 181.776 286.587 181.776" stroke="#D6381F" stroke-width="12.1654" stroke-linecap="round" stroke-linejoin="round"/>
<path d="M194.13 205.377C230.825 205.377 251.096 205.377 286.587 205.377" stroke="#F3F3F3" stroke-width="12.1654" stroke-linecap="round" stroke-linejoin="round"/>
<path d="M239.142 240.656C239.625 240.656 239.892 240.656 240.359 240.656" stroke="#F3F3F3" stroke-width="19.4646" stroke-linecap="round" stroke-linejoin="round"/>
<path d="M38.4134 13.1655C20.1654 13.1655 8 26.5474 8 44.7954V215.11C8 230.925 18.9488 243.091 38.4134 243.091M89.5079 13.1655H130.87C147.902 13.1655 162.5 28.9805 162.5 37.4962V58.1773M162.5 219.977C162.5 233.358 146.685 243.091 130.87 243.091H89.5079M162.5 219.977V243.091C162.5 254.04 178.315 267.421 189.264 267.421H293.886C303.618 267.421 317 255.256 317 241.874V64.26C317 50.8781 304.835 38.7128 291.453 38.7128H189.264C175.361 40.7128 170.112 45.9634 162.5 58.1773M162.5 219.977V58.1773" stroke="#F3F3F3" stroke-width="14.5984"/>
<path d="M83.4257 1H43.28V271.071C43.28 273.504 48.1462 274.72 51.7958 271.071L62.7446 260.122C63.9611 258.906 63.9611 258.906 65.1777 260.122L76.1265 271.071C80.9926 274.72 83.4257 273.504 83.4257 271.071V1Z" fill="#D6381F" stroke="#D6381F" stroke-width="1.21654" stroke-linejoin="round"/>
</svg>
