<svg width="45" height="192" viewBox="0 0 45 192" fill="none" xmlns="http://www.w3.org/2000/svg">
<g filter="url(#filter0_d_500_126)">
<path d="M10.344 133.72C12.5627 133.72 14.44 132.952 15.976 131.416C17.5973 129.795 18.4507 127.875 18.536 125.656V54.616C18.4507 52.3973 17.5973 50.52 15.976 48.984C14.44 47.448 12.5627 46.68 10.344 46.68H8.68V45.4H36.712V46.68H35.048C32.8293 46.68 30.9093 47.448 29.288 48.984C27.752 50.52 26.9413 52.3973 26.856 54.616V125.656C26.856 127.875 27.6667 129.795 29.288 131.416C30.9093 132.952 32.8293 133.72 35.048 133.72H36.712V135H8.68V133.72H10.344Z" fill="url(#paint0_linear_500_126)" shape-rendering="crispEdges"/>
</g>
<defs>
<filter id="filter0_d_500_126" x="0.680176" y="41.3999" width="44.0317" height="105.6" filterUnits="userSpaceOnUse" color-interpolation-filters="sRGB">
<feFlood flood-opacity="0" result="BackgroundImageFix"/>
<feColorMatrix in="SourceAlpha" type="matrix" values="0 0 0 0 0 0 0 0 0 0 0 0 0 0 0 0 0 0 127 0" result="hardAlpha"/>
<feOffset dy="4"/>
<feGaussianBlur stdDeviation="4"/>
<feComposite in2="hardAlpha" operator="out"/>
<feColorMatrix type="matrix" values="0 0 0 0 0.968627 0 0 0 0 0.956863 0 0 0 0 0.94902 0 0 0 0.32 0"/>
<feBlend mode="normal" in2="BackgroundImageFix" result="effect1_dropShadow_500_126"/>
<feBlend mode="normal" in="SourceGraphic" in2="effect1_dropShadow_500_126" result="shape"/>
</filter>
<linearGradient id="paint0_linear_500_126" x1="1" y1="94.9493" x2="45.2955" y2="94.9493" gradientUnits="userSpaceOnUse">
<stop stop-color="#DB9865"/>
<stop offset="1" stop-color="#A8622C" stop-opacity="0.48"/>
</linearGradient>
</defs>
</svg>
